<svg xmlns="http://www.w3.org/2000/svg" xml:space="preserve" width="2829.333" height="2829.333"><path d="m12879.2 14762.6 307.5 926.3-280.3 91.8-307.8-926.4 280.6-91.7" style="fill:#bd542e;fill-opacity:1;fill-rule:nonzero;stroke:none" transform="matrix(.13333 0 0 -.13333 0 2829.333)"/><path d="M9576.33 3094.1c-231.81-126.3-588.64-703.1-477.46-943h5114.53c89.7 251.9-237.4 829.9-476 943h-.4l.4 3.2c-302.9 205.3-1414.4 463.1-1414.4 463.1v1028.5c2243.2 284.6 4233.4 1812.9 4981.8 4089.2 1036.1 3149.2-695.7 6535.3-3868.5 7563.6-94.7 30.9-190.3 57.1-285.4 82.7l-240 77.6c-49.9 16.5-103.8-10.7-120.3-60.5l-147.2-448.2c-16.7-49.4 11-103.5 60.7-119.8l197.1-63.7 217.8-70.6 197.1-63.8c50.1-16.3 104 11 120.5 60.8l63.2 192.8c3000.2-1538.9 4141.3-4228.4 3240-6967.5C15823.9 6076.1 13249 4536 9988.99 5155.3l57.91 176.5c16.3 49.8-10.8 103.4-61.51 119.8l-196.74 63.7-217.97 70.4-196.93 64c-49.89 16.4-104.37-11-120.49-60.9l-147.37-448c-16.18-49.9 11.15-103.4 61.24-119.5l142.89-46.7c123.08-48.9 247.22-95.2 374.47-136.7 433.11-140.8 870.81-227.8 1306.01-269V3555.3s-1019.14-246.1-1414.17-461.2" style="fill:#bd542e;fill-opacity:1;fill-rule:nonzero;stroke:none" transform="matrix(.13333 0 0 -.13333 0 2829.333)"/><path d="M13436.3 16241.7c-94.7 30.9-190.3 57.1-285.4 82.7l-240 77.6c-49.9 16.5-103.8-10.7-120.3-60.5l-147.2-448.2c-16.7-49.4 11-103.5 60.7-119.8l197.1-63.7 217.8-70.6 197.1-63.8c50.1-16.3 104 11 120.5 60.8l63.2 192.8c3000.2-1538.9 4141.3-4228.4 3240-6967.5-716.2-2177.9-2446.2-3594.4-4725.2-3812.8 74.8-414-14-832.6-541.6-997.5-141.2-47.2-188.4-329.8-141.2-518.3 141.2-329.7 471-329.7 659.3-565.1 282.7-329.9-188.3-612.6-471-612.6-819.3-71.2-1638.1-142-2436.82-30.3-9.65-66.7-6.24-126.8 15.59-173.8h5114.53c89.7 251.9-237.4 829.9-476 943h-.4l.4 3.2c-302.9 205.2-1414.4 463.1-1414.4 463.1v1028.5c2243.2 284.6 4233.4 1812.9 4981.8 4089.2 1036.1 3149.2-695.6 6535.3-3868.5 7563.6" style="fill:#a33e27;fill-opacity:1;fill-rule:nonzero;stroke:none" transform="matrix(.13333 0 0 -.13333 0 2829.333)"/><path d="m9735.35 5173.8 307.75 926.5-280.47 91.7-307.71-926.4 280.43-91.8" style="fill:#bd542e;fill-opacity:1;fill-rule:nonzero;stroke:none" transform="matrix(.13333 0 0 -.13333 0 2829.333)"/><path d="M6279.6 10588.8c0 2790.2 2261.8 5052.2 5052.2 5052.2 2790.5 0 5052.4-2262 5052.4-5052.2s-2261.9-5052.3-5052.4-5052.3c-2790.4 0-5052.2 2262.1-5052.2 5052.3" style="fill:#18b4e3;fill-opacity:1;fill-rule:nonzero;stroke:none" transform="matrix(.13333 0 0 -.13333 0 2829.333)"/><path d="M12139.7 6244c182.7 213.3 91 548.7 304.7 762 152.3 121.9 426.7 182.9 457.2 304.8 304.9 975.4-975.4 1128-1371.7 1829-152.3 213.3 60.7 579.2-152.3 792.6-304.9 396.1-945 640.1-823.3 1280.3 61 213.3 213.5 365.7 305.1 518.1 182.7 396.2-244.1 975.5 60.9 1219.2 396.4 335.4 1188.6 61.1 1524.1 609.8 152.3 274.3 182.7 518.3 396.1 823 216.9 312.9 110.4 683-19.2 1035-471 145-971.1 223.2-1489.5 223.2-1364.63 0-2602.33-541.1-3511.46-1420.4 17.98-839.5 77.18-1788.5 966.23-2154.5 91.25-30.6 274.1-182.7 182.7-365.8-122-213.4-122-487.6 30.69-609.6 243.41-243.9 640.15-304.8 1005.74-365.8 243.9-60.9 396.4-244 457.2-457.4 91.4-274.2 60.9-640.1-274.3-731.5-518.34-122-1462.94-182.9-1341.33-853.5 30.55-213.4 274.5-365.7 244.19-609.6-122.19-487.7-762.33-457.2-884.28-853.6-91.3-182.8 152.5-457.2 335.4-579.1 216.12-120.2 337.54-334.5 439.02-524.4 502.55-264.5 1055-446.6 1639.7-529 461.9 275.4 1169.9 134.4 1518.4 657.2" style="fill:#1b92d9;fill-opacity:1;fill-rule:nonzero;stroke:none" transform="matrix(.13333 0 0 -.13333 0 2829.333)"/><path d="M15057.4 14001.3c-401.1-92.5-797.2-198.8-997.4-533.1-183-304.8 60.7-761.9-91.6-1127.8-274.3-579.2-1158.2-365.9-1432.6-853.5-426.9-670.7 670.7-1158.4 1127.9-1707 274.2-335.2 152.4-762.1-30.5-1127.8-91.5-152.4-91.5-365.9-30.6-518.2 227.3-557.7 748.2-946.8 1316.5-1102.4 905.6 913 1465.1 2169.8 1465.1 3557.3 0 1315.5-503 2513.4-1326.8 3412.5" style="fill:#1b92d9;fill-opacity:1;fill-rule:nonzero;stroke:none" transform="matrix(.13333 0 0 -.13333 0 2829.333)"/><path d="M11323.6 5536.5h-1.7 1.7m-4.1 0h-2 2m-4.2 0h-1.9 1.9m-4.1.1h-2 2m-4.1 0h-2 2m-4.1 0h-1.9 1.9m-4.2 0h-1.7 1.7m-4.1 0c-.5.1-1.2.1-1.7.1.5 0 1.2 0 1.7-.1m-4.2.1h-1.5 1.5m-4.1 0h-1.5 1.5m-4.1.1h-1.6 1.6m-4.1 0h-1.6 1.6m-4.2 0c-.5 0-1 0-1.5.1.5-.1 1-.1 1.5-.1m-4.2.1h-1.3 1.3m-4.1 0c-.5 0-.9 0-1.4.1.3 0 1.1-.1 1.4-.1m-4.1.1h-1.4 1.4m-4.2.1h-1.2 1.2m-4.1 0h-1.2 1.2m-4.2.1h-1.1 1.1m-4.2 0c-.3.1-.6.1-.9.1.3 0 .6 0 .9-.1m-4.1.1h-.9.9m-4.2.1h-.8.8m-4.1.1h-.9.9m-4.2.1h-.7.7m-4.2 0c-.2 0-.4 0-.6.1.3-.1.3-.1.6-.1m-4.2.1h-.4.4m-4.2.1h-.4.4m-4.2.1h-.2.2m-4.2.1h-.1.1" style="fill:#1f6fa4;fill-opacity:1;fill-rule:nonzero;stroke:none" transform="matrix(.13333 0 0 -.13333 0 2829.333)"/><path d="M11331.8 5536.5h-18.4c-.7 0-1.5.1-2.2.1H11294.7c-.5.1-1.2.1-1.7.1h-8.1c-.9 0-1.7 0-2.6.1H11274c-.5 0-1 0-1.5.1h-6.8c-.3 0-1.1.1-1.4.1h-4.1c-.9 0-1.8 0-2.8.1h-5.3c-.9 0-2 .1-3 .1h-4.2c-.3.1-.6.1-.9.1H11239.9c-1.1.1-2.2.1-3.3.1h-.8c-1.1 0-2.2 0-3.3.1h-.9c-1.1 0-2.2 0-3.3.1h-4.2c-.3 0-.3 0-.6.1h-4c-1.2.1-2.6.1-3.8.1h-.4c-1.3.1-2.5.1-3.8.1h-.2c-1.4.1-2.6.1-4 .1h-.1c-1372.09 33.2-2607.83 613.6-3499.41 1531.1 85.95-31.8 171.12-62.9 255.4-93.6 110.13-39.1 222.81-75.3 337.22-107.8 70.21-91.4 162.04-174.1 242.17-227.5 216.12-120.2 337.54-334.5 439.02-524.4 502.55-264.5 1055-446.6 1639.7-529 461.9 275.4 1169.9 134.4 1518.4 657.2 182.7 213.3 91 548.7 304.7 762 152.3 121.9 426.7 182.9 457.2 304.8 304.9 975.4-975.4 1128-1371.7 1829-152.3 213.3 60.7 579.2-152.3 792.6-90.9 118.1-211.7 222.7-333.2 328.3 76.6 84.6 170.2 152.7 272.3 189.8 415.7 157.8 858.6 227.8 1284 324.5 263.2-346.2 783.1-659.3 1063-995.1 274.2-335.2 152.4-762.1-30.5-1127.8-91.5-152.4-91.5-365.9-30.6-518.2 227.3-557.7 748.2-946.8 1316.5-1102.4 889.6 897 1445.3 2125.7 1464.5 3484.2-39-2756.5-2285.7-4979.2-5051.8-4979.2" style="fill:#00ace1;fill-opacity:1;fill-rule:nonzero;stroke:none" transform="matrix(.13333 0 0 -.13333 0 2829.333)"/><path d="M10621.3 5586.8c-584.7 82.4-1137.15 264.5-1639.7 529-101.48 189.9-222.9 404.2-439.02 524.4-80.13 53.4-171.96 136.1-242.17 227.5 376.63-107 772.64-174.2 1164.34-174.2 510.56 0 1013.55 114.3 1455.55 403.9 975.4 609.7 365.8 1707-30.5 2499.6-106.3 190.9-20.5 470.3 154.6 663.7 121.5-105.6 242.3-210.2 333.2-328.3 213-213.4 0-579.3 152.3-792.6 396.3-701 1676.6-853.6 1371.7-1829-30.5-121.9-304.9-182.9-457.2-304.8-213.7-213.3-122-548.7-304.7-762-348.5-522.8-1056.5-381.8-1518.4-657.2" style="fill:#117fcc;fill-opacity:1;fill-rule:nonzero;stroke:none" transform="matrix(.13333 0 0 -.13333 0 2829.333)"/><path d="M16383.6 10515.9c.1 1.3.1 2.6.1 3.8 0-1.3 0-2.4-.1-3.8M16383.7 10520.2c0 1.2 0 2.4.1 3.6-.1-1.2-.1-2.4-.1-3.6M16383.8 10524.2v3.7-3.7M16383.8 10528.2v3.7-3.7M16383.9 10532.5v3.5-3.5M16383.9 10536.5v3.5-3.5M16383.9 10540.6c0 1.2.1 2.3.1 3.5 0-1-.1-2.5-.1-3.5M16384 10544.4v3.7-3.7M16384 10548.5v3.7-3.7M16384 10552.3c0 1.4 0 2.6.1 3.9-.1-1.2-.1-2.7-.1-3.9M16384.1 10557.2v3.1-3.1M16384.1 10561.4v2.9-2.9M16384.1 10565.8v2.6-2.6M16384.1 10569.4v3.1-3.1M16384.1 10573.8v2.8-2.8M16384.2 10578.9v1.7-1.7M16384.2 10582.5v6.3-6.3" style="fill:#00ace1;fill-opacity:1;fill-rule:nonzero;stroke:none" transform="matrix(.13333 0 0 -.13333 0 2829.333)"/><path d="M16384.2 10588.8v3.4-3.4m0 4.5v2.8-2.8" style="fill:#1f6fa4;fill-opacity:1;fill-rule:nonzero;stroke:none" transform="matrix(.13333 0 0 -.13333 0 2829.333)"/><path d="M16384.2 10593.1v1-1" style="fill:#00ace1;fill-opacity:1;fill-rule:nonzero;stroke:none" transform="matrix(.13333 0 0 -.13333 0 2829.333)"/><path d="M16384.2 10596.7c0-.1 0 .1 0 0m0 .7v.9c-.1.5-.1 1.1-.1 1.6 0-.7.1-1.7.1-2.5" style="fill:#1f6fa4;fill-opacity:1;fill-rule:nonzero;stroke:none" transform="matrix(.13333 0 0 -.13333 0 2829.333)"/><path d="M16384.2 10596.7v1.6-1.6" style="fill:#00ace1;fill-opacity:1;fill-rule:nonzero;stroke:none" transform="matrix(.13333 0 0 -.13333 0 2829.333)"/><path d="M16384.1 10601.3v2.6-2.6" style="fill:#1f6fa4;fill-opacity:1;fill-rule:nonzero;stroke:none" transform="matrix(.13333 0 0 -.13333 0 2829.333)"/><path d="M16384.1 10600.8v1.6-1.6" style="fill:#00ace1;fill-opacity:1;fill-rule:nonzero;stroke:none" transform="matrix(.13333 0 0 -.13333 0 2829.333)"/><path d="M16384.1 10604.3v.4-.4m0 1.4V10607.6v-1.9" style="fill:#1f6fa4;fill-opacity:1;fill-rule:nonzero;stroke:none" transform="matrix(.13333 0 0 -.13333 0 2829.333)"/><path d="M16384.1 10604.6v1.9V10604.6" style="fill:#00ace1;fill-opacity:1;fill-rule:nonzero;stroke:none" transform="matrix(.13333 0 0 -.13333 0 2829.333)"/><path d="M16384.1 10608.5v.3-.3m0 .8v2.2-2.2" style="fill:#1f6fa4;fill-opacity:1;fill-rule:nonzero;stroke:none" transform="matrix(.13333 0 0 -.13333 0 2829.333)"/><path d="M16384.1 10608.6v1.9-1.9" style="fill:#00ace1;fill-opacity:1;fill-rule:nonzero;stroke:none" transform="matrix(.13333 0 0 -.13333 0 2829.333)"/><path d="M16384.1 10612v.8-.8m0 1.8v1.5-1.5" style="fill:#1f6fa4;fill-opacity:1;fill-rule:nonzero;stroke:none" transform="matrix(.13333 0 0 -.13333 0 2829.333)"/><path d="M16384.1 10612.6v1.9-1.9" style="fill:#00ace1;fill-opacity:1;fill-rule:nonzero;stroke:none" transform="matrix(.13333 0 0 -.13333 0 2829.333)"/><path d="M16384.1 10616.3V10617.2v-.9m0 1.6V10619.2v-1.3" style="fill:#1f6fa4;fill-opacity:1;fill-rule:nonzero;stroke:none" transform="matrix(.13333 0 0 -.13333 0 2829.333)"/><path d="M16384.1 10616.5v2V10616.5" style="fill:#00ace1;fill-opacity:1;fill-rule:nonzero;stroke:none" transform="matrix(.13333 0 0 -.13333 0 2829.333)"/><path d="M16384.1 10619.7v1.1-1.1m0 2.2c0 .2 0 .4-.1.6v.5c0-.3.1-.8.1-1.1" style="fill:#1f6fa4;fill-opacity:1;fill-rule:nonzero;stroke:none" transform="matrix(.13333 0 0 -.13333 0 2829.333)"/><path d="M16384.1 10620.5c0 .6 0 1.4-.1 2 .1-.2.1-.4.1-.6V10620.5" style="fill:#00ace1;fill-opacity:1;fill-rule:nonzero;stroke:none" transform="matrix(.13333 0 0 -.13333 0 2829.333)"/><path d="M16384 10623.9v1.3-1.3m0 2.3v.7-.7" style="fill:#1f6fa4;fill-opacity:1;fill-rule:nonzero;stroke:none" transform="matrix(.13333 0 0 -.13333 0 2829.333)"/><path d="M16384 10624.4v2.1-2.1" style="fill:#00ace1;fill-opacity:1;fill-rule:nonzero;stroke:none" transform="matrix(.13333 0 0 -.13333 0 2829.333)"/><path d="M16384 10627.4v1.5-1.5m0 2.5V10630.8v-.9" style="fill:#1f6fa4;fill-opacity:1;fill-rule:nonzero;stroke:none" transform="matrix(.13333 0 0 -.13333 0 2829.333)"/><path d="M16384 10628.3v2.2-2.2" style="fill:#00ace1;fill-opacity:1;fill-rule:nonzero;stroke:none" transform="matrix(.13333 0 0 -.13333 0 2829.333)"/><path d="M16384 10631.6v1.6-1.6m0 2.8v.2-.2" style="fill:#1f6fa4;fill-opacity:1;fill-rule:nonzero;stroke:none" transform="matrix(.13333 0 0 -.13333 0 2829.333)"/><path d="M16384 10632.2v2.3-2.3" style="fill:#00ace1;fill-opacity:1;fill-rule:nonzero;stroke:none" transform="matrix(.13333 0 0 -.13333 0 2829.333)"/><path d="M16384 10635.1c-.1.3-.1.7-.1 1v.8c0-.5 0-1.3.1-1.8" style="fill:#1f6fa4;fill-opacity:1;fill-rule:nonzero;stroke:none" transform="matrix(.13333 0 0 -.13333 0 2829.333)"/><path d="M16383.9 10636.1v2.4V10636.1" style="fill:#00ace1;fill-opacity:1;fill-rule:nonzero;stroke:none" transform="matrix(.13333 0 0 -.13333 0 2829.333)"/><path d="M16383.9 10639.3V10641.1v-1.8" style="fill:#1f6fa4;fill-opacity:1;fill-rule:nonzero;stroke:none" transform="matrix(.13333 0 0 -.13333 0 2829.333)"/><path d="M16383.9 10639.9v2.3-2.3" style="fill:#00ace1;fill-opacity:1;fill-rule:nonzero;stroke:none" transform="matrix(.13333 0 0 -.13333 0 2829.333)"/><path d="M16383.9 10642.8v.9c0 .5 0 1.1-.1 1.6.1-.8.1-1.6.1-2.5" style="fill:#1f6fa4;fill-opacity:1;fill-rule:nonzero;stroke:none" transform="matrix(.13333 0 0 -.13333 0 2829.333)"/><path d="M16383.9 10643.7c0 .9 0 1.6-.1 2.5v-.9c.1-.5.1-1.1.1-1.6" style="fill:#00ace1;fill-opacity:1;fill-rule:nonzero;stroke:none" transform="matrix(.13333 0 0 -.13333 0 2829.333)"/><path d="M16383.8 10647v2-2" style="fill:#1f6fa4;fill-opacity:1;fill-rule:nonzero;stroke:none" transform="matrix(.13333 0 0 -.13333 0 2829.333)"/><path d="M16383.8 10647.1v2.7-2.7" style="fill:#00ace1;fill-opacity:1;fill-rule:nonzero;stroke:none" transform="matrix(.13333 0 0 -.13333 0 2829.333)"/><path d="M16383.8 10650.6v2.8-2.8" style="fill:#1f6fa4;fill-opacity:1;fill-rule:nonzero;stroke:none" transform="matrix(.13333 0 0 -.13333 0 2829.333)"/><path d="M16383.8 10650.5c0 1.1 0 2.3-.1 3.3.1-.2.1-.2.1-.4v-2.9" style="fill:#00ace1;fill-opacity:1;fill-rule:nonzero;stroke:none" transform="matrix(.13333 0 0 -.13333 0 2829.333)"/><path d="M16383.7 10655.3v1.5-1.5" style="fill:#1f6fa4;fill-opacity:1;fill-rule:nonzero;stroke:none" transform="matrix(.13333 0 0 -.13333 0 2829.333)"/><path d="M16383.7 10654.8v2.7-2.7" style="fill:#00ace1;fill-opacity:1;fill-rule:nonzero;stroke:none" transform="matrix(.13333 0 0 -.13333 0 2829.333)"/><path d="M16383.7 10659.5c0 .5 0 1.3-.1 1.9.1-.7.1-1.3.1-1.9" style="fill:#1f6fa4;fill-opacity:1;fill-rule:nonzero;stroke:none" transform="matrix(.13333 0 0 -.13333 0 2829.333)"/><path d="M16383.7 10658.2c0 1.1 0 2.3-.1 3.4v-.2c.1-.6.1-1.4.1-1.9v-1.3" style="fill:#00ace1;fill-opacity:1;fill-rule:nonzero;stroke:none" transform="matrix(.13333 0 0 -.13333 0 2829.333)"/><path d="M16383.6 10663.3v1.4-1.4" style="fill:#1f6fa4;fill-opacity:1;fill-rule:nonzero;stroke:none" transform="matrix(.13333 0 0 -.13333 0 2829.333)"/><path d="M16383.6 10662.4v2.8-2.8" style="fill:#00ace1;fill-opacity:1;fill-rule:nonzero;stroke:none" transform="matrix(.13333 0 0 -.13333 0 2829.333)"/><path d="M16383.6 10667.8c-.1.6-.1.9-.1 1.4 0-.4 0-.9.1-1.4" style="fill:#1f6fa4;fill-opacity:1;fill-rule:nonzero;stroke:none" transform="matrix(.13333 0 0 -.13333 0 2829.333)"/><path d="M16383.6 10665.9c0 1.1-.1 2.3-.1 3.4v-.1c0-.5 0-.8.1-1.4v-1.9" style="fill:#00ace1;fill-opacity:1;fill-rule:nonzero;stroke:none" transform="matrix(.13333 0 0 -.13333 0 2829.333)"/><path d="M16383.5 10671.2v1.2-1.2" style="fill:#1f6fa4;fill-opacity:1;fill-rule:nonzero;stroke:none" transform="matrix(.13333 0 0 -.13333 0 2829.333)"/><path d="M16383.5 10669.9v3.1V10669.9" style="fill:#00ace1;fill-opacity:1;fill-rule:nonzero;stroke:none" transform="matrix(.13333 0 0 -.13333 0 2829.333)"/><path d="M16383.4 10676v.9-.9" style="fill:#1f6fa4;fill-opacity:1;fill-rule:nonzero;stroke:none" transform="matrix(.13333 0 0 -.13333 0 2829.333)"/><path d="M16383.5 10673.6c-.1 1.1-.1 2.2-.1 3.4v-1c0-.7 0-1.7.1-2.4m-.1 4.1c0 1 0 1.9-.1 2.9.1-1 .1-1.9.1-2.9" style="fill:#00ace1;fill-opacity:1;fill-rule:nonzero;stroke:none" transform="matrix(.13333 0 0 -.13333 0 2829.333)"/><path d="M16383.3 10684v.6-.6" style="fill:#1f6fa4;fill-opacity:1;fill-rule:nonzero;stroke:none" transform="matrix(.13333 0 0 -.13333 0 2829.333)"/><path d="M16383.3 10681.3v3.4V10681.3m0 4.1c-.1.9-.1 1.9-.1 2.9 0-1.1 0-1.9.1-2.9m-.1 3.6c0 1.1-.1 2.3-.1 3.4 0-1 .1-2.4.1-3.4m-.1 3.9c0 1 0 2.1-.1 3.1.1-1.1.1-2 .1-3.1m-.1 3.7v3.5-3.5m-.1 4v3-3m0 3.8c-.1 1.1-.1 2.2-.1 3.3 0-1 0-2.3.1-3.3m-.1 3.9c0 1-.1 2.1-.1 3 0-.9.1-2 .1-3m-.1 3.7c0 1.2-.1 2.3-.1 3.5 0-1.2.1-2.3.1-3.5m-.1 3.8c0 1.1-.1 2.2-.1 3.3 0-1.1.1-2.2.1-3.3m-.1 3.8c0 1.2-.1 2.4-.1 3.6 0-1.2.1-2.4.1-3.6m-.1 3.8c0 1.1-.1 2.2-.1 3.3 0-1.1.1-2.3.1-3.3m-.1 3.9c0 1.2-.1 2.4-.1 3.6 0-1.2.1-2.4.1-3.6m-.1 3.7c0 1.2-.1 2.2-.1 3.4 0-1 .1-2.3.1-3.4m-.1 3.9c-.1 2.4-.2 4.8-.2 7.2 0-2.3.1-4.8.2-7.2m-.2 7.7c-.1 2.4-.2 4.9-.3 7.3.1-2.4.2-5 .3-7.3m-.3 7.6c0 2.4-.1 4.8-.2 7.3.1-2.5.2-4.9.2-7.3m-.2 7.7c-.1 2.3-.2 4.8-.3 7.2l.3-7.2m-.3 7.6c-.1 2.4-.1 4.8-.2 7.2.1-2.4.1-4.8.2-7.2m-.2 7.7-.3 7.2c.1-2.4.2-4.7.3-7.2m-.3 7.6-.3 7.2c.1-2.3.2-4.9.3-7.2m-.3 7.7c-.1 2.3-.2 4.8-.3 7.2.1-2.3.2-4.9.3-7.2m-.3 7.6c-.1 2.3-.2 4.8-.3 7.2.1-2.5.2-4.8.3-7.2m-.3 7.7c-.1 2.4-.2 4.7-.3 7.1.1-2.3.2-4.8.3-7.1m-.4 7.6-.3 7.2c.1-2.5.2-4.7.3-7.2m-.3 7.6-.3 7.2c.1-2.4.2-4.7.3-7.2m-.3 7.6c-.2 2.4-.3 4.8-.4 7.2.1-2.4.2-4.7.4-7.2m-.4 7.7c-.1 2.3-.2 4.8-.4 7.2.2-2.5.3-4.8.4-7.2m-.4 7.5c-.1 2.4-.2 4.9-.3 7.3.1-2.3.2-4.9.3-7.3m-.4 7.6c-.1 2.5-.2 4.9-.3 7.4.1-2.6.2-4.8.3-7.4m-.3 7.6c-.2 2.4-.3 4.8-.4 7.3.1-2.4.2-4.9.4-7.3m-.4 7.7c-.2 2.4-.3 4.8-.4 7.3.1-2.5.2-4.9.4-7.3m-.5 7.5c-.1 2.4-.2 4.9-.4 7.4.2-2.5.3-5 .4-7.4m-.4 7.7c-.1 1.1-.1 2.3-.2 3.5.1-1.2.1-2.4.2-3.5m-.2 3.6c-.1 1.3-.1 2.5-.2 3.7.1-1.3.1-2.4.2-3.7m-.2 3.8c-.1 1.3-.2 2.5-.2 3.7 0-1.2.1-2.4.2-3.7m-.2 3.8c-.1 1.2-.2 2.4-.3 3.7.1-1.3.2-2.5.3-3.7m-.3 3.9c0 1.2-.1 2.4-.2 3.6.1-1.3.2-2.3.2-3.6m-.2 3.7c-.1 1.3-.1 2.5-.2 3.7.1-1.2.1-2.4.2-3.7m-.2 3.8c-.2 2.5-.3 5-.5 7.5.2-2.5.3-5 .5-7.5m-.5 7.6c-.2 3.8-.5 7.4-.7 11.2.2-3.7.5-7.5.7-11.2m-.7 11.4c-.2 2.4-.3 4.9-.5 7.3.2-2.4.3-4.9.5-7.3m-.5 7.6c-.2 2.4-.4 5-.5 7.3.1-2.4.3-4.8.5-7.3m-.5 7.6c-.2 2.4-.4 4.8-.5 7.2.1-2.4.3-4.8.5-7.2m-.6 7.6c-.1 2.4-.3 4.8-.5 7.1.2-2.3.4-4.7.5-7.1m-.5 7.6-.3 3.6.3-3.6m-.3 3.6c0 1.2-.1 2.4-.2 3.5.1-1.1.2-2.3.2-3.5m-.2 4c-.2 2.4-.4 4.7-.6 7.1.2-2.4.4-4.7.6-7.1m-.6 7.6c-.2 2.3-.3 4.7-.5 7.1.2-2.5.3-4.7.5-7.1m-.6 7.6c-.1 2.3-.3 4.6-.5 7 .2-2.4.4-4.7.5-7m-.5 7.6c-.1 1.2-.2 2.3-.3 3.4.1-1.1.2-2.3.3-3.4m-.3 3.6c-.1 1.1-.2 2.1-.3 3.3.1-1.2.2-2.2.3-3.3m-.3 4c-.2 2.4-.4 4.5-.6 6.9l.6-6.9m-.6 7.5c-.1 1.2-.2 2.2-.3 3.4.1-1.1.2-2.2.3-3.4m-.3 3.5c-.1 1.1-.2 2.3-.3 3.4.1-1.2.2-2.3.3-3.4m-.4 4.2c0 1-.1 2.1-.2 3.2.1-1.1.2-2.2.2-3.2m-.2 3.4-.3 3.3c.1-1.1.2-2.3.3-3.3m-.4 4.2c-.1.9-.1 1.9-.2 2.8.1-.9.1-1.9.2-2.8m-.3 3.4c0 1-.2 2.3-.2 3.3 0-1.1.1-2.3.2-3.3m-.3 4.1c-.1 1-.2 1.9-.3 2.9.1-1 .2-1.9.3-2.9m-.3 3.4c-.1 1.1-.2 2.1-.3 3.2.1-1 .2-2.1.3-3.2m-.4 4.2c0 1-.1 1.8-.2 2.8.1-1 .2-1.8.2-2.8m-.3 3.4c0 1-.1 2.2-.2 3.2.1-1.1.2-2.1.2-3.2m-.3 4.2-.3 2.7.3-2.7m-.3 3.3c-.1 1.1-.2 2.2-.3 3.2.1-1 .2-2.1.3-3.2m-.4 4.2c-.1.9-.1 1.7-.2 2.5.1-.8.1-1.6.2-2.5m-.3 3.5-.3 3c.1-.9.2-2.1.3-3m-.4 4.3c0 .7-.1 1.4-.2 2.1.1-.7.2-1.4.2-2.1m-.3 3.2c-.1 1.1-.2 2-.3 3 .1-.9.2-2 .3-3m-.4 4.2c0 .8-.1 1.5-.2 2.3.1-.8.2-1.6.2-2.3m-.3 3.4c-.1 1-.2 2-.2 2.9 0-.9.1-1.9.2-2.9m-.4 4.3c0 .7-.1 1.3-.2 1.9.1-.6.2-1.2.2-1.9m-.3 3.3c-.1.9-.2 1.9-.2 2.8 0-1 .1-1.9.2-2.8m-.4 4.3c0 .6-.1 1.2-.2 1.8.1-.7.1-1.2.2-1.8m-.3 3.3c-.1 1-.2 1.9-.3 2.8.1-.9.2-1.8.3-2.8m-.4 4.2c-.1.6-.1 1.2-.2 1.8.1-.6.1-1.1.2-1.8m-.3 3.3c-.1.9-.2 1.9-.3 2.8.1-.9.2-2 .3-2.8m-.5 4.3c0 .6-.1 1.1-.1 1.6 0-.6.1-1 .1-1.6m-.3 3.4c-.1.8-.2 1.7-.2 2.5 0-.8.1-1.7.2-2.5m-.4 4.3c-.1.5-.1.9-.2 1.4.1-.4.1-.9.2-1.4m-.3 3.2c-.1.6-.2 1.3-.2 1.9 0-.6.1-1.3.2-1.9m-.5 4.5c0 .3-.1.7-.1 1.1 0-.5.1-.7.1-1.1m-.8 7.5c0 .4 0 .8-.1 1.1.1-.3.1-.7.1-1.1m-.7 7.6c-.1.4-.1.7-.2 1 .1-.3.1-.7.2-1m-.4 3.1v.2-.2m-.4 4.5c-.1.3-.1.6-.1.9 0-.3 0-.6.1-.9m-.4 3v.1-.1m-.5 4.8v.4-.4m-.8 7.6v.3-.3m-.8 7.7-.1.1.1-.1m-2092.7 2543.2c-34.5 374.7-87.4 747.8-153.6 1117.8 349.2-230.1 668.4-502.4 949.9-809.5-292.9-67.5-583.1-142.5-796.3-308.3" style="fill:#00ace1;fill-opacity:1;fill-rule:nonzero;stroke:none" transform="matrix(.13333 0 0 -.13333 0 2829.333)"/><path d="M14919.1 7031.5c-568.3 155.6-1089.2 544.7-1316.5 1102.4-60.9 152.3-60.9 365.8 30.6 518.2 182.9 365.7 304.7 792.6 30.5 1127.8-279.9 335.8-799.8 648.9-1063 995.1 478.8 108.7 935.5 251.1 1306.6 590 183.3 152.4 335.4 396.2 366.2 640.2 48.8 563.9 38.7 1127.7-12.8 1687.7 213.2 165.8 503.4 240.8 796.3 308.3 705.4-769.3 1175.5-1757.6 1296.3-2851.4l.1-.1c.2-2.6.5-4.9.8-7.4v-.3c.3-2.4.5-4.8.8-7.2v-.4c.2-1.6.4-3.2.5-4.7v-.1l.3-2.1c0-.3 0-.6.1-.9.1-1.3.3-2.9.4-4.3v-.2c.1-.8.2-1.3.2-2.1.1-.3.1-.6.2-1 .2-2.2.4-4.3.6-6.5.1-.3.1-.7.1-1.1.3-2 .5-4.3.7-6.4 0-.4.1-.8.1-1.1.1-.9.2-1.7.3-2.6 0-.6.1-1.3.2-1.9 0-.7.1-1.2.1-1.8.1-.5.1-.9.2-1.4 0-.6.1-1.1.2-1.8 0-.8.1-1.7.2-2.5.1-.5.1-1.2.2-1.8 0-.5.1-1 .1-1.6.1-.5.1-1 .2-1.5.1-.9.2-1.9.3-2.8 0-.5.1-.9.1-1.5.1-.6.1-1.2.2-1.8 0-.4.1-1 .1-1.4.1-.9.2-1.8.3-2.8 0-.5.1-1 .1-1.5.1-.6.2-1.2.2-1.8 0-.4.1-1.1.2-1.5 0-.9.1-1.9.2-2.8.1-.5.1-.9.1-1.4.1-.6.2-1.2.2-1.9.1-.4.1-1 .2-1.4 0-.9.1-1.9.2-2.9.1-.4.1-.7.1-1.1.1-.8.2-1.5.2-2.3.1-.4.1-.7.1-1.2.1-1 .2-1.9.3-3 .1-.4.1-.7.1-1.1.1-.7.2-1.4.2-2.1.1-.5.1-.9.1-1.3l.3-3c0-.3.1-.7.1-1 .1-.8.1-1.6.2-2.5 0-.3.1-.6.1-1 .1-1 .2-2.1.3-3.2v-.6l.3-2.7c0-.3 0-.7.1-1 .1-1 .2-2.2.2-3.2.1-.2.1-.4.1-.6.1-1 .2-1.8.2-2.8.1-.3.1-.6.1-1 .1-1.1.2-2.1.3-3.2v-.5c.1-1 .2-1.9.3-2.9 0-.3 0-.5.1-.8 0-1 .2-2.3.2-3.3.1-.2.1-.4.1-.6.1-.9.1-1.9.2-2.8 0-.3.1-.6.1-.9l.3-3.3v-.2c.1-1.1.2-2.2.2-3.2.1-.2.1-.6.1-.8.1-1.1.2-2.3.3-3.4v-.1c.1-1.2.2-2.2.3-3.4v-.6c.2-2.4.4-4.5.6-6.9v-.7c.1-1.2.2-2.2.3-3.3v-.2c.1-1.1.2-2.2.3-3.4v-.6c.2-2.4.4-4.7.5-7 0-.2.1-.4.1-.5.2-2.4.3-4.8.5-7.1v-.5c.2-2.4.4-4.7.6-7.1v-.5c.1-1.1.2-2.3.2-3.5l.3-3.6v-.5c.2-2.3.4-4.7.5-7.1.1-.2.1-.2.1-.4.1-2.4.3-4.8.5-7.2v-.3c.1-2.3.3-4.9.5-7.3v-.3c.2-2.4.3-4.9.5-7.3v-.2c.2-3.8.5-7.4.7-11.2v-.1c.2-2.5.3-5 .5-7.5v-.1c.1-1.2.1-2.4.2-3.7v-.1c.1-1.2.2-2.4.2-3.6v-.2c.1-1.3.2-2.5.3-3.7v-.1c0-1.2.1-2.4.2-3.7v-.1c.1-1.2.1-2.4.2-3.7v-.1c.1-1.2.1-2.4.2-3.5v-.3c.2-2.5.3-5 .4-7.4 0-.1 0-.1.1-.2.1-2.5.2-4.9.4-7.3v-.4c.1-2.5.2-4.9.4-7.3v-.2c.1-2.5.2-4.9.3-7.4.1-.1.1-.2.1-.3.1-2.4.2-4.9.3-7.3v-.3c.2-2.4.3-4.9.4-7.2v-.5c.1-2.4.2-4.8.4-7.2v-.4l.3-7.2v-.4l.3-7.2c0-.1.1-.4.1-.5.1-2.4.2-4.7.3-7.1v-.5c.1-2.4.2-4.9.3-7.2v-.4c.1-2.4.2-4.9.3-7.2v-.5l.3-7.2v-.4l.3-7.2v-.5c.1-2.4.1-4.8.2-7.2v-.4c.1-2.4.2-4.9.3-7.2v-.4c.1-2.5.2-4.9.2-7.3v-.3c.1-2.4.2-4.9.3-7.3v-.5c0-2.4.1-4.8.2-7.2v-.5c0-1.2.1-2.2.1-3.4v-.1c0-1.2.1-2.4.1-3.6v-.6c0-1.1.1-2.2.1-3.3v-.2c0-1.2.1-2.4.1-3.6v-.5c0-1.1.1-2.2.1-3.3v-.3c0-1.2.1-2.3.1-3.5v-.7c0-.9.1-2 .1-3v-.6c0-1.1 0-2.2.1-3.3v-3.8c0-.2.1-.3.1-.5v-4.1c.1-1 .1-2.1.1-3.1v-.5c0-1.1.1-2.3.1-3.4v-.7c0-1 0-2 .1-2.9v-4.8c.1-1 .1-1.9.1-2.9v-.7c0-1.2 0-2.3.1-3.4v-4.3c0-1.1.1-2.3.1-3.4v-4.3c.1-1.1.1-2.3.1-3.4v-4.4c.1-1 .1-2.2.1-3.3V10646.2c.1-.9.1-1.6.1-2.5v-7.6c0-.3 0-.7.1-1v-12.6c.1-.6.1-1.4.1-2V10599.9c0-.5 0-1.1.1-1.6v-19.4c-.1-.8-.1-1.5-.1-2.3V10556.2c-.1-1.3-.1-2.5-.1-3.9V10544.1c0-1.2-.1-2.3-.1-3.5v-8.1c0-.2-.1-.4-.1-.6v-8.1c-.1-1.2-.1-2.4-.1-3.6v-.5c0-1.2 0-2.5-.1-3.8v-.2c-19.2-1358.5-574.9-2587.2-1464.5-3484.2" style="fill:#117fcc;fill-opacity:1;fill-rule:nonzero;stroke:none" transform="matrix(.13333 0 0 -.13333 0 2829.333)"/><path d="m10310.5 14074.5-4944.21-368.9 1011.39-2057.3s1687.34-999.8 4852.32 555.8c3165.1 1555.5 3404.1 3502.1 3404.1 3502.1l-1011 2057.4-3312.6-3689.1" style="fill:#3c4094;fill-opacity:1;fill-rule:nonzero;stroke:none" transform="matrix(.13333 0 0 -.13333 0 2829.333)"/><path d="m10310.5 14074.5-4944.21-368.9 121.99-247.7c51.93-2.1 103.18-7.4 153.27-17 1824.35-127.4 3747.01-288.5 5297.95 473.7 990 486.4 1294.6 1783.5 2155 2534 82.6 81.6 247.1 80.4 328.5-2.3 196-231.5 457.2-512.9 257.4-856.7-615.6-1081.3-1704.1-1534-2727.4-2119.2-198.1-97.3-494.8-243.1-513-456.8-2.3-328.7 461 62.6 706.3-103.6 130.9-99.5 80.4-247.1-2.1-328.7-662.5-653.2-1519.64-992.7-2458.19-1167.1-350.01-75.4-694.37-84.3-1035.51-73.4 816.76-49.4 2018.25 96 3579.5 863.3 3165.1 1555.5 3404.1 3502.1 3404.1 3502.1l-1011 2057.4-3312.6-3689.1" style="fill:#2e317f;fill-opacity:1;fill-rule:nonzero;stroke:none" transform="matrix(.13333 0 0 -.13333 0 2829.333)"/><path d="m14801.1 19075.7-4490.6-5001.2-6702.36-500 4490.49 5000.6 6702.47 500.6" style="fill:#4347a5;fill-opacity:1;fill-rule:nonzero;stroke:none" transform="matrix(.13333 0 0 -.13333 0 2829.333)"/><path d="m14801.1 19075.7-6687.46-499.5c966.81-176.5 1945.76-280.6 2902.66-650 196.9-67 342.7-364 291.7-594.1-135.9-640.3-909.4-733.6-1388.63-1092-247.74-162.8-676.53-373.8-497.44-654.4 162.58-247.8 721.27-300.9 685.87-646-37.1-591.8-728.74-767.8-1222.23-846.7-601.41-95.9-1199.41-183.5-1797.21-258.9l3222.14 240.4 4490.6 5001.2" style="fill:#3a43a2;fill-opacity:1;fill-rule:nonzero;stroke:none" transform="matrix(.13333 0 0 -.13333 0 2829.333)"/><path d="m14899.2 12522.9-810.3 830.1-1583.8 3222.5-3305.14-117.5 9.11-265.9 3136.63 104.2 1530.5-3114.4 172.7-1110.6c7.5-50.3 54.4-84.7 104.7-76.9 9.5 1.6 18.2 4.5 26.5 8.6 35.1 17.1 56.6 55.7 50.1 96.4l-12.9 84.7 41.8-129.5c15.6-48.2 67.5-74.7 115.7-59.1 4.4 1.3 8.5 3.1 12.3 4.8 40.4 19.9 61.1 66.8 46.9 110.9l-48.4 148.7 24.7-51.8c21.6-46 76.4-65.6 122.3-44.2l1.5.9c44.9 22.1 64 76.2 42.5 121.5l-31.1 66.1 96.4-139.4c26.2-38 75.7-50 116.2-30.4 3.7 2 7.7 4.3 11.5 7.1 42 28.7 52.4 86 23.7 127.7l-120.8 174.4 95.2-97.4c28.3-29 71.5-35.3 106.2-18.3 8.6 4.3 16.6 9.9 23.8 16.8 36.6 35.5 36.9 93.6 1.5 130" style="fill:#fab819;fill-opacity:1;fill-rule:nonzero;stroke:none" transform="matrix(.13333 0 0 -.13333 0 2829.333)"/><path d="M9513.18 16476.4c83.85-170.3 13.65-376.5-156.68-460.4-170.62-83.6-376.61-13.3-460.31 157.2-83.99 170.3-13.64 376.5 156.74 460.3 170.57 83.8 376.41 13.5 460.25-157.1" style="fill:#fcd560;fill-opacity:1;fill-rule:nonzero;stroke:none" transform="matrix(.13333 0 0 -.13333 0 2829.333)"/></svg>