<?xml version="1.0" encoding="UTF-8" standalone="no"?>
<!-- Created with Inkscape (http://www.inkscape.org/) -->

<svg
   version="1.1"
   id="svg2"
   xml:space="preserve"
   width="5333.3335"
   height="5333.3335"
   viewBox="0 0 5333.3335 5333.3335"
   sodipodi:docname="vecteezy_flask-lab-tube-test-business-logo-template-flat-color_13329889.eps"
   xmlns:inkscape="http://www.inkscape.org/namespaces/inkscape"
   xmlns:sodipodi="http://sodipodi.sourceforge.net/DTD/sodipodi-0.dtd"
   xmlns="http://www.w3.org/2000/svg"
   xmlns:svg="http://www.w3.org/2000/svg"><defs
     id="defs6" /><sodipodi:namedview
     id="namedview4"
     pagecolor="#ffffff"
     bordercolor="#666666"
     borderopacity="1.0"
     inkscape:pageshadow="2"
     inkscape:pageopacity="0.0"
     inkscape:pagecheckerboard="0" /><g
     id="g8"
     inkscape:groupmode="layer"
     inkscape:label="ink_ext_XXXXXX"
     transform="matrix(1.3333333,0,0,-1.3333333,0,5333.3333)"><g
       id="g10"
       transform="scale(0.1)"><path
         d="M 40000,0 H 0 V 40000 H 40000 V 0"
         style="fill:#ffffff;fill-opacity:1;fill-rule:evenodd;stroke:none"
         id="path12" /><path
         d="M 5976.17,11251.7 H 4560.16 c -136.01,0 -247.12,-112.1 -247.12,-249.5 v 0 c 0,-137.4 111.11,-249.6 247.12,-249.6 h 1416.01 c 136.01,0 247.07,112.2 247.07,249.6 v 0 c 0,137.4 -111.06,249.5 -247.07,249.5 z m 28625.23,0 h -413.7 c -136.1,0 -247.2,-112.1 -247.2,-249.5 v 0 c 0,-137.4 111.1,-249.6 247.2,-249.6 h 413.7 c 136,0 247,112.2 247,249.6 v 0 c 0,137.4 -111,249.5 -247,249.5 z m 838.4,0 h -2.7 c -136,0 -247.1,-112.1 -247.1,-249.5 v 0 c 0,-137.4 111.1,-249.6 247.1,-249.6 h 2.7 c 136.1,0 247.1,112.2 247.1,249.6 v 0 c 0,137.4 -111,249.5 -247.1,249.5 z m -28161.48,0 H 33171.5 c 136,0 247.1,-112.1 247.1,-249.5 v 0 c 0,-137.4 -111.1,-249.6 -247.1,-249.6 H 7278.32 c -136.06,0 -247.12,112.2 -247.12,249.6 v 0 c 0,137.4 111.06,249.5 247.12,249.5 v 0"
         style="fill:#100f0d;fill-opacity:1;fill-rule:evenodd;stroke:none"
         id="path14" /><path
         d="M 11194.3,24639.3 H 10800 v 395.4 c 0,117.8 -94.4,215.9 -213.8,215.9 v 0 c -116.6,0 -211,-98.1 -211,-215.9 v -395.4 h -394.27 c -116.6,0 -211.01,-98.1 -211.01,-215.9 v 0 c 0,-117.8 94.41,-216 211.01,-216 h 394.27 V 23812 c 0,-117.8 94.4,-215.9 211,-215.9 v 0 c 119.4,0 213.8,98.1 213.8,215.9 v 395.4 h 394.3 c 116.6,0 211,98.2 211,216 v 0 c 0,117.8 -94.4,215.9 -211,215.9 v 0"
         style="fill:#100f0d;fill-opacity:1;fill-rule:evenodd;stroke:none"
         id="path16" /><path
         d="m 34069,14975.8 h -394.2 v 398.2 c 0,117.8 -97.2,213.2 -213.8,213.2 v 0 c -116.6,0 -211,-95.4 -211,-213.2 v -398.2 h -394.3 c -116.6,0 -213.8,-95.3 -213.8,-213.2 v 0 c 0,-120.5 97.2,-215.8 213.8,-215.8 h 394.3 v -398.2 c 0,-117.9 94.4,-213.2 211,-213.2 v 0 c 116.6,0 213.8,95.3 213.8,213.2 v 398.2 h 394.2 c 116.6,0 211,95.3 211,215.8 v 0 c 0,117.9 -94.4,213.2 -211,213.2 v 0"
         style="fill:#100f0d;fill-opacity:1;fill-rule:evenodd;stroke:none"
         id="path18" /><path
         d="m 30203.4,24423.3 c 216.7,0 394.3,176.7 394.3,395.4 0,216 -177.6,395.5 -394.3,395.5 -213.8,0 -391.4,-179.5 -391.4,-395.5 0,-218.7 177.6,-395.4 391.4,-395.4 v 0"
         style="fill:#100f0d;fill-opacity:1;fill-rule:evenodd;stroke:none"
         id="path20" /><path
         d="m 6306.57,13540 c 213.77,0 391.43,176.7 391.43,395.4 0,218.8 -177.66,395.5 -391.43,395.5 -216.58,0 -391.51,-176.7 -391.51,-395.5 0,-218.7 174.93,-395.4 391.51,-395.4 v 0"
         style="fill:#100f0d;fill-opacity:1;fill-rule:evenodd;stroke:none"
         id="path22" /><path
         d="m 10969.7,11252 c -1373.34,2533.2 -1071.14,5987 1358.2,8499.7 1751.6,1740.9 3249.3,2510.1 5480.8,3440.8 1888.7,784.6 2383.7,1958.9 5097.5,2097.4 3866.2,66.6 6409.8,-2551.2 6615.5,-6389.5 147.2,-2751.1 929.1,-4758.8 -644.7,-7474 -35.7,-59 -68.6,-118 -104.1,-174.4 H 10969.7"
         style="fill:#fdfcce;fill-opacity:1;fill-rule:evenodd;stroke:none"
         id="path24" /><path
         d="m 12391.5,28179.1 c 314.9,0 570.6,-255.8 570.6,-570.6 0,-315.1 -255.7,-570.7 -570.6,-570.7 -315.1,0 -570.8,255.6 -570.8,570.7 0,314.8 255.7,570.6 570.8,570.6"
         style="fill:#e5f3fb;fill-opacity:1;fill-rule:nonzero;stroke:none"
         id="path26" /><path
         d="m 12543.5,27773.3 c 165.1,0 313.5,-70.6 417.7,-182.7 0.2,5.9 0.9,11.7 0.9,17.9 0,314.8 -255.7,570.6 -570.6,570.6 -315.1,0 -570.8,-255.8 -570.8,-570.6 0,-150.1 58.5,-286.2 153.1,-387.9 9.6,306.6 260.9,552.7 569.7,552.7"
         style="fill:#bbd0d8;fill-opacity:1;fill-rule:nonzero;stroke:none"
         id="path28" /><path
         d="m 24755.4,20950.9 v -2038 l 3804.3,-7472.8 H 17907.6 l 70.5,138.6 797.7,1566.9 1742.8,3423.1 1155.3,2269.6 38.2,74.6 v 5462 h 3043.3 v -1141.3 -1141.5 -1141.2"
         style="fill:#e5f3fb;fill-opacity:1;fill-rule:nonzero;stroke:none"
         id="path30" /><path
         d="m 19137.2,12746.2 1742.7,3423 1155.5,2269.7 38,74.5 v 5461.9 h 2682 v 399.6 h -3043.3 v -5462 l -38.2,-74.6 -1155.3,-2269.6 -1742.8,-3423.1 -797.7,-1566.9 -70.5,-138.6 h 564.8 l 664.8,1306.1"
         style="fill:#bbd0d8;fill-opacity:1;fill-rule:nonzero;stroke:none"
         id="path32" /><path
         d="m 18775.8,13145.6 -797.7,-1566.9 c -389.3,-90.6 -794.8,-138.6 -1211.8,-138.6 -2941.3,0 -5326,2384.6 -5326,5326 0,2328.7 1494.3,4307.6 3576.2,5031.7 v 3337.9 h 3423.8 v -3312.1 c 1459.7,-483.3 2639.8,-1579.9 3233.6,-2985.3 l -1155.3,-2269.6 -1742.8,-3423.1"
         style="fill:#dbe0f0;fill-opacity:1;fill-rule:nonzero;stroke:none"
         id="path34" /><path
         d="m 18808,21468.6 c 682.9,-226 1304.7,-586.5 1833.9,-1050 -511.2,542.1 -1135,977.1 -1833.9,1267.4 v -217.4"
         style="fill:#b1b7d5;fill-opacity:1;fill-rule:nonzero;stroke:none"
         id="path36" /><path
         d="m 11808,16411.2 c 0,2328.6 1494.4,4307.4 3576.1,5031.5 v 3337.8 h 3056.2 v 355.2 h -3423.8 v -3337.9 c -2081.9,-724.1 -3576.2,-2703 -3576.2,-5031.7 0,-1596.5 702.6,-3028.6 1815.4,-4004.8 -897.5,953.3 -1447.7,2237.2 -1447.7,3649.9"
         style="fill:#b1b7d5;fill-opacity:1;fill-rule:nonzero;stroke:none"
         id="path38" /><path
         d="m 19201,26657.3 v -1521.6 h -4945.5 v 1521.6 H 19201"
         style="fill:#313840;fill-opacity:1;fill-rule:nonzero;stroke:none"
         id="path40" /><path
         d="M 14623.4,26277 H 19201 v 380.3 h -4945.5 v -1521.6 h 367.9 V 26277"
         style="fill:#2b3138;fill-opacity:1;fill-rule:nonzero;stroke:none"
         id="path42" /><path
         d="m 24890.1,14618.3 c 35.3,-35.4 55.6,-84.6 55.6,-134.6 0,-49.9 -20.3,-99.1 -55.6,-134.7 -35.8,-35.4 -84.8,-55.6 -134.7,-55.6 -50.2,0 -98.9,20.2 -134.6,55.6 -35.4,35.6 -55.7,84.8 -55.7,134.7 0,50 20.3,99.2 55.7,134.6 35.7,35.4 84.4,55.4 134.6,55.4 49.9,0 98.9,-20 134.7,-55.4"
         style="fill:#100f0d;fill-opacity:1;fill-rule:nonzero;stroke:none"
         id="path44" /><path
         d="m 23748.5,13096.6 c 35.7,-35.5 55.7,-84.4 55.7,-134.7 0,-49.9 -20,-98.9 -55.7,-134.7 -35.4,-35.4 -84,-55.6 -134.3,-55.6 -49.9,0 -98.9,20.2 -134.7,55.6 -35.4,35.8 -55.6,84.8 -55.6,134.7 0,50.3 20.2,99.2 55.6,134.7 35.2,35.3 84.4,55.5 134.7,55.5 50.3,0 99.2,-20.2 134.3,-55.5"
         style="fill:#100f0d;fill-opacity:1;fill-rule:nonzero;stroke:none"
         id="path46" /><path
         d="m 23368.3,15759.5 c 35.4,-35.7 55.6,-84.4 55.6,-134.6 0,-49.9 -20.2,-98.9 -55.6,-134.3 -35.3,-35.8 -84.4,-56 -134.7,-56 -50.2,0 -99.2,20.2 -134.6,56 -35.4,35.4 -55.5,84.4 -55.5,134.3 0,50.2 20.1,99.2 55.5,134.6 35.4,35.4 84.4,55.6 134.6,55.6 50.3,0 99.4,-20.2 134.7,-55.6"
         style="fill:#100f0d;fill-opacity:1;fill-rule:nonzero;stroke:none"
         id="path48" /><path
         d="m 22987.6,17281.3 c 35.7,-35.8 55.9,-85 55.9,-134.6 0,-50.3 -20.2,-99.1 -55.9,-134.7 -35.5,-35.4 -84.1,-55.7 -134.3,-55.7 -50.3,0 -99,20.3 -134.6,55.7 -35.5,35.3 -55.7,84.4 -55.7,134.7 0,50.1 20.2,99.2 55.7,134.6 35.6,35.4 84.3,55.5 134.6,55.5 50.2,0 98.8,-20.1 134.3,-55.5"
         style="fill:#100f0d;fill-opacity:1;fill-rule:nonzero;stroke:none"
         id="path50" /><path
         d="m 21466.1,14237.8 c 35.5,-35.4 55.7,-84.4 55.7,-134.7 0,-49.9 -20.2,-98.9 -55.7,-134.6 -35.7,-35.4 -84.3,-55.5 -134.6,-55.5 -49.7,0 -98.9,20.1 -134.6,55.5 -35.4,35.7 -55.7,84.4 -55.7,134.6 0,50.3 20.3,99.3 55.7,134.7 35.7,35.3 84.4,55.6 134.6,55.6 50.3,0 99.3,-20.3 134.6,-55.6"
         style="fill:#100f0d;fill-opacity:1;fill-rule:nonzero;stroke:none"
         id="path52" /><path
         d="m 19201,24945.5 h -760.7 c -105.1,0 -190.3,85.1 -190.3,190.2 0,105 85.2,190.1 190.3,190.1 h 570.6 v 1141.4 h -4565.1 v -1141.4 h 570.7 c 104.9,0 190,-85.1 190,-190.1 0,-105.1 -85.1,-190.2 -190,-190.2 h -761 c -105.1,0 -190.2,85.1 -190.2,190.2 v 1521.6 c 0,105.2 85.1,190.3 190.2,190.3 H 19201 c 105.2,0 190.3,-85.1 190.3,-190.3 v -1521.6 c 0,-105.1 -85.1,-190.2 -190.3,-190.2"
         style="fill:#100f0d;fill-opacity:1;fill-rule:nonzero;stroke:none"
         id="path54" /><path
         d="m 17907.6,11250 h -6467.3 c -104.9,0 -190.2,85.1 -190.2,190.1 0,105.2 85.3,190.3 190.2,190.3 h 6467.3 c 105.1,0 190.3,-85.1 190.3,-190.3 0,-105 -85.2,-190.1 -190.3,-190.1"
         style="fill:#100f0d;fill-opacity:1;fill-rule:nonzero;stroke:none"
         id="path56" /><path
         d="m 16766.3,11250 c -3041.5,0 -5516.2,2474.6 -5516.2,5516.1 0,2301.3 1431.5,4359.7 3576.1,5165.1 v 3204.5 c 0,105 85.1,190.1 190.3,190.1 h 3423.8 c 105,0 190.1,-85.1 190.1,-190.1 v -3176.6 c 1449,-520 2617.5,-1623.8 3218.8,-3046.7 40.7,-96.8 -4.5,-208.4 -101.2,-249.3 -96.7,-40.8 -208.3,4.4 -249.3,101.2 -576.5,1364.4 -1713.1,2413.7 -3118.3,2878.7 -77.8,25.7 -130.4,98.5 -130.4,180.6 v 3121.9 h -3043.5 v -3147.7 c 0,-81 -51.2,-153.1 -127.7,-179.7 -2062.5,-717.3 -3448.2,-2667.1 -3448.2,-4852 0,-2831.8 2303.8,-5135.7 5135.7,-5135.7 394.7,0 787.8,44.8 1168.7,133.6 102.2,23.9 204.6,-40 228.4,-142.2 23.7,-102.5 -39.9,-204.6 -142.2,-228.6 -409.1,-95.1 -831.2,-143.2 -1254.9,-143.2"
         style="fill:#100f0d;fill-opacity:1;fill-rule:nonzero;stroke:none"
         id="path58" /><path
         d="m 16728.3,12391.2 c -2307.5,0 -4184.8,1877.4 -4184.8,4184.9 0,852.8 255,1673.2 737.3,2372.7 471,683.1 1125.6,1206.6 1893.1,1513.7 97.7,39 208.4,-8.3 247.3,-106 39.1,-97.5 -8.4,-208.1 -106,-247.1 C 13862.6,19528 12924,18141.1 12924,16576.1 c 0,-2097.8 1706.5,-3804.5 3804.3,-3804.5 687.7,0 1362.1,185.9 1949.9,537.2 90.3,54 207.1,24.5 260.9,-65.6 53.8,-90.1 24.5,-207 -65.7,-261 -646.8,-386.6 -1388.5,-591 -2145.1,-591"
         style="fill:#100f0d;fill-opacity:1;fill-rule:nonzero;stroke:none"
         id="path60" /><path
         d="m 18217.9,11630.4 h 10031.5 l -3663.5,7196.3 c -13.6,26.6 -20.8,56.4 -20.8,86.2 v 5271.6 h -2663 v -5271.6 c 0,-30 -7.1,-59.6 -20.7,-86.4 l -38.1,-74.5 z M 28559.7,11250 H 17907.6 c -66.1,0 -127.5,34.4 -162,90.7 -34.7,56.3 -37.6,126.7 -7.5,185.6 l 868.2,1705.6 2915.5,5726.7 v 5416.3 c 0,104.9 85.1,190.2 190.3,190.2 h 3043.3 c 105,0 190.3,-85.3 190.3,-190.2 v -5416.4 l 3783.5,-7432 c 30.1,-59.1 27.3,-129.3 -7.3,-185.8 -34.6,-56.3 -96,-90.7 -162.2,-90.7"
         style="fill:#100f0d;fill-opacity:1;fill-rule:nonzero;stroke:none"
         id="path62" /><path
         d="m 24755.4,23043.4 h -1141.2 c -105.2,0 -190.3,85.1 -190.3,190.2 0,105 85.1,190.1 190.3,190.1 h 1141.2 c 105,0 190.3,-85.1 190.3,-190.1 0,-105.1 -85.3,-190.2 -190.3,-190.2"
         style="fill:#100f0d;fill-opacity:1;fill-rule:nonzero;stroke:none"
         id="path64" /><path
         d="m 24755.4,21902.1 h -1141.2 c -105.2,0 -190.3,85.1 -190.3,190 0,105.2 85.1,190.3 190.3,190.3 h 1141.2 c 105,0 190.3,-85.1 190.3,-190.3 0,-104.9 -85.3,-190 -190.3,-190"
         style="fill:#100f0d;fill-opacity:1;fill-rule:nonzero;stroke:none"
         id="path66" /><path
         d="m 24755.4,20760.6 h -1141.2 c -105.2,0 -190.3,85.2 -190.3,190.3 0,105 85.1,190.3 190.3,190.3 h 1141.2 c 105,0 190.3,-85.3 190.3,-190.3 0,-105.1 -85.3,-190.3 -190.3,-190.3"
         style="fill:#100f0d;fill-opacity:1;fill-rule:nonzero;stroke:none"
         id="path68" /><path
         d="M 20190.3,16195.5 H 16386 c -105.1,0 -190.2,85.1 -190.2,190.3 0,104.9 85.1,190.3 190.2,190.3 h 3804.3 c 105,0 190.2,-85.4 190.2,-190.3 0,-105.2 -85.2,-190.3 -190.2,-190.3"
         style="fill:#100f0d;fill-opacity:1;fill-rule:nonzero;stroke:none"
         id="path70" /><path
         d="m 12391.5,27988.8 c -210,0 -380.5,-170.6 -380.5,-380.3 0,-209.8 170.5,-380.4 380.5,-380.4 209.7,0 380.4,170.6 380.4,380.4 0,209.7 -170.7,380.3 -380.4,380.3 z m 0,-1141.2 c -419.7,0 -760.9,341.3 -760.9,760.9 0,419.5 341.2,760.8 760.9,760.8 419.5,0 760.7,-341.3 760.7,-760.8 0,-419.6 -341.2,-760.9 -760.7,-760.9"
         style="fill:#100f0d;fill-opacity:1;fill-rule:nonzero;stroke:none"
         id="path72" /><path
         d="m 21154,26391.6 c 315,0 570.8,-255.8 570.8,-570.6 0,-315.1 -255.8,-570.7 -570.8,-570.7 -314.9,0 -570.7,255.6 -570.7,570.7 0,314.8 255.8,570.6 570.7,570.6"
         style="fill:#e5f3fb;fill-opacity:1;fill-rule:nonzero;stroke:none"
         id="path74" /><path
         d="m 21306.1,25985.8 c 165,0 313.5,-70.6 417.7,-182.7 0,5.9 1,11.7 1,17.9 0,314.8 -255.8,570.6 -570.8,570.6 -314.9,0 -570.7,-255.8 -570.7,-570.6 0,-150.1 58.5,-286.1 153.1,-387.9 9.7,306.6 260.9,552.7 569.7,552.7"
         style="fill:#bbd0d8;fill-opacity:1;fill-rule:nonzero;stroke:none"
         id="path76" /><path
         d="m 21154,26201.3 c -209.8,0 -380.4,-170.6 -380.4,-380.3 0,-209.8 170.6,-380.6 380.4,-380.6 209.7,0 380.5,170.8 380.5,380.6 0,209.7 -170.8,380.3 -380.5,380.3 z m 0,-1141.2 c -419.5,0 -760.8,341.3 -760.8,760.9 0,419.5 341.3,760.8 760.8,760.8 419.4,0 760.8,-341.3 760.8,-760.8 0,-419.6 -341.4,-760.9 -760.8,-760.9"
         style="fill:#100f0d;fill-opacity:1;fill-rule:nonzero;stroke:none"
         id="path78" /><path
         d="m 23690.2,27963.9 c 315,0 570.8,-255.5 570.8,-570.6 0,-314.9 -255.8,-570.6 -570.8,-570.6 -314.9,0 -570.7,255.7 -570.7,570.6 0,315.1 255.8,570.6 570.7,570.6"
         style="fill:#e5f3fb;fill-opacity:1;fill-rule:nonzero;stroke:none"
         id="path80" /><path
         d="m 23842.3,27558.2 c 165.1,0 313.6,-70.7 417.8,-182.8 0,6.1 0.9,11.8 0.9,17.9 0,315.1 -255.8,570.6 -570.8,570.6 -314.9,0 -570.7,-255.5 -570.7,-570.6 0,-149.8 58.5,-285.9 153.2,-387.8 9.6,306.6 260.8,552.7 569.6,552.7"
         style="fill:#bbd0d8;fill-opacity:1;fill-rule:nonzero;stroke:none"
         id="path82" /><path
         d="m 23690.2,27773.9 c -209.8,0 -380.4,-170.8 -380.4,-380.6 0,-209.7 170.6,-380.3 380.4,-380.3 209.8,0 380.6,170.6 380.6,380.3 0,209.8 -170.8,380.6 -380.6,380.6 z m 0,-1141.5 c -419.5,0 -760.7,341.4 -760.7,760.9 0,419.6 341.2,760.9 760.7,760.9 419.5,0 760.8,-341.3 760.8,-760.9 0,-419.5 -341.3,-760.9 -760.8,-760.9"
         style="fill:#100f0d;fill-opacity:1;fill-rule:nonzero;stroke:none"
         id="path84" /><path
         d="m 26074.2,26188.6 c 315.1,0 570.7,-255.5 570.7,-570.6 0,-314.9 -255.6,-570.6 -570.7,-570.6 -314.9,0 -570.6,255.7 -570.6,570.6 0,315.1 255.7,570.6 570.6,570.6"
         style="fill:#e5f3fb;fill-opacity:1;fill-rule:nonzero;stroke:none"
         id="path86" /><path
         d="m 26226.5,25782.9 c 165,0 313.4,-70.6 417.4,-182.8 0.2,6.1 1,11.8 1,17.9 0,315.1 -255.6,570.6 -570.7,570.6 -314.9,0 -570.6,-255.5 -570.6,-570.6 0,-149.8 58.5,-286 153.1,-387.9 9.7,306.7 260.9,552.8 569.8,552.8"
         style="fill:#bbd0d8;fill-opacity:1;fill-rule:nonzero;stroke:none"
         id="path88" /><path
         d="m 26074.2,25998.5 c -209.7,0 -380.4,-170.7 -380.4,-380.5 0,-209.7 170.7,-380.4 380.4,-380.4 209.8,0 380.6,170.7 380.6,380.4 0,209.8 -170.8,380.5 -380.6,380.5 z m 0,-1141.4 c -419.5,0 -760.9,341.4 -760.9,760.9 0,419.5 341.4,760.9 760.9,760.9 419.6,0 760.9,-341.4 760.9,-760.9 0,-419.5 -341.3,-760.9 -760.9,-760.9"
         style="fill:#100f0d;fill-opacity:1;fill-rule:nonzero;stroke:none"
         id="path90" /><path
         d="m 27164.8,28319.1 c 315,0 570.6,-255.7 570.6,-570.6 0,-315.2 -255.6,-570.7 -570.6,-570.7 -314.8,0 -570.6,255.5 -570.6,570.7 0,314.9 255.8,570.6 570.6,570.6"
         style="fill:#e5f3fb;fill-opacity:1;fill-rule:nonzero;stroke:none"
         id="path92" /><path
         d="m 27317,27913.4 c 165.1,0 313.3,-70.7 417.6,-182.9 0.2,6 0.8,11.8 0.8,18 0,314.9 -255.6,570.6 -570.6,570.6 -314.8,0 -570.6,-255.7 -570.6,-570.6 0,-150.1 58.3,-286.1 153.2,-388 9.4,306.6 260.6,552.9 569.6,552.9"
         style="fill:#bbd0d8;fill-opacity:1;fill-rule:nonzero;stroke:none"
         id="path94" /><path
         d="m 27164.8,28128.8 c -209.7,0 -380.3,-170.6 -380.3,-380.3 0,-209.8 170.6,-380.6 380.3,-380.6 209.8,0 380.4,170.8 380.4,380.6 0,209.7 -170.6,380.3 -380.4,380.3 z m 0,-1141.2 c -419.4,0 -760.8,341.3 -760.8,760.9 0,419.5 341.4,760.8 760.8,760.8 419.6,0 760.9,-341.3 760.9,-760.8 0,-419.6 -341.3,-760.9 -760.9,-760.9"
         style="fill:#100f0d;fill-opacity:1;fill-rule:nonzero;stroke:none"
         id="path96" /></g></g></svg>
