<?xml version="1.0" encoding="UTF-8" standalone="no"?>
<!-- Created with Inkscape (http://www.inkscape.org/) -->

<svg
   version="1.1"
   id="svg2"
   xml:space="preserve"
   width="4001"
   height="4000"
   viewBox="0 0 4001 4000"
   sodipodi:docname="vecteezy_business-mission-life-achievement-career-peak-illustration_6876472.eps"
   xmlns:inkscape="http://www.inkscape.org/namespaces/inkscape"
   xmlns:sodipodi="http://sodipodi.sourceforge.net/DTD/sodipodi-0.dtd"
   xmlns="http://www.w3.org/2000/svg"
   xmlns:svg="http://www.w3.org/2000/svg"><defs
     id="defs6"><clipPath
       clipPathUnits="userSpaceOnUse"
       id="clipPath20"><path
         d="M 30007.5,30000 H 7.46094 V 0 H 30007.5 Z"
         clip-rule="evenodd"
         id="path18" /></clipPath></defs><sodipodi:namedview
     id="namedview4"
     pagecolor="#ffffff"
     bordercolor="#666666"
     borderopacity="1.0"
     inkscape:pageshadow="2"
     inkscape:pageopacity="0.0"
     inkscape:pagecheckerboard="0" /><g
     id="g8"
     inkscape:groupmode="layer"
     inkscape:label="ink_ext_XXXXXX"
     transform="matrix(1.3333333,0,0,-1.3333333,0,4000)"><g
       id="g10"
       transform="scale(0.1)"><path
         d="M 30007.5,30000 H 7.46094 V 0 H 30007.5 v 30000"
         style="fill:#ffffff;fill-opacity:1;fill-rule:evenodd;stroke:none"
         id="path12" /><g
         id="g14"><g
           id="g16"
           clip-path="url(#clipPath20)"><path
             d="M 30007.5,30000 H 7.46094 V 0 H 30007.5 v 30000"
             style="fill:#ffffff;fill-opacity:1;fill-rule:evenodd;stroke:none"
             id="path22" /><path
             d="m 4805.01,4938.58 c 0,0 -2462.93,2009.88 -1388.71,5512.32 1074.22,3502.4 3016.15,3442.7 2071.59,6403.8 -1499.41,4700.4 2866.94,7059 6123.01,7395.3 3009.7,310.9 6139.5,1987.8 8392.8,-649.1 2253.2,-2637 1549.8,-3809.9 4602.5,-5564.6 3052.8,-1754.7 -99.1,-5019.4 875.2,-6778.5 974.2,-1759.14 2457.6,-4340.6 208.3,-6266.72 l -20884.69,-52.5"
             style="fill:#eef7f6;fill-opacity:1;fill-rule:evenodd;stroke:none"
             id="path24" /><path
             d="m 24843.3,11396.7 v -282.3 c -45.6,1.5 -90,8 -132.6,18.9 -10.7,12.6 -20.9,26.4 -30.8,41.4 -33.3,50.4 -61.9,113.3 -84.1,185.4 76.4,21.9 159.9,34.8 247.5,36.6 z m 42.1,0 c 87.6,-1.8 171.1,-14.7 247.6,-36.6 -22.3,-72.1 -50.8,-135 -84.2,-185.4 -9.8,-15 -20.1,-28.8 -30.7,-41.4 -42.6,-10.9 -87,-17.4 -132.7,-18.9 z m -329.7,-49.2 c 23.1,-74.5 52.5,-139.7 86.7,-192.4 -80.2,30.8 -152.4,77.9 -212.5,137.2 38.6,21.4 80.8,39.9 125.8,55.2 z m 617.4,0 c 45,-15.3 87.1,-33.8 125.8,-55.2 -60.1,-59.3 -132.3,-106.4 -212.5,-137.2 34.2,52.7 63.6,117.9 86.7,192.4 z m -671.8,364.6 c 1.6,-117.2 17,-227.4 42.8,-324.2 -51.8,-17.5 -100.1,-39.1 -144,-64.1 l -0.1,0.1 c -7.6,8.6 -15,17.4 -22.1,26.4 -14.2,18 -27.4,36.8 -39.5,56.4 -26.2,42 -47.3,87.2 -62.7,134.3 -10.9,33.5 -19,67.9 -24,102.7 -3.3,22.4 -5.3,45 -6.1,67.5 v 0.9 z m 981.9,0 c -5,-148.7 -62.5,-284.1 -154.5,-388.3 -43.9,25 -92.2,46.6 -144,64.1 25.8,96.8 41.1,207 42.8,324.2 z m -297.8,0 c -1.7,-112.7 -16.2,-218.6 -40.8,-311.6 -80.1,23 -167.5,36.5 -259.2,38.3 v 273.3 z m -642,0 h 299.9 v -273.3 c -91.6,-1.8 -179,-15.3 -259.1,-38.3 -24.6,93 -39.2,198.9 -40.8,311.6 z m -143.3,430.5 c 43.9,-25.1 92.2,-46.7 144,-64.2 -25.8,-96.8 -41.2,-207 -42.8,-324.2 h -255.7 c 5,148.7 62.5,284.1 154.5,388.4 z m 744.5,-76.7 c 24.6,-93 39.1,-199 40.8,-311.7 h -300 v 273.4 c 91.7,1.8 179.1,15.2 259.2,38.3 z m 184.2,76.5 c 7.6,-8.5 14.9,-17.3 22,-26.3 14.3,-18.1 27.5,-36.9 39.6,-56.4 26.2,-42.1 47.3,-87.3 62.7,-134.3 10.9,-33.5 19,-68 24,-102.8 3.2,-22.4 5.2,-44.9 6,-67.5 l 0.1,-0.9 h -255.7 c -1.7,117.2 -17,227.5 -42.8,324.2 51.8,17.5 100.1,39.1 144,64.2 z m -744.6,-76.5 c 80.1,-23.1 167.5,-36.5 259.1,-38.3 v -273.4 h -299.9 c 1.6,112.7 16.2,218.7 40.8,311.7 z m 259.1,286.1 v -282.3 c -87.5,1.8 -171.1,14.6 -247.5,36.6 22.2,72 50.8,134.9 84.1,185.4 9.9,14.9 20.1,28.7 30.8,41.3 42.6,10.9 87,17.4 132.6,19 z m 42.1,0 c 45.7,-1.6 90.1,-8.1 132.7,-19 10.6,-12.6 20.9,-26.4 30.7,-41.3 33.4,-50.5 61.9,-113.4 84.2,-185.4 -76.4,-22 -160,-34.8 -247.6,-36.6 z m -243,-40.7 c -34.2,-52.7 -63.6,-118 -86.7,-192.5 -45,15.3 -87.2,33.9 -125.8,55.3 60.1,59.2 132.3,106.3 212.5,137.2 z m 444,0 c 80.2,-30.9 152.4,-78 212.5,-137.2 -38.7,-21.4 -80.8,-40 -125.8,-55.3 -23.1,74.5 -52.5,139.8 -86.7,192.5"
             style="fill:#cae7e4;fill-opacity:1;fill-rule:evenodd;stroke:none"
             id="path26" /><path
             d="m 22149.5,17993.2 -265.6,265.7 1072.1,202.4 -202.4,-1072.1 -285.9,285.8 -2379,-2379.1 -1011.8,1011.8 -2253.2,-2253.2 -317.8,317.7 2571.7,2572.6 1011.1,-1012.5 2060.8,2060.9"
             style="fill:#cae7e4;fill-opacity:1;fill-rule:evenodd;stroke:none"
             id="path28" /><path
             d="m 8908.44,19940.7 h 483.19 v -1386.4 h -483.19 v 1386.4"
             style="fill:#9fc9d0;fill-opacity:1;fill-rule:evenodd;stroke:none"
             id="path30" /><path
             d="m 8218.87,19720.8 h 483.19 v -1166.5 h -483.19 v 1166.5"
             style="fill:#9fc9d0;fill-opacity:1;fill-rule:evenodd;stroke:none"
             id="path32" /><path
             d="m 7515.39,19459.1 h 483.19 v -904.8 h -483.19 v 904.8"
             style="fill:#9fc9d0;fill-opacity:1;fill-rule:evenodd;stroke:none"
             id="path34" /><path
             d="m 6825.82,19225.5 h 483.19 v -671.2 h -483.19 v 671.2"
             style="fill:#9fc9d0;fill-opacity:1;fill-rule:evenodd;stroke:none"
             id="path36" /><path
             d="m 9061.4,20725.1 -130.86,130.9 528.07,99.7 -99.7,-528.1 -140.78,140.8 -516.07,-516.1 -273,273.1 -602.45,-602.5 -339.82,339.8 -588.74,-588.7 -156.74,156.7 745.48,745.5 339.82,-339.8 602.77,602.7 272.68,-273.3 359.34,359.3"
             style="fill:#cae7e4;fill-opacity:1;fill-rule:evenodd;stroke:none"
             id="path38" /><path
             d="m 15062.5,22961.8 h -168.2 v -6466.2 h 168.2 v 6466.2"
             style="fill:#243a9d;fill-opacity:1;fill-rule:evenodd;stroke:none"
             id="path40" /><path
             d="M 20008.6,16784.4 24864.4,5139.87 h -9711.5 l 4855.7,11644.53"
             style="fill:#243a9d;fill-opacity:1;fill-rule:evenodd;stroke:none"
             id="path42" /><path
             d="m 21455.5,13314.6 -1446.9,3469.8 -1737.3,-4166.2 923.1,706.4 709.1,-1221.1 553.4,1471.7 903.9,-848.4 94.7,587.8"
             style="fill:#9fc9d0;fill-opacity:1;fill-rule:evenodd;stroke:none"
             id="path44" /><path
             d="M 9948.19,16784.4 5092.43,5139.87 H 14804 L 9948.19,16784.4"
             style="fill:#243a9d;fill-opacity:1;fill-rule:evenodd;stroke:none"
             id="path46" /><path
             d="m 8501.27,13314.6 1446.92,3469.8 1737.31,-4166.2 -923.1,706.4 -709,-1221.1 -553.54,1471.7 -830.88,-795.2 -167.71,534.6"
             style="fill:#9fc9d0;fill-opacity:1;fill-rule:evenodd;stroke:none"
             id="path48" /><path
             d="M 14978.4,19538.7 8682.21,5139.87 H 21274.6 L 14978.4,19538.7"
             style="fill:#1486cf;fill-opacity:1;fill-rule:evenodd;stroke:none"
             id="path50" /><path
             d="M 14978.4,19538.7 8682.21,5139.87 H 14978.4 V 19538.7"
             style="fill:#08a4dd;fill-opacity:1;fill-rule:evenodd;stroke:none"
             id="path52" /><path
             d="m 13102.3,15248.1 1876.1,4290.6 2252.7,-5151.6 -1197,873.4 -1059.5,-1399.5 -794.1,1709.4 -858.7,-1100.7 -219.5,778.4"
             style="fill:#cae7e4;fill-opacity:1;fill-rule:evenodd;stroke:none"
             id="path54" /><path
             d="m 14974.6,13861 3.8,5677.7 2252.7,-5151.6 -1197,873.4 -1059.5,-1399.5"
             style="fill:#9fc9d0;fill-opacity:1;fill-rule:evenodd;stroke:none"
             id="path56" /><path
             d="M 18298.6,22357.1 H 16085.2 V 20612 h 2213.4 l -490.9,872.6 490.9,872.5"
             style="fill:#ed7d65;fill-opacity:1;fill-rule:evenodd;stroke:none"
             id="path58" /><path
             d="m 16085.2,20612 v 611.9 h 1106.7 L 16085.2,20612"
             style="fill:#eb684d;fill-opacity:1;fill-rule:evenodd;stroke:none"
             id="path60" /><path
             d="m 17191.9,22969.1 h -2129.4 v -1745.2 h 2129.4 v 1745.2"
             style="fill:#f69b6e;fill-opacity:1;fill-rule:evenodd;stroke:none"
             id="path62" /><path
             d="m 6342.21,5078.2 c 0,-42.99 -53.44,0 -98.36,0 -349.05,394.93 -1132.32,1321.84 -1774.95,2377.11 -388.81,638.48 -726.09,1323.93 -885.1,1967.08 -2.83,11.32 4.06,22.81 15.37,25.64 11.32,2.84 22.81,-4.05 25.65,-15.37 161.79,-637.88 501.19,-1316.58 891.22,-1948.45 675.27,-1093.97 1502.55,-2047.5 1826.17,-2406.01"
             style="fill:#243a9d;fill-opacity:1;fill-rule:evenodd;stroke:none"
             id="path64" /><path
             d="m 6268.2,5078.2 c 0,0 351.04,439.45 161.52,928.54 C 6240.2,6495.82 6007.43,5575.9 6268.2,5078.2"
             style="fill:#08a4dd;fill-opacity:1;fill-rule:evenodd;stroke:none"
             id="path66" /><path
             d="m 5762.47,5700.65 c 0,0 418.91,782.22 177.46,1033.68 -241.46,251.46 -345.11,-521.28 -177.46,-1033.68"
             style="fill:#08a4dd;fill-opacity:1;fill-rule:evenodd;stroke:none"
             id="path68" /><path
             d="m 5311.71,6275.14 c 0,0 399.16,608.27 241.19,865.4 -157.97,257.13 -420.59,-217.79 -241.19,-865.4"
             style="fill:#08a4dd;fill-opacity:1;fill-rule:evenodd;stroke:none"
             id="path70" /><path
             d="m 4969.49,6745.29 c 0,0 417.93,572.32 179.82,867.13 -238.11,294.82 -370.32,-341.68 -179.82,-867.13"
             style="fill:#08a4dd;fill-opacity:1;fill-rule:evenodd;stroke:none"
             id="path72" /><path
             d="m 4570.15,7344.73 c 0,0 371.77,459.46 202.22,757.06 -169.55,297.59 -270.09,-350.51 -202.22,-757.06"
             style="fill:#08a4dd;fill-opacity:1;fill-rule:evenodd;stroke:none"
             id="path74" /><path
             d="m 4267.56,7852.92 c 0,0 485.14,598.52 246.43,874.52 -238.72,276 -262.67,-627.97 -246.43,-874.52"
             style="fill:#08a4dd;fill-opacity:1;fill-rule:evenodd;stroke:none"
             id="path76" /><path
             d="m 3900.71,8623.87 c 0,0 472.43,580.64 288.63,842.2 -183.79,261.57 -290.57,-635.58 -288.63,-842.2"
             style="fill:#08a4dd;fill-opacity:1;fill-rule:evenodd;stroke:none"
             id="path78" /><path
             d="m 3642.35,9286.23 c 0,0 277.09,657.96 -15.21,872.67 -292.29,214.8 -255.5,-614.82 15.21,-872.67"
             style="fill:#08a4dd;fill-opacity:1;fill-rule:evenodd;stroke:none"
             id="path80" /><path
             d="m 3900.71,8623.87 c 0,0 -616.99,535.25 -787.14,335.15 -170.16,-200.1 550.49,-496.71 787.14,-335.15"
             style="fill:#08a4dd;fill-opacity:1;fill-rule:evenodd;stroke:none"
             id="path82" /><path
             d="m 4267.56,7852.92 c 0,0 -870.56,540.05 -917.64,191.63 -47.09,-348.42 686.26,-451.68 917.64,-191.63"
             style="fill:#08a4dd;fill-opacity:1;fill-rule:evenodd;stroke:none"
             id="path84" /><path
             d="m 4570.15,7344.73 c 0,0 -854.3,248.88 -853.48,-76.52 0.81,-325.4 585,-158.81 853.48,76.52"
             style="fill:#08a4dd;fill-opacity:1;fill-rule:evenodd;stroke:none"
             id="path86" /><path
             d="m 4969.44,6745.43 c 0,0 -635.21,64.67 -770.7,-158.88 -135.49,-223.54 404.25,-233.85 770.7,158.88"
             style="fill:#08a4dd;fill-opacity:1;fill-rule:evenodd;stroke:none"
             id="path88" /><path
             d="m 5311.71,6275.14 c 0,0 -773.69,-32.52 -878.59,-328.27 -104.9,-295.75 737.62,6.89 878.59,328.27"
             style="fill:#08a4dd;fill-opacity:1;fill-rule:evenodd;stroke:none"
             id="path90" /><path
             d="m 5762.47,5700.65 c 0,0 -715.62,-41.23 -873.42,-318.34 -157.8,-277.11 627.85,-247.59 873.42,318.34"
             style="fill:#08a4dd;fill-opacity:1;fill-rule:evenodd;stroke:none"
             id="path92" /><path
             d="m 5619.93,9391.35 c -267.52,394.67 -213.24,521.79 -213.24,521.79 0,0 -280.33,-302.97 -546.13,-1178.4 l 324.15,-150.08 -364.54,12.49 c -73.46,-280.56 -123.59,-592.25 -124,-921.07 -0.44,-355.76 49.89,-726.68 154.99,-1075.86 l 561.87,27.36 -463.39,-307.83 c 203.23,-502.09 532.33,-931.73 1000.68,-1163.16 485.7,-4.88 1464.91,-69.32 1516.61,-6.55 188.91,229.36 599.24,849.73 326.35,1655.77 l -470.77,-63.42 431.14,169.78 c -129.27,317.85 -366.67,662.14 -764.58,1020.96 -142.68,128.67 -272.62,249.52 -390.82,362.83 l -310.95,-86.4 213.21,180.99 c -418.4,408.79 -678.73,715.61 -840.18,942.64 l -103.75,-54.42 63.35,112.58"
             style="fill:#f69b6e;fill-opacity:1;fill-rule:evenodd;stroke:none"
             id="path94" /><path
             d="m 7409.85,5174.19 c 6.91,-29.56 -88.59,-86.07 -104.36,-15.48 -35.14,157.32 -121.77,475.2 -314.76,887.87 -128.33,274.39 -303.15,590.48 -541.27,928.97 -300.44,430.88 -756.78,1068.99 -994.33,1698.55 -167.02,442.63 -226.18,880.79 -48.44,1239.04 -166.03,-360.26 -95.55,-793.46 80.97,-1228.84 251.63,-620.6 718.43,-1245.41 1026.58,-1667.34 246.53,-340.51 428.88,-659.04 562.74,-936.13 202.29,-418.76 294.68,-743.33 332.87,-906.64"
             style="fill:#ffffff;fill-opacity:1;fill-rule:evenodd;stroke:none"
             id="path96" /><path
             d="m 9193.95,5151.92 c -248.9,-40.67 -750.13,17.24 -1268.78,-2.62 -556.45,183.88 -1186.68,484.6 -1305.72,924.52 -187.69,693.62 1152.91,-298.17 1071.12,179.93 -81.79,478.1 -1328.82,1119.57 -1185.28,1516.42 143.53,396.86 1010.18,-444.85 1171.9,-242.63 161.71,202.23 -798.47,1177.84 -527.1,1659.43 271.37,481.59 474.43,-345.05 795.25,-974.5 320.82,-629.45 673.64,241.8 1067.64,142.97 537.12,-134.74 -484.44,-1250.19 -206.65,-1689.43 256.1,-404.94 916.48,1248.16 1062.93,157.09 116.35,-866.76 -330.11,-1397.54 -675.31,-1671.18"
             style="fill:#9fc9d0;fill-opacity:1;fill-rule:evenodd;stroke:none"
             id="path98" /><path
             d="m 8594.98,5474.05 c -89.45,9.49 -450.89,51.56 -801.09,144.75 -194.39,51.73 -385.31,119.13 -524.05,205.62 -4.11,2.61 -9.26,1.68 -11.51,-2.08 -2.24,-3.76 -0.73,-8.94 3.37,-11.55 139.01,-90.01 331.26,-161.89 527.39,-217.84 373.97,-106.68 761.91,-155.44 819.52,-162.32 34.93,-111.38 65.43,-209.16 90.26,-289 -6.27,-8.69 57.52,-48.05 42.6,-1.23 -38.55,120.98 -91.09,285.14 -152.87,476.4 36.8,28.59 344.87,270.99 603.21,573.77 125.59,147.19 239.41,308.61 304.75,466.67 1.72,4.05 -0.41,9.07 -4.76,11.19 -4.36,2.13 -9.29,0.56 -11.01,-3.49 -67.65,-155.02 -183.51,-312.47 -310.71,-455.71 -241.31,-271.75 -523.5,-492.2 -596.06,-547.33 -122.47,378.68 -278.34,854.66 -433.1,1310.88 -7.08,20.89 -14.17,41.74 -21.26,62.57 2.95,1.32 5.55,3.37 7.52,6.13 l 648.77,934.33 c 2.54,3.57 1.41,8.79 -2.53,11.67 -3.93,2.87 -9.18,2.31 -11.72,-1.25 l -658.85,-901.57 c -173.29,507.72 -341.64,978.46 -456.24,1246.74 -1.85,4.37 -6.84,6.82 -11.14,5.47 -4.3,-1.35 -6.29,-6 -4.44,-10.37 120.75,-288.22 301.58,-809.58 483.82,-1359.58 19.54,-58.95 39.09,-118.24 58.54,-177.47 -98.32,45.64 -483.63,226.81 -773.93,395.55 -141.38,82.17 -260.18,161.13 -311.36,219.99 -3.15,3.69 -8.52,4.5 -11.98,1.79 -3.46,-2.7 -3.72,-7.89 -0.57,-11.59 50.94,-60.92 170.2,-144.09 312.71,-230.63 333.14,-202.3 793.5,-423.9 793.5,-423.9 2.75,-1.29 5.59,-2.01 8.36,-2.2 150.76,-460.14 296.91,-920.63 404.86,-1264.41"
             style="fill:#ffffff;fill-opacity:1;fill-rule:evenodd;stroke:none"
             id="path100" /><path
             d="M 9878.26,5535.95 C 9446.7,6083.62 7921.97,9952.01 8840.94,10231 c 549.87,166.9 295.67,-2325.09 1222.06,-4550.95 424.5,-1019.94 -136.4,-205.43 -184.74,-144.1"
             style="fill:#cae7e4;fill-opacity:1;fill-rule:evenodd;stroke:none"
             id="path102" /><path
             d="m 10225.9,5163.3 c 0,0 -540.83,841.83 -949.4,2456.25 -182,719.16 -337.72,1591.4 -407.85,2610.65 -0.3,4.6 -4.32,8.2 -8.95,7.8 -4.64,-0.3 -8.15,-4.3 -7.85,-8.9 65.19,-1021.23 216.89,-1895.62 395.62,-2616.82 402.45,-1623.95 942.13,-2472.15 942.13,-2472.15 6.4,-10.01 19.8,-12.94 29.8,-6.54 10,6.4 12.9,19.71 6.5,29.71"
             style="fill:#9fc9d0;fill-opacity:1;fill-rule:evenodd;stroke:none"
             id="path104" /><path
             d="m 24958.2,5455.33 c 528,512.79 2663,4347.48 1740.4,4767.57 -552,251.4 -633.7,-2391.42 -1913.5,-4591.03 -586.5,-1007.92 114,-233.97 173.1,-176.54"
             style="fill:#f69b6e;fill-opacity:1;fill-rule:evenodd;stroke:none"
             id="path106" /><path
             d="m 24542.5,5113.93 c 0,0 683.3,805.33 1336.1,2437.47 290.7,727.04 575.3,1617.92 790.9,2674.5 1,4.9 5.7,8 10.5,7 4.8,-1 7.9,-5.6 7,-10.5 -210.7,-1059.34 -491.4,-1953.03 -779.1,-2682.66 -647.6,-1642.96 -1330.7,-2455.11 -1330.7,-2455.11 -8.1,-9.58 -22.4,-10.79 -32,-2.7 -9.6,8.09 -10.8,22.43 -2.7,32"
             style="fill:#ffffff;fill-opacity:1;fill-rule:evenodd;stroke:none"
             id="path108" /><path
             d="m 25073.7,9502.63 c 325.4,389.04 281.6,529.37 281.6,529.37 0,0 264.2,-350.68 451.7,-1305.72 l -359.2,-124.1 387.2,-25.86 c 47.7,-304.82 67.3,-640.09 32.5,-988.15 -37.7,-376.57 -130.7,-763.76 -279.4,-1122.06 l -591.7,89.2 457.4,-375.49 c -230.3,-436.48 -552.7,-806.82 -967.5,-1026.47 -498.9,0 -936.8,-52.84 -1740.6,-52.84 0,0 -727.4,849.33 -249.5,1898.61 l 491.5,-117.58 -438.1,225.91 c 170.9,322.55 459.1,661.49 918.7,998.6 164.8,120.89 315.3,234.86 452.5,342.12 l 319.8,-124.79 -206.2,214.42 c 486.6,387.8 795.1,684.63 990.3,907.61 l 104,-68.72 -55,125.94"
             style="fill:#08a4dd;fill-opacity:1;fill-rule:evenodd;stroke:none"
             id="path110" /><path
             d="m 22801.8,5090.61 c 0,0 102.5,416.16 462.5,1018.91 165.2,276.65 384.1,592.46 672.4,925.19 364.2,423.83 915.6,1050.27 1234.5,1691.12 224.2,450.57 333.8,907.97 184.1,1306.17 137.1,-399.07 16.1,-850 -217.4,-1291.88 -332.9,-629.87 -893.9,-1241.11 -1265.3,-1654.64 -297.4,-333.96 -524.6,-651.54 -696,-930.46 -305.8,-497.82 -435.4,-873.03 -473.9,-998.86 16,-30.73 43,-55.65 43,-55.65 0,0 28.5,-10.88 53.2,-18.65 1.2,2.81 2.2,5.73 2.9,8.75"
             style="fill:#ffffff;fill-opacity:1;fill-rule:evenodd;stroke:none"
             id="path112" /><path
             d="m 20063.5,5264.13 c 0,0 924.4,1362.05 792.5,2747.88 -55.6,584.69 -299.9,1173.44 -881.7,1665.63 -8.8,7.37 -9.9,20.47 -2.5,29.24 7.3,8.76 20.4,9.9 29.2,2.53 596.2,-497.76 848.4,-1096.54 909.1,-1692.08 143,-1405.61 -785.7,-2794.22 -785.7,-2794.22 -11.3,-16.81 -34.1,-21.26 -50.9,-9.94 -16.8,11.32 -21.3,34.16 -10,50.96"
             style="fill:#9fc9d0;fill-opacity:1;fill-rule:evenodd;stroke:none"
             id="path114" /><path
             d="m 20082.2,5297.54 c 0,0 -55,99.05 -148.1,235.88 -31.6,46.43 -67.8,96.29 -106.2,149.63 -28.6,39.53 -58.8,80.28 -89.4,122.25 -29.2,40.13 -58,81.5 -89.3,122 -66.8,86.29 -138.2,169.5 -224.8,237.27 -6.7,4.19 -8.8,13.09 -4.6,19.86 4.1,6.77 13,8.87 19.8,4.68 104.5,-49.59 200,-115.05 285.2,-191.87 34.7,-31.3 66.9,-64.36 96.8,-98.84 20.3,-23.48 39.4,-47.59 56.7,-72.4 46.2,-66.61 83.7,-134.53 114,-198.11 85.8,-179.75 116.9,-320.09 116.9,-320.09 2.8,-7.44 -0.9,-15.78 -8.4,-18.62 -7.4,-2.83 -15.8,0.92 -18.6,8.36"
             style="fill:#9fc9d0;fill-opacity:1;fill-rule:evenodd;stroke:none"
             id="path116" /><path
             d="m 20223.6,5457.39 c 0,0 -5,117.1 -92.3,300.96 -26,54.69 -59.5,114.19 -100.9,180.53 -25.4,40.7 -54.5,83.01 -85.2,128.92 -27.3,40.63 -55.3,84.03 -86.8,129.17 -42.2,60.3 -87.9,123.56 -141.5,190.26 -47.6,59.25 -97.6,120.34 -156.5,183.64 73.9,-46.67 140,-91.73 200.6,-139.1 45.4,-35.54 86.2,-71.11 124.2,-107.13 42.3,-40.14 80.2,-79.82 113.5,-120.03 24.5,-29.61 46.4,-59.38 65.6,-89.1 32.4,-50.15 57.9,-99.56 79,-146.63 16.1,-36.03 29.1,-70.56 39.8,-103.91 31,-96.9 44,-178.63 48.4,-244.13 7.2,-105.54 -7.9,-163.45 -7.9,-163.45"
             style="fill:#9fc9d0;fill-opacity:1;fill-rule:evenodd;stroke:none"
             id="path118" /><path
             d="m 20395.7,5784.65 c 0,0 -33.5,159.66 -145.9,366.06 -15.8,28.97 -32.9,58.59 -51.1,89.6 -24.7,41.93 -52.6,84.68 -82.4,129.33 -18.4,27.53 -37.1,55.85 -56.9,84.63 -28.1,40.93 -57.2,82.9 -90.5,124.72 -31.5,39.58 -64.7,78.89 -101.9,118.36 -52.4,55.61 -108.6,110.1 -174.9,162.73 79.2,-34.5 150,-71.94 215.2,-114.72 47.8,-31.39 90.8,-64.81 131.1,-99.91 43.4,-37.88 82.4,-77.05 117,-117.95 24.5,-29.04 46.5,-58.92 65.9,-89.26 31.4,-49.01 56.5,-98.73 77.4,-147.1 15.4,-35.34 28.2,-69.77 38.6,-103.53 71.6,-232.04 58.4,-402.96 58.4,-402.96"
             style="fill:#9fc9d0;fill-opacity:1;fill-rule:evenodd;stroke:none"
             id="path120" /><path
             d="m 20541.8,6109.97 c 0,0 -45,157.92 -164.7,353.45 -17.1,27.9 -35.4,56.29 -54.9,85.89 -26.5,40.32 -56.2,81.07 -87.7,123.3 -19.5,26.22 -39.5,53.09 -60.5,80.2 -30.1,38.84 -61.1,78.39 -96.4,117.09 -33.7,36.94 -69,73.19 -108.6,108.82 -56.1,50.63 -116.2,99.06 -186.8,143.63 81.7,-25.29 154.9,-55.55 223,-92.44 49.8,-26.97 94.9,-56.86 137.3,-88.98 45.3,-34.36 86.4,-70.79 123.1,-109.52 25.9,-27.26 49.4,-55.65 70.2,-84.79 33.4,-46.58 60.7,-94.54 83.8,-141.61 16.8,-34.06 31.1,-67.45 43.1,-100.42 80.6,-222.45 79.1,-394.62 79.1,-394.62"
             style="fill:#9fc9d0;fill-opacity:1;fill-rule:evenodd;stroke:none"
             id="path122" /><path
             d="m 20698.1,6538.18 c 0,0 -71.3,141.63 -221.3,313.91 -21.2,24.29 -43.6,48.99 -67.2,74.84 -32.1,35.1 -67.3,70.42 -104.1,107.29 -22.9,22.85 -46.1,46.43 -70.3,70.25 -34.6,34.11 -69.9,69.04 -109,103.01 -37.3,32.43 -75.9,64.23 -118.2,95.35 -60.2,44.43 -123.4,86.77 -195.6,125.04 81.5,-18.2 155.9,-41.12 226.5,-70.48 51.1,-21.27 98.3,-45.41 143.4,-71.77 48,-28.12 92.4,-58.28 133.2,-91 28.7,-23.03 55.3,-47.31 79.5,-72.56 39,-40.52 72.4,-82.91 102,-124.79 21.5,-30.47 40.6,-60.54 57.4,-90.46 115.2,-205.21 143.7,-368.63 143.7,-368.63"
             style="fill:#9fc9d0;fill-opacity:1;fill-rule:evenodd;stroke:none"
             id="path124" /><path
             d="m 20787.4,6833.81 c 0,0 -68.6,139.47 -217.8,303.89 -21,23.18 -43.3,46.61 -66.9,71.12 -32,33.21 -67.2,66.35 -104.3,100.89 -22.9,21.34 -46.3,43.34 -70.7,65.52 -34.8,31.65 -70.6,64.05 -110.3,95.26 -37.7,29.67 -76.7,58.64 -119.6,86.76 -60.7,39.82 -124.5,77.51 -197.5,110.86 81.1,-12.62 155,-30.32 225.1,-54.62 51.5,-17.79 98.8,-38.78 144,-62.09 48.7,-25.07 93.5,-52.51 134.7,-82.72 29.1,-21.37 56.1,-44.15 80.7,-68.02 39.7,-38.41 73.6,-79.01 103.5,-119.35 21.8,-29.38 41.1,-58.46 58,-87.52 115.4,-198.49 141.1,-359.98 141.1,-359.98"
             style="fill:#9fc9d0;fill-opacity:1;fill-rule:evenodd;stroke:none"
             id="path126" /><path
             d="m 20880.3,7397.18 c 0,0 -86.7,108.62 -249,222.68 -22.8,16.03 -46.7,31.92 -72,48.64 -34.1,22.59 -71.1,44.38 -109.9,67.22 -23.9,14.1 -48.3,28.79 -73.7,43.44 -36.2,20.95 -73.1,42.56 -113.5,62.3 -38.5,18.79 -77.8,36.76 -120.5,53.26 -60.7,23.4 -123.2,44.42 -193.7,59.81 73.8,6.75 141.6,7.35 208,1.21 48.8,-4.52 94.5,-12.93 138.9,-23.87 48,-11.79 92.9,-26.65 135.1,-44.87 29.9,-12.9 58.1,-27.63 84.3,-43.89 42.3,-26.18 79.8,-55.62 113.5,-85.73 24.6,-21.93 46.7,-44.14 66.9,-66.75 54.8,-61.49 95,-119.85 124.3,-169.45 44.1,-74.43 61.3,-124 61.3,-124"
             style="fill:#9fc9d0;fill-opacity:1;fill-rule:evenodd;stroke:none"
             id="path128" /><path
             d="m 20893.7,7866.25 c 0,0 -76.7,59.53 -213.4,127.94 -43.7,21.86 -92.8,43.46 -147.5,66.54 -35,14.76 -72.3,28.83 -111,44.81 -35.6,14.71 -71.8,31.23 -110.5,46.75 -54.3,21.84 -110.2,43.59 -172.1,62.33 -58.2,17.61 -116.8,34.24 -182.4,46.05 67.3,10.34 129.5,15.9 191.7,15.93 45.1,0.01 87.6,-3.24 129.6,-8.57 45,-5.72 87.6,-13.93 128.3,-25.27 28.8,-8.03 56.3,-17.73 82.3,-28.98 42,-18.22 80.2,-39.69 115.1,-61.92 25.7,-16.34 49.2,-33.02 71,-50.45 151.9,-122.05 218.9,-235.16 218.9,-235.16"
             style="fill:#9fc9d0;fill-opacity:1;fill-rule:evenodd;stroke:none"
             id="path130" /><path
             d="m 20852.2,8235.12 c 0,0 -56.4,27.72 -159.2,61.15 -37.4,12.17 -79.7,23.07 -128,36.89 -38.9,11.12 -81.1,21.68 -125.9,34.99 -19.5,5.8 -39,13.22 -59.3,20.35 -29.1,10.24 -58.4,21.01 -89.7,31.91 -73.1,25.5 -147.7,51.45 -235.1,69.51 55,10.36 104.9,17.65 156.3,21 36.9,2.41 71.4,2.3 106,0.74 37.1,-1.66 72,-5.09 105.9,-11.2 24,-4.31 47,-10.07 68.8,-17.23 35.6,-11.7 68.1,-26.28 98.1,-41.48 22.3,-11.32 42.6,-22.9 61.6,-35.31 137.6,-89.71 200.5,-171.32 200.5,-171.32"
             style="fill:#9fc9d0;fill-opacity:1;fill-rule:evenodd;stroke:none"
             id="path132" /><path
             d="m 20775.4,8543.89 c 0,0 -88.7,24.6 -245.8,47.64 -20.6,3.03 -41.9,6.09 -64.6,10.04 -30.2,5.22 -62.1,10.05 -95.7,17.01 -20.5,4.24 -41.4,9.53 -62.8,15.38 -30.6,8.34 -61.2,18.36 -94.1,27.94 -31.2,9.12 -62.1,18.46 -95.4,28.03 -47.8,13.7 -94.3,27.69 -146.7,39.99 53.7,9.86 102.3,17.73 152.5,22.41 35.8,3.33 69.3,4.66 103,4.8 36,0.16 70,-0.97 103.2,-4.58 23.4,-2.54 46,-6.35 67.6,-11.51 35.4,-8.46 67.9,-19.66 98.2,-31.3 22.8,-8.72 43.5,-17.79 63.2,-27.61 146.3,-72.87 217.4,-138.24 217.4,-138.24"
             style="fill:#9fc9d0;fill-opacity:1;fill-rule:evenodd;stroke:none"
             id="path134" /><path
             d="m 20646.1,8866.18 c 0,0 -74.9,14.48 -191.1,30.98 -16.1,2.28 -32.1,4.58 -49.4,7.85 -23.2,4.41 -47.3,8.45 -72,14.62 -15.5,3.86 -31,8.79 -46.6,14.14 -23.2,7.96 -45.4,17.17 -69.1,26.31 -60.5,23.38 -116.8,47.05 -182,60.97 39.9,12.49 76.3,21.51 117.2,27.6 27.6,4.09 53.3,5.68 80.6,6.29 27.7,0.62 54,-0.26 80.5,-3.57 17.9,-2.23 35.4,-5.74 52.2,-10.63 26.4,-7.74 51,-18.1 74.1,-29.04 16.8,-8 32.1,-16.17 46.8,-25.25 102.8,-63.44 158.8,-120.27 158.8,-120.27"
             style="fill:#9fc9d0;fill-opacity:1;fill-rule:evenodd;stroke:none"
             id="path136" /><path
             d="m 20452.9,9191.99 c 0,0 -45.9,7.02 -146.2,-6.91 -11.7,-1.64 -23.3,-3.8 -36.7,-5.09 -16.9,-1.63 -34.6,-4.37 -54.2,-5.04 -11.7,-0.39 -23.8,0.25 -36.4,1.26 -18.2,1.48 -36,4.59 -56.2,7.59 -47.1,7.05 -91,17.17 -149.6,21.96 29.7,19.34 53,34.11 81,48.53 20.3,10.49 38.2,17.82 57.8,25.07 21.2,7.88 40.6,13.62 60.6,17.39 14.4,2.7 28.4,3.91 41.8,3.67 22.9,-0.41 43.7,-3.9 62.9,-8.47 15.2,-3.61 28.3,-7.56 41.1,-12.68 30.7,-12.29 52.9,-23.52 72.5,-36.3 46.4,-30.15 61.6,-50.98 61.6,-50.98"
             style="fill:#9fc9d0;fill-opacity:1;fill-rule:evenodd;stroke:none"
             id="path138" /><path
             d="m 20273,9417.78 c 0,0 -40.6,4.84 -124.6,-7.94 -10,-1.5 -19.3,-3.73 -30.5,-4.88 -13.9,-1.43 -28.3,-4.38 -44.4,-4.66 -11.9,-0.21 -24.2,1.31 -37.2,2.79 -19.4,2.2 -37.3,6.55 -59,10.1 -35.4,5.79 -65,13.72 -107.4,17.57 24.3,20.05 42.3,34.03 65.9,48.98 17.1,10.8 31.9,17.77 48.8,25.25 18.2,8.07 34.8,13.52 52.4,17.33 12.4,2.7 24.7,3.67 36.4,3.45 13,-0.25 25.1,-2.07 36.7,-4.77 20.2,-4.72 37.3,-9.83 53.3,-17.4 26.2,-12.44 44.2,-23.52 60.6,-36.64 37.4,-29.86 49,-49.18 49,-49.18"
             style="fill:#9fc9d0;fill-opacity:1;fill-rule:evenodd;stroke:none"
             id="path140" /><path
             d="m 20043.6,9645.35 c 0,0 -28.6,13.48 -119.9,5.84 -9.7,-0.81 -19,-2.43 -30.2,-2.82 -13.8,-0.46 -28.3,-2.11 -44.6,-1.28 -9.6,0.48 -19.5,2.08 -29.8,4.14 -15,3 -29.2,7.67 -45.8,12.67 -39.1,11.77 -72.7,26.2 -122.8,39.31 27,15.58 46.3,26.66 71.1,38.04 18,8.26 33,13.45 50,18.81 18.6,5.86 35,9.7 52.1,11.79 12.3,1.5 24.2,1.43 35.4,0.29 12.6,-1.29 24.3,-4.06 35.1,-7.49 20,-6.3 36.4,-12.58 51.2,-21.02 26.3,-14.98 43.1,-27.24 57.5,-41.62 36.6,-36.35 40.7,-56.66 40.7,-56.66"
             style="fill:#9fc9d0;fill-opacity:1;fill-rule:evenodd;stroke:none"
             id="path142" /><path
             d="m 20120.5,9574.84 c 0,0 -4.3,46.59 -23.4,130.17 -2.4,10.48 -5.2,20.41 -7.2,32.06 -2.5,14.88 -6,30.12 -7.5,46.86 -0.9,10.13 -0.7,20.57 -0.3,31.34 0.7,16.16 3.2,31.44 5.1,48.76 4.6,43.7 12.2,81.73 11.1,132.88 22.1,-23.16 37.8,-41.33 54.7,-65.3 11.9,-16.93 20,-32.19 28.6,-49.57 9.1,-18.2 15.6,-35.2 20.5,-53.44 3.4,-12.53 5.2,-25.09 5.6,-37.33 0.5,-20.08 -1.9,-38.82 -5.6,-56.48 -2.8,-13.45 -5.9,-25.08 -10.4,-36.79 -10.1,-26.95 -19.3,-46.58 -30.2,-65.16 -24.2,-41.18 -41,-58 -41,-58"
             style="fill:#9fc9d0;fill-opacity:1;fill-rule:evenodd;stroke:none"
             id="path144" /><path
             d="m 20335.8,9344.82 c 0,0 5.7,66.11 3.2,174.55 -0.3,14.44 -0.8,28.81 -0.5,44.56 0.4,20.83 0,42.5 1.7,65.32 1,14.04 3,28.3 5.4,42.87 3.5,21.48 8.5,42.32 13,64.92 11.3,55.99 24.1,108.62 27.3,172.14 19.5,-34.32 34.4,-64.31 47.7,-98.97 9.3,-24.22 15.5,-46.71 21.2,-70.8 5.9,-25.05 9.8,-48.79 11.4,-73.03 1.1,-16.67 0.7,-33.07 -1.1,-48.89 -3,-25.48 -8.9,-49.22 -15.8,-71.53 -5.2,-16.55 -10.6,-31.45 -17.3,-45.89 -47.5,-103.06 -96.2,-155.25 -96.2,-155.25"
             style="fill:#9fc9d0;fill-opacity:1;fill-rule:evenodd;stroke:none"
             id="path146" /><path
             d="m 20498.5,9125.01 c 0,0 17.5,64.52 33.4,169.59 4.6,30.54 8.3,63.03 13,99.15 2.7,20.85 4.6,42.39 8.4,64.6 4.7,27.37 10.7,55.45 16.9,84.52 8.9,42.2 19.7,83.77 26.6,129.7 7.1,47.28 14.1,92.18 14.5,143.34 21.4,-42.63 37.5,-81.98 50.1,-125.06 8.9,-30.37 14.4,-59.29 18.6,-89.31 4.4,-31.31 6.3,-61.37 5.5,-91.39 -0.5,-20.69 -2.7,-40.94 -6.5,-60.4 -6.1,-31.04 -15.4,-59.99 -25.9,-87.07 -7.7,-19.77 -15.7,-37.87 -24.9,-55.12 -63.7,-119.28 -129.7,-182.55 -129.7,-182.55"
             style="fill:#9fc9d0;fill-opacity:1;fill-rule:evenodd;stroke:none"
             id="path148" /><path
             d="m 20709.3,8725.65 c 0,0 48.2,69.59 93.8,197.13 14.3,39.84 26.8,84.48 40,134.98 8.3,31.7 15.4,65.51 24.2,101.07 8,32.33 17.8,65.55 26.3,101.17 11.7,49.52 23.5,100.61 32,157.71 7.7,52.74 15.1,105.68 17.5,165.46 20,-57.91 35,-110.69 45.1,-164.35 7.5,-39.83 11.4,-77.3 13.4,-114.57 2.2,-40.8 1.4,-79.32 -2.5,-116.47 -2.9,-26.71 -7.7,-52.36 -14.2,-76.65 -10.8,-39.95 -25.3,-76.32 -41.2,-109.54 -11.9,-24.75 -24.4,-47.23 -37.9,-68.17 -37.6,-58.33 -75.1,-102.14 -108.7,-135.35 -51.5,-50.94 -87.8,-72.42 -87.8,-72.42"
             style="fill:#9fc9d0;fill-opacity:1;fill-rule:evenodd;stroke:none"
             id="path150" /><path
             d="m 20813,8413.17 c 0,0 56.3,69.45 129.2,179.72 24.4,36.79 49.7,77.1 76.4,121.07 10,16.39 20,33.1 30.7,49.87 10.4,16.1 21,32.35 32.1,48.55 21.8,31.75 44.3,63.15 65.7,96.79 46.1,72.57 88.3,145.84 112.4,232.78 6,-56.28 5.6,-109.07 -1.3,-163.6 -4.7,-37.53 -13,-72.88 -23.4,-108.52 -10.6,-36.31 -23.6,-70.83 -39.5,-103.98 -10.8,-22.48 -23.1,-43.94 -36.7,-63.98 -21.3,-31.36 -45.1,-59.53 -69.4,-85.35 -17.3,-18.5 -34.7,-35.27 -52.6,-50.71 -120.4,-103.66 -223.6,-152.64 -223.6,-152.64"
             style="fill:#9fc9d0;fill-opacity:1;fill-rule:evenodd;stroke:none"
             id="path152" /><path
             d="m 20873.5,8098.4 c 0,0 88.3,76.69 200.6,202.81 38,42.67 78.1,90.25 119.3,142.54 15.5,19.63 31.1,39.77 47.2,60.08 15.6,19.56 31.3,39.42 47.5,59.37 31.5,38.88 63.2,78.29 93.3,120.59 63.6,89.42 120.7,184.02 155.1,295.85 -0.4,-72.38 -8.9,-140.48 -25.5,-207.93 -11.6,-46.86 -27.1,-91.08 -45.5,-134.54 -18.8,-44.57 -40.5,-86.81 -65.3,-126.66 -16.9,-27.18 -35.4,-52.96 -55.2,-76.95 -31,-37.52 -64.6,-71.02 -98.3,-101.51 -24.1,-21.76 -48.2,-41.54 -72.5,-59.57 -162.4,-120.4 -300.7,-174.08 -300.7,-174.08"
             style="fill:#9fc9d0;fill-opacity:1;fill-rule:evenodd;stroke:none"
             id="path154" /><path
             d="m 20888.7,7689.47 c 0,0 109.4,35.81 254.4,98.43 50.9,21.97 105.1,46.8 161.2,74.38 21.5,10.59 43.2,21.49 65.2,32.18 21.5,10.46 43.1,20.97 64.8,31.33 43.6,20.82 86.5,41.58 127.3,65.88 93.9,55.87 174.9,121.24 222.2,216.67 -14.7,-91.35 -55.8,-171.12 -116,-242.75 -39,-46.45 -85.2,-87.36 -136.7,-122.85 -37.4,-25.83 -77.6,-48.21 -119.1,-66.28 -42.1,-18.35 -85.4,-31.78 -127.9,-42.88 -55.3,-14.46 -108.2,-24.01 -157.5,-30.5 -139.1,-18.31 -237.9,-13.61 -237.9,-13.61"
             style="fill:#9fc9d0;fill-opacity:1;fill-rule:evenodd;stroke:none"
             id="path156" /><path
             d="m 20853.3,7187.73 c 0,0 105.4,-6.46 253,4.47 50.6,3.74 104.9,9.65 162.5,18.03 21.7,3.16 43.7,6.71 66,9.98 21.6,3.16 43.5,6.41 65.5,9.54 43.4,6.16 86.8,12.53 130.6,22.87 93.8,22.16 184.4,54.09 267.5,118.18 -36.4,-55.06 -77.7,-99.95 -125.8,-138.93 -34,-27.53 -70,-49.63 -108,-69.32 -38.7,-20.07 -78.6,-35.97 -119.6,-47.89 -27.6,-8.03 -55.7,-13.83 -83.6,-17.33 -43.2,-5.41 -85.8,-6.01 -126.9,-4.1 -29,1.35 -56.7,4.04 -83.6,8.31 -175.5,27.79 -297.6,86.19 -297.6,86.19"
             style="fill:#9fc9d0;fill-opacity:1;fill-rule:evenodd;stroke:none"
             id="path158" /><path
             d="m 20767.8,6779.68 c 0,0 85,-4.11 211.7,-3.3 38.6,0.24 79.7,1.09 124.2,1.56 26.5,0.27 53.6,1.24 81.5,0.43 35.2,-1.03 71.2,-3.29 107.6,-5.51 54.6,-3.33 108.1,-8.19 162.8,-7.65 60.3,0.58 116.8,2.7 173.7,15.14 -45,-31.09 -91.8,-55.87 -144.5,-76.42 -34.5,-13.47 -69.2,-23.46 -105.5,-31.97 -36.1,-8.44 -72.1,-14.6 -108.7,-17.77 -24.4,-2.13 -48.8,-2.7 -72.8,-1.54 -37.3,1.81 -73.4,7.08 -107.9,13.57 -24.7,4.63 -47.9,10.07 -70.5,16.52 -151.5,43.39 -251.6,96.94 -251.6,96.94"
             style="fill:#9fc9d0;fill-opacity:1;fill-rule:evenodd;stroke:none"
             id="path160" /><path
             d="m 20881.1,7426.65 c 0,0 123.9,25.69 289.4,62.07 59.4,13.06 122.9,28.49 188.8,41.1 41.6,7.97 83.8,13.78 125.5,20.12 65.9,10.05 129.1,18.47 187.3,33.21 74.4,18.83 137.3,41.02 183.1,78.54 -38.9,-62.7 -107,-116.81 -194.6,-162.74 -48.4,-25.42 -101.3,-47.19 -157.7,-64.34 -40.1,-12.18 -81.6,-21.77 -123.1,-27.89 -42.3,-6.21 -84.4,-8.36 -125.2,-9.37 -53.7,-1.33 -103.8,0.41 -150.2,3.45 -132.9,8.71 -223.3,25.85 -223.3,25.85"
             style="fill:#9fc9d0;fill-opacity:1;fill-rule:evenodd;stroke:none"
             id="path162" /><path
             d="m 20894.5,7893.55 c 0,0 71.9,47.88 173.5,120.25 31.6,22.51 64.9,46.68 100.9,72.08 21.7,15.35 43.5,31.46 66.7,46.37 29.9,19.2 60.8,37.49 91.6,55.79 47.9,28.53 94.6,54.49 136.8,85.22 50.7,37.01 93.8,72.83 124.3,117.63 -10.7,-51.07 -32.6,-100.01 -64.8,-150.31 -19.6,-30.48 -42.5,-58.71 -68.2,-87.13 -24.5,-26.92 -50.7,-52.33 -79.5,-75.86 -18.7,-15.31 -38.4,-29.48 -58.9,-42.08 -31.3,-19.19 -63.8,-35.17 -96,-49.44 -22.6,-10.04 -44.7,-18.73 -66.8,-26.28 -145.7,-49.69 -259.6,-66.24 -259.6,-66.24"
             style="fill:#9fc9d0;fill-opacity:1;fill-rule:evenodd;stroke:none"
             id="path164" /><path
             d="m 20816.1,6980.64 c 0,0 109.8,-2.98 265.6,2.54 53.8,1.9 111.8,4.66 173.3,8.37 23.4,1.42 47.1,2.91 71.2,3.89 23.4,0.95 47,1.75 70.8,2.1 47.4,0.7 94.5,0.89 141.7,3.51 108.5,6.02 211.2,19.24 301.6,62.15 -46.7,-44.31 -100.1,-80.01 -161.3,-109.79 -39.4,-19.15 -80.3,-34.14 -123.4,-47.05 -42.1,-12.6 -84.9,-22.4 -128.6,-28.74 -28.9,-4.19 -58.1,-6.65 -86.9,-7.17 -44.4,-0.79 -87.9,2.32 -129.9,7.03 -29.6,3.32 -57.9,7.69 -85.4,13.18 -181.3,36.24 -308.7,89.98 -308.7,89.98"
             style="fill:#9fc9d0;fill-opacity:1;fill-rule:evenodd;stroke:none"
             id="path166" /><path
             d="m 20718.8,6576.17 c 0,0 113.9,-30.3 273.7,-62.99 56.1,-11.46 116.7,-23.14 180.4,-34.41 24.5,-4.34 49.3,-8.64 74.2,-13.45 24.5,-4.72 49.1,-9.58 73.5,-14.8 49.5,-10.56 98.1,-21.2 146.7,-28.69 117.2,-18.05 226.7,-22.48 320.7,16.42 -68.5,-55.95 -155.4,-89.01 -254.6,-104.9 -59.9,-9.6 -122.5,-12.17 -186.2,-8.06 -46,2.96 -92.1,9.64 -136.9,20.08 -45.5,10.62 -89.1,25.49 -130.9,41.34 -54.6,20.73 -104.5,43.57 -149.7,66.39 -128.7,64.98 -210.9,123.07 -210.9,123.07"
             style="fill:#9fc9d0;fill-opacity:1;fill-rule:evenodd;stroke:none"
             id="path168" /><path
             d="m 20605.9,6272.33 c 0,0 115.8,-41.56 281.6,-88.13 57.7,-16.2 120.4,-32.86 186.8,-49.19 25.4,-6.25 51.2,-12.47 77.1,-19.18 25.4,-6.56 50.9,-13.26 76.4,-20.31 51,-14.11 101.6,-28.23 152.8,-39.4 118.5,-25.86 233.2,-39.68 340.9,-15.05 -62.2,-34.72 -130.3,-57.01 -204.8,-69.64 -47.7,-8.08 -96.3,-11.09 -146.3,-10.94 -48.6,0.14 -97.3,3.61 -145.8,11.03 -32.1,4.9 -63.8,11.65 -94.7,20.3 -47.3,13.24 -92.8,30.28 -136.1,48.5 -30.4,12.8 -59.2,26.35 -86.8,40.72 -180.8,94.23 -301.1,191.29 -301.1,191.29"
             style="fill:#9fc9d0;fill-opacity:1;fill-rule:evenodd;stroke:none"
             id="path170" /><path
             d="m 20466.7,5936.17 c 0,0 96.2,-51.9 248.4,-107.41 50.6,-18.44 106.4,-36.83 167.3,-54.88 22.7,-6.7 45.9,-13.28 69.5,-20.41 22.6,-6.82 45.6,-13.77 68.9,-21.15 44.9,-14.24 90.5,-29.25 138.8,-41.36 40.3,-10.09 80.5,-19.57 123,-26.84 62.6,-10.7 125,-18.51 192.4,-18.62 -65.8,-21.74 -129.1,-36.23 -194,-44.04 -45.8,-5.51 -90.1,-6.89 -134.5,-5.77 -46.3,1.16 -91.1,5.41 -134.7,13.25 -30.1,5.41 -59.3,12.7 -87.3,21.78 -44.4,14.37 -85.7,32.48 -124.2,51.76 -27.8,13.9 -53.6,28.41 -77.9,43.83 -164.8,104.52 -255.7,209.86 -255.7,209.86"
             style="fill:#9fc9d0;fill-opacity:1;fill-rule:evenodd;stroke:none"
             id="path172" /><path
             d="m 20318.4,5631.2 c 0,0 93.8,-47 239.5,-101.5 48.6,-18.19 102,-36.81 160,-55.77 21.6,-7.07 43.7,-14.14 66.1,-21.84 21.6,-7.39 43.4,-15.02 65.4,-23.16 42.8,-15.84 85.8,-32.72 131.1,-47.14 38.2,-12.17 76.1,-23.86 116,-33.63 60,-14.68 119.1,-26.52 182.7,-30.99 -63.4,-17.14 -124.8,-27.51 -188.3,-31.43 -43.8,-2.7 -86.3,-1.65 -129,1.69 -43.9,3.44 -86.5,9.52 -128,18.92 -28.4,6.44 -56,14.54 -82.5,24.3 -41.6,15.36 -80.4,34.05 -116.7,53.61 -26,14.06 -50.3,28.58 -73.2,43.88 -155,103.63 -243.1,203.06 -243.1,203.06"
             style="fill:#9fc9d0;fill-opacity:1;fill-rule:evenodd;stroke:none"
             id="path174" /><path
             d="m 20172.1,5368.88 c 0,0 75.2,-51.29 187.5,-115.01 38.5,-21.82 80.2,-44.29 125,-67.53 16.9,-8.79 34.1,-17.53 51.3,-26.87 16.6,-9.07 -180.7,-18.23 -197.3,-1.38 -108.1,110.14 -166.5,210.79 -166.5,210.79"
             style="fill:#9fc9d0;fill-opacity:1;fill-rule:evenodd;stroke:none"
             id="path176" /><path
             d="m 21737.6,5132.19 c 0,0 118.3,-50.83 348.1,5.42 588.9,144.16 1660.4,483.41 1819.4,1071.14 187.7,693.61 -1152.9,-298.17 -1071.2,179.93 81.8,478.1 1328.9,1119.56 1185.3,1516.42 -143.5,396.85 -1010.1,-444.86 -1171.9,-242.63 -161.7,202.22 798.5,1177.84 527.1,1659.43 -271.3,481.59 -474.4,-345.06 -795.2,-974.51 -320.8,-629.45 -673.7,241.8 -1067.6,142.97 -537.2,-134.73 484.4,-1250.18 206.6,-1689.42 -256.1,-404.94 -916.5,1248.15 -1062.9,157.09 -137.1,-1021.13 507,-1575.95 846.3,-1793.37 117.1,-74.99 236,-32.47 236,-32.47"
             style="fill:#cae7e4;fill-opacity:1;fill-rule:evenodd;stroke:none"
             id="path178" /><path
             d="m 21929.6,5608.98 c 89.4,9.49 450.8,51.55 801,144.75 194.4,51.72 385.3,119.12 524.1,205.62 4.1,2.61 9.2,1.67 11.5,-2.09 2.2,-3.76 0.7,-8.93 -3.4,-11.54 -139,-90.01 -331.2,-161.89 -527.4,-217.84 -373.9,-106.69 -761.9,-155.45 -819.5,-162.33 -55.4,-176.67 -99.7,-319.13 -127.8,-410 -3.9,-12.53 -45.4,-7.01 -42.5,1.99 37.6,118.59 105.2,330.66 190.3,594.19 -36.8,28.58 -344.8,270.99 -603.2,573.77 -125.6,147.18 -239.4,308.6 -304.7,466.66 -1.7,4.06 0.4,9.07 4.7,11.2 4.4,2.12 9.3,0.56 11,-3.49 67.7,-155.03 183.6,-312.47 310.8,-455.71 241.3,-271.75 523.4,-492.21 596,-547.34 122.5,378.69 278.4,854.67 433.1,1310.89 7.1,20.89 14.2,41.73 21.3,62.56 -3,1.32 -5.6,3.37 -7.5,6.13 l -648.8,934.34 c -2.6,3.56 -1.4,8.79 2.5,11.66 3.9,2.88 9.2,2.32 11.7,-1.24 l 658.9,-901.58 c 173.3,507.72 341.6,978.47 456.2,1246.75 1.9,4.37 6.9,6.82 11.2,5.47 4.3,-1.36 6.3,-6 4.4,-10.38 -120.7,-288.21 -301.6,-809.57 -483.8,-1359.57 -19.6,-58.96 -39.1,-118.24 -58.6,-177.48 98.4,45.65 483.7,226.82 774,395.55 141.3,82.17 260.2,161.13 311.3,220 3.2,3.69 8.5,4.49 12,1.79 3.5,-2.7 3.7,-7.9 0.6,-11.59 -51,-60.92 -170.2,-144.1 -312.7,-230.64 -333.2,-202.29 -793.5,-423.89 -793.5,-423.89 -2.8,-1.29 -5.6,-2.01 -8.4,-2.21 -150.7,-460.14 -296.9,-920.62 -404.8,-1264.4"
             style="fill:#9fc9d0;fill-opacity:1;fill-rule:evenodd;stroke:none"
             id="path180" /><path
             d="m 26298.3,5127.58 c 0,50.25 -23.9,90.99 -53.4,90.99 -1172.9,0 -21301.93,0 -22474.88,0 -29.47,0 -53.36,-40.74 -53.36,-90.99 0,-0.01 0,-0.02 0,-0.03 0,-50.25 23.89,-90.99 53.36,-90.99 1172.95,0 21301.98,0 22474.88,0 29.5,0 53.4,40.74 53.4,90.99 0,0.01 0,0.02 0,0.03"
             style="fill:#243a9d;fill-opacity:1;fill-rule:evenodd;stroke:none"
             id="path182" /></g></g></g></g></svg>
