<?xml version="1.0" encoding="UTF-8" standalone="no"?>

<!-- Created with PainterSVG V3.92 -->

<svg  xmlns="http://www.w3.org/2000/svg" xmlns:xlink="http://www.w3.org/1999/xlink" xmlns:psvg="http://www.paintersvg.com/namespace.html" id="svg"  width="5333.3335" height="5333.3335" viewBox="0 0 5333.3335 5333.3335">
<defs></defs>
<g psvg:layer="layer2">
<path id="path16" d=" M 3074.9402,3698.53 3074.9402,3686.1501 3027.1501,3686.1501 3027.1501,3698.53 3044.9199,3698.53 3044.9199,3742.1902 C 3044.1699,3741.1902 3043,3740.1504 3041.4199,3739.0603 3039.8298,3737.9802 3038.0798,3736.9802 3036.1599,3736.0603 3034.24,3735.1404 3032.24,3734.3704 3030.1599,3733.75 3028.0701,3733.1199 3026.24,3732.8103 3024.6501,3732.8103 L 3024.6501,3745.6902 C 3026.3201,3745.6902 3028.26,3746.1902 3030.47,3747.1902 3032.6799,3748.2004 3034.8,3749.3601 3036.8501,3750.7004 3038.8901,3752.0305 3040.6802,3753.3606 3042.2302,3754.7004 3043.7703,3756.0305 3044.6702,3756.9902 3044.9202,3757.5806 L 3059.0503,3757.5806 3059.0503,3698.5305 3074.9402,3698.5305" style="fill:#FFFFFF;fill-opacity:1;stroke:none;" transform="matrix(1.3333,0,0,-1.3333,0,5333.3335)"/>
<path id="path18" d=" M 3140.6199,3722.8 C 3140.6199,3726.55 3140.1799,3729.97 3139.3,3733.0603 3138.4302,3736.1404 3137.1802,3738.8103 3135.55,3741.0603 3133.9302,3743.3103 3132.01,3745.05 3129.79,3746.2603 3127.5901,3747.4602 3125.1902,3748.0703 3122.6001,3748.0703 3119.8501,3748.0703 3117.3699,3747.4602 3115.1599,3746.2603 3112.95,3745.05 3111.03,3743.3103 3109.4001,3741.0603 3107.78,3738.8103 3106.53,3736.1404 3105.6501,3733.0603 3104.78,3729.9705 3104.3401,3726.55 3104.3401,3722.8 3104.3401,3719.05 3104.78,3715.6301 3105.6501,3712.5398 3106.53,3709.4597 3107.78,3706.8098 3109.4001,3704.6001 3111.03,3702.3899 3112.95,3700.6802 3115.1599,3699.47 3117.3699,3698.2598 3119.8501,3697.6599 3122.6001,3697.6599 3125.1902,3697.6599 3127.5901,3698.2598 3129.79,3699.47 3132.01,3700.6802 3133.9302,3702.3899 3135.55,3704.6001 3137.1802,3706.8103 3138.4302,3709.4602 3139.3,3712.5398 3140.1802,3715.6296 3140.6199,3719.05 3140.6199,3722.8 Z M 3154.6299,3722.8 C 3154.6299,3717.3 3153.8101,3712.2302 3152.1899,3707.6001 3150.5598,3702.97 3148.3098,3698.97 3145.4299,3695.5898 3142.5601,3692.2097 3139.1799,3689.5898 3135.2998,3687.7097 3131.4197,3685.8398 3127.1899,3684.8997 3122.5999,3684.8997 3118.0198,3684.8997 3113.7598,3685.8396 3109.8398,3687.7097 3105.9199,3689.5898 3102.5398,3692.2097 3099.7097,3695.5898 3096.8796,3698.97 3094.6399,3702.97 3093.0198,3707.6001 3091.3896,3712.2302 3090.5798,3717.3 3090.5798,3722.8 3090.5798,3728.3103 3091.3896,3733.3699 3093.0198,3738 3094.6396,3742.6301 3096.8796,3746.6301 3099.7097,3750.0103 3102.5398,3753.3904 3105.9197,3756.03 3109.8398,3757.95 3113.7598,3759.8699 3118.02,3760.8301 3122.5999,3760.8301 3127.1899,3760.8301 3131.4197,3759.8699 3135.2998,3757.95 3139.1799,3756.03 3142.5598,3753.3899 3145.4299,3750.0103 3148.3101,3746.6301 3150.5601,3742.6301 3152.1899,3738 3153.8098,3733.3699 3154.6299,3728.3103 3154.6299,3722.8 Z" style="fill:#FFFFFF;fill-opacity:1;stroke:none;" transform="matrix(1.3333,0,0,-1.3333,0,5333.3335)"/>
<path id="path20" d=" M 3223.6802,3722.8 C 3223.6802,3726.55 3223.24,3729.97 3222.3601,3733.0603 3221.4902,3736.1404 3220.2402,3738.8103 3218.6101,3741.0603 3216.9902,3743.3103 3215.0701,3745.05 3212.8601,3746.2603 3210.6501,3747.4602 3208.2502,3748.0703 3205.6602,3748.0703 3202.9202,3748.0703 3200.4302,3747.4602 3198.2202,3746.2603 3196.0103,3745.05 3194.0901,3743.3103 3192.4702,3741.0603 3190.8401,3738.8103 3189.5901,3736.1404 3188.7202,3733.0603 3187.8401,3729.9705 3187.4001,3726.55 3187.4001,3722.8 3187.4001,3719.05 3187.8403,3715.6301 3188.7202,3712.5398 3189.5901,3709.4597 3190.8401,3706.8098 3192.4702,3704.6001 3194.0901,3702.3899 3196.0103,3700.6802 3198.2202,3699.47 3200.4302,3698.2598 3202.9202,3697.6599 3205.6602,3697.6599 3208.2502,3697.6599 3210.6501,3698.2598 3212.8601,3699.47 3215.0701,3700.6802 3216.9902,3702.3899 3218.6101,3704.6001 3220.2402,3706.8103 3221.4902,3709.4602 3222.3601,3712.5398 3223.2402,3715.6296 3223.6802,3719.05 3223.6802,3722.8 Z M 3237.6902,3722.8 C 3237.6902,3717.3 3236.8801,3712.2302 3235.25,3707.6001 3233.6199,3702.97 3231.3699,3698.97 3228.5,3695.5898 3225.6199,3692.2097 3222.24,3689.5898 3218.3601,3687.7097 3214.48,3685.8398 3210.25,3684.8997 3205.6599,3684.8997 3201.0798,3684.8997 3196.8298,3685.8396 3192.9099,3687.7097 3188.98,3689.5898 3185.6101,3692.2097 3182.77,3695.5898 3179.9399,3698.97 3177.71,3702.97 3176.0798,3707.6001 3174.45,3712.2302 3173.6399,3717.3 3173.6399,3722.8 3173.6399,3728.3103 3174.45,3733.3699 3176.0798,3738 3177.71,3742.6301 3179.9399,3746.6301 3182.77,3750.0103 3185.6101,3753.3904 3188.98,3756.03 3192.9099,3757.95 3196.8298,3759.8699 3201.0798,3760.8301 3205.6599,3760.8301 3210.25,3760.8301 3214.48,3759.8699 3218.3601,3757.95 3222.24,3756.03 3225.6199,3753.3899 3228.5,3750.0103 3231.3699,3746.6301 3233.6199,3742.6301 3235.25,3738 3236.8801,3733.3699 3237.6902,3728.3103 3237.6902,3722.8 Z" style="fill:#FFFFFF;fill-opacity:1;stroke:none;" transform="matrix(1.3333,0,0,-1.3333,0,5333.3335)"/>
<path id="path22" d=" M 3320.7603,3692.03 C 3323.5903,3692.03 3325.9902,3693.1501 3327.95,3695.4102 3329.9102,3697.6602 3330.8899,3700.3704 3330.8899,3703.5403 3330.8899,3705.1204 3330.6199,3706.6003 3330.0798,3707.9802 3329.5298,3709.3501 3328.7798,3710.5603 3327.8196,3711.6001 3326.8696,3712.6501 3325.7798,3713.4602 3324.5696,3714.0398 3323.3594,3714.6296 3322.0896,3714.9199 3320.7595,3714.9199 3319.3396,3714.9199 3318.0195,3714.6099 3316.8196,3713.9802 3315.6094,3713.3601 3314.5396,3712.52 3313.6296,3711.4802 3312.7097,3710.4402 3311.9797,3709.2302 3311.4399,3707.8501 3310.8899,3706.4802 3310.6296,3705.0398 3310.6296,3703.5398 3310.6296,3701.95 3310.8899,3700.45 3311.4399,3699.0298 3311.9797,3697.6099 3312.7097,3696.3796 3313.6296,3695.3398 3314.5398,3694.3 3315.6099,3693.49 3316.8196,3692.9001 3318.0195,3692.3201 3319.3396,3692.03 3320.7595,3692.03 Z M 3320.7595,3684.9001 C 3317.9993,3684.9001 3315.4197,3685.3801 3312.9993,3686.3398 3310.5793,3687.2898 3308.4792,3688.6296 3306.6794,3690.3398 3304.8894,3692.05 3303.4692,3694.0298 3302.4294,3696.2798 3301.3894,3698.5298 3300.8594,3700.9497 3300.8594,3703.5398 3300.8594,3706.1199 3301.3894,3708.5398 3302.4294,3710.7898 3303.4692,3713.0398 3304.8894,3715 3306.6794,3716.6699 3308.4792,3718.3398 3310.5793,3719.6501 3312.9993,3720.6099 3315.4192,3721.5701 3317.9993,3722.0496 3320.7595,3722.0496 3323.5095,3722.0496 3326.0896,3721.5696 3328.5095,3720.6099 3330.9294,3719.6497 3333.0396,3718.3398 3334.8293,3716.6699 3336.6191,3715 3338.0396,3713.0398 3339.0793,3710.7898 3340.1294,3708.5398 3340.6394,3706.1199 3340.6394,3703.5398 3340.6394,3700.95 3340.1294,3698.5298 3339.0793,3696.2798 3338.0396,3694.0298 3336.6191,3692.0496 3334.8293,3690.3398 3333.0396,3688.6296 3330.9294,3687.2898 3328.5095,3686.3398 3326.0896,3685.3796 3323.5095,3684.9001 3320.7595,3684.9001 Z M 3274.7195,3746.1899 C 3276.1394,3746.1899 3277.4492,3746.5098 3278.6594,3747.1296 3279.8696,3747.7598 3280.9294,3748.5898 3281.8494,3749.6296 3282.7693,3750.6797 3283.4993,3751.8899 3284.0391,3753.2598 3284.5789,3754.6399 3284.8494,3756.0798 3284.8494,3757.5798 3284.8494,3759.1599 3284.5793,3760.6599 3284.0391,3762.0798 3283.4993,3763.4998 3282.7693,3764.7297 3281.8494,3765.7695 3280.9294,3766.8093 3279.8494,3767.6296 3278.5994,3768.2095 3277.3494,3768.7896 3276.0493,3769.0896 3274.7192,3769.0896 3271.8792,3769.0896 3269.489,3767.9395 3267.5291,3765.6497 3265.5691,3763.3496 3264.5891,3760.6599 3264.5891,3757.5798 3264.5891,3755.99 3264.8591,3754.5098 3265.3992,3753.1399 3265.9392,3751.7598 3266.6689,3750.55 3267.5891,3749.5098 3268.509,3748.4597 3269.5691,3747.6497 3270.7791,3747.0701 3271.989,3746.4802 3273.2991,3746.1899 3274.7192,3746.1899 Z M 3260.4592,3691.1501 3295.6094,3732.8103 3328.6394,3775.7102 3335.1394,3770.0903 3300.6196,3728.9302 3266.8396,3685.4001 Z M 3281.0996,3733.3103 C 3278.3496,3733.3103 3275.7595,3733.7903 3273.3396,3734.75 3270.9297,3735.7102 3268.8198,3737.02 3267.0298,3738.6899 3265.2297,3740.3599 3263.8198,3742.3201 3262.7798,3744.5701 3261.7297,3746.8201 3261.2097,3749.24 3261.2097,3751.8301 3261.2097,3754.4102 3261.7297,3756.8301 3262.7798,3759.0801 3263.8198,3761.3403 3265.2297,3763.3103 3267.0298,3765.03 3268.8198,3766.7302 3270.9297,3768.0701 3273.3396,3769.03 3275.7595,3769.9902 3278.3496,3770.47 3281.0996,3770.47 3283.8496,3770.47 3286.4395,3769.99 3288.8599,3769.03 3291.27,3768.0701 3293.3796,3766.7302 3295.1699,3765.03 3296.97,3763.3103 3298.3801,3761.3403 3299.4302,3759.0801 3300.47,3756.8301 3300.9902,3754.4102 3300.9902,3751.8301 3300.9902,3749.2402 3300.4705,3746.8201 3299.4302,3744.5701 3298.3801,3742.3201 3296.97,3740.3599 3295.1699,3738.6899 3293.3801,3737.02 3291.27,3735.7097 3288.8599,3734.75 3286.4399,3733.7898 3283.8496,3733.3103 3281.0996,3733.3103 Z" style="fill:#FFFFFF;fill-opacity:1;stroke:none;" transform="matrix(1.3333,0,0,-1.3333,0,5333.3335)"/>
<path id="path24" d=" M 3459.4802,3698.53 3459.4802,3686.1501 3398.5603,3686.1501 3398.5603,3774.97 3458.3601,3774.97 3458.3601,3762.5801 3412.5703,3762.5801 3412.5703,3737.3103 3452.2305,3737.3103 3452.2305,3725.6802 3412.5703,3725.6802 3412.5703,3698.53 3459.4805,3698.53" style="fill:#FFFFFF;fill-opacity:1;stroke:none;" transform="matrix(1.3333,0,0,-1.3333,0,5333.3335)"/>
<path id="path26" d=" M 3505.52,3696.6602 C 3507.52,3696.6602 3509.52,3696.9902 3511.52,3697.6602 3513.53,3698.3203 3515.3599,3699.2402 3517.03,3700.4102 3518.7,3701.5801 3520.1404,3702.95 3521.3501,3704.5403 3522.55,3706.1204 3523.4102,3707.8301 3523.9102,3709.6704 L 3523.9102,3726.8005 C 3523.1602,3728.8904 3522.0903,3730.8105 3520.7205,3732.5605 3519.3503,3734.3105 3517.7805,3735.8105 3516.0305,3737.0605 3514.2805,3738.3105 3512.4204,3739.2708 3510.4607,3739.9407 3508.5005,3740.6106 3506.5208,3740.9407 3504.5208,3740.9407 3501.7708,3740.9407 3499.2407,3740.3105 3496.9509,3739.0605 3494.6609,3737.8105 3492.6809,3736.1406 3491.011,3734.0605 3489.3411,3731.9707 3488.031,3729.6003 3487.071,3726.9304 3486.1111,3724.2605 3485.6313,3721.5105 3485.6313,3718.6704 3485.6313,3715.6704 3486.1511,3712.8306 3487.1914,3710.1704 3488.2415,3707.4902 3489.6716,3705.1602 3491.5115,3703.1602 3493.3416,3701.1602 3495.4512,3699.5703 3497.8313,3698.4102 3500.2114,3697.2402 3502.7712,3696.6602 3505.5212,3696.6602 Z M 3502.1411,3684.9001 C 3497.7212,3684.9001 3493.6411,3685.7898 3489.8809,3687.5898 3486.1309,3689.3796 3482.8809,3691.8201 3480.1309,3694.9099 3477.3708,3697.99 3475.2207,3701.5996 3473.6809,3705.7297 3472.1411,3709.8496 3471.3708,3714.2898 3471.3708,3719.0496 3471.3708,3723.6296 3472.1008,3727.9497 3473.5605,3731.9895 3475.0105,3736.0396 3477.0605,3739.5996 3479.6907,3742.6895 3482.3105,3745.7793 3485.4009,3748.2095 3488.9509,3750.0095 3492.4907,3751.7993 3496.3906,3752.6992 3500.6406,3752.6992 3505.8906,3752.6992 3510.5208,3751.4294 3514.5305,3748.8794 3518.5305,3746.3396 3521.6606,3743.1094 3523.9106,3739.1895 L 3523.9106,3777.4695 3537.6707,3777.4695 3537.6707,3702.4094 C 3537.6707,3700.8293 3537.9407,3699.6992 3538.481,3699.0293 3539.0208,3698.3594 3540.0007,3697.9895 3541.4309,3697.9094 L 3541.4309,3686.1492 C 3540.0007,3685.8992 3538.8611,3685.7292 3537.981,3685.6492 3537.1111,3685.5593 3536.3809,3685.5193 3535.8008,3685.5193 3533.0408,3685.5193 3530.7908,3686.2292 3529.0408,3687.6492 3527.2908,3689.0593 3526.3306,3690.8992 3526.1606,3693.1492 L 3525.9106,3698.0293 C 3523.4907,3693.9395 3520.2004,3690.7292 3516.0305,3688.3992 3511.8606,3686.0593 3507.2305,3684.8992 3502.1406,3684.8992" style="fill:#FFFFFF;fill-opacity:1;stroke:none;" transform="matrix(1.3333,0,0,-1.3333,0,5333.3335)"/>
<path id="path28" d=" M 3561.4399,3686.1501 3561.4399,3751.5701 3575.2,3751.5701 3575.2,3686.1501 Z M 3575.2,3762.3301 3575.2,3777.47 3588.9602,3777.47 3588.9602,3762.3301 3575.2,3762.3301 Z" style="fill:#FFFFFF;fill-opacity:1;stroke:none;" transform="matrix(1.3333,0,0,-1.3333,0,5333.3335)"/>
<path id="path30" d=" M 3634.3699,3689.52 C 3632.6199,3688.6899 3630.2,3687.75 3627.1099,3686.7097 3624.0298,3685.6699 3620.74,3685.1497 3617.2297,3685.1497 3615.0598,3685.1497 3613.0195,3685.4395 3611.0996,3686.0195 3609.1797,3686.5996 3607.4998,3687.4797 3606.0396,3688.6497 3604.5793,3689.8196 3603.4294,3691.3396 3602.5996,3693.2097 3601.7598,3695.0898 3601.3496,3697.3599 3601.3496,3700.0298 L 3601.3496,3740.9399 3592.7097,3740.9399 3592.7097,3751.5701 3601.3496,3751.5701 3601.3496,3773.0898 3615.1099,3773.0898 3615.1099,3751.5701 3629.3699,3751.5701 3629.3699,3740.9399 3615.1099,3740.9399 3615.1099,3704.4099 C 3615.27,3702.0798 3615.9998,3700.3899 3617.2898,3699.3496 3618.5898,3698.2996 3620.1899,3697.7798 3622.1099,3697.7798 3624.0298,3697.7798 3625.8599,3698.1099 3627.6199,3698.7798 3629.3699,3699.4497 3630.6599,3699.99 3631.49,3700.4099 L 3634.3699,3689.52 Z" style="fill:#FFFFFF;fill-opacity:1;stroke:none;" transform="matrix(1.3333,0,0,-1.3333,0,5333.3335)"/>
<path id="path32" d=" M 3671.27,3695.03 C 3674.6099,3695.03 3677.75,3695.6301 3680.72,3696.8403 3683.6802,3698.0505 3685.99,3699.7402 3687.6599,3701.9102 3689.4099,3703.4102 3690.2898,3704.9902 3690.2898,3706.6602 L 3690.2898,3715.2903 C 3687.95,3716.2102 3685.47,3716.9204 3682.8398,3717.4204 3680.2097,3717.9204 3677.6501,3718.1704 3675.1501,3718.1704 3670.2302,3718.1704 3666.2102,3717.1101 3663.0801,3714.9805 3659.95,3712.8606 3658.3904,3710.0408 3658.3904,3706.5408 3658.3904,3703.2908 3659.5903,3700.5508 3662.0203,3698.3406 3664.4304,3696.1306 3667.5203,3695.0305 3671.2703,3695.0305 Z M 3667.5203,3684.9004 C 3664.3503,3684.9004 3661.4102,3685.4204 3658.7004,3686.4607 3655.9902,3687.5005 3653.6504,3688.9407 3651.6902,3690.7805 3649.7402,3692.6106 3648.1902,3694.7805 3647.0703,3697.2805 3645.9402,3699.7805 3645.3806,3702.4907 3645.3806,3705.4106 3645.3806,3708.5005 3646.0408,3711.2908 3647.3806,3713.7908 3648.7107,3716.3008 3650.6106,3718.4607 3653.0703,3720.3008 3655.5305,3722.1309 3658.4504,3723.5508 3661.8306,3724.5508 3665.2107,3725.5508 3668.9407,3726.0508 3673.0203,3726.0508 3676.1101,3726.0508 3679.1602,3725.781 3682.1602,3725.2407 3685.1602,3724.7009 3687.8704,3723.9707 3690.2903,3723.0508 L 3690.2903,3727.5508 C 3690.2903,3732.3906 3688.9102,3736.1609 3686.1602,3738.8809 3683.4102,3741.5808 3679.4402,3742.9412 3674.28,3742.9412 3670.77,3742.9412 3667.3301,3742.291 3663.9602,3741.0012 3660.5801,3739.7114 3657.0903,3737.8513 3653.5103,3735.4412 L 3649.2603,3744.1912 C 3657.6802,3749.8611 3666.4402,3752.7012 3675.53,3752.7012 3684.53,3752.7012 3691.5403,3750.4011 3696.5403,3745.821 3701.5505,3741.2312 3704.0505,3734.6411 3704.0505,3726.0513 L 3704.0505,3702.4114 C 3704.0505,3699.4915 3705.2505,3697.9915 3707.6804,3697.9114 L 3707.6804,3686.1511 C 3706.3406,3685.9011 3705.2004,3685.7312 3704.2305,3685.6511 3703.2805,3685.5613 3702.3406,3685.5212 3701.4204,3685.5212 3698.7505,3685.5212 3696.6804,3686.1912 3695.2305,3687.5212 3693.7703,3688.8611 3692.8704,3690.571 3692.5408,3692.6511 L 3692.1606,3696.7812 C 3689.2407,3692.9414 3685.6406,3690.0115 3681.3406,3687.9614 3677.0508,3685.9216 3672.4407,3684.9011 3667.5208,3684.9011" style="fill:#FFFFFF;fill-opacity:1;stroke:none;" transform="matrix(1.3333,0,0,-1.3333,0,5333.3335)"/>
<path id="path34" d=" M 3758.5898,3696.6602 C 3761.5898,3696.6602 3764.3398,3697.2603 3766.8501,3698.4705 3769.3501,3699.6804 3771.49,3701.2805 3773.2898,3703.2903 3775.0798,3705.2903 3776.47,3707.6003 3777.4797,3710.2302 3778.4797,3712.8601 3778.9797,3715.6301 3778.9797,3718.55 3778.9797,3721.4602 3778.4998,3724.28 3777.5398,3726.99 3776.5798,3729.7 3775.24,3732.0798 3773.5398,3734.1199 3771.8298,3736.1599 3769.7898,3737.8098 3767.4099,3739.0598 3765.0298,3740.3098 3762.4199,3740.9399 3759.5898,3740.9399 3755.3398,3740.9399 3751.5598,3739.5598 3748.27,3736.8098 3744.97,3734.0598 3742.45,3730.72 3740.7,3726.7996 L 3740.7,3709.5396 C 3741.2,3707.6196 3742.0801,3705.8894 3743.3301,3704.3496 3744.5801,3702.8098 3746.0403,3701.4497 3747.7102,3700.2798 3749.3704,3699.1099 3751.1602,3698.2195 3753.0801,3697.5898 3755,3696.97 3756.8403,3696.6599 3758.5903,3696.6599 Z M 3762.2205,3684.8997 C 3757.2102,3684.8997 3752.6902,3686.0798 3748.6404,3688.4597 3744.5903,3690.8398 3741.4102,3694.0298 3739.0703,3698.0298 L 3739.0703,3686.1497 3726.9402,3686.1497 3726.9402,3777.4695 3740.7004,3777.4695 3740.7004,3739.1895 C 3743.2805,3743.3594 3746.5105,3746.6497 3750.4004,3749.0696 3754.2703,3751.4895 3758.8403,3752.6997 3764.0903,3752.6997 3768.4302,3752.6997 3772.3904,3751.7598 3775.9802,3749.8894 3779.5603,3748.0095 3782.6301,3745.5095 3785.1699,3742.3794 3787.7097,3739.2493 3789.6699,3735.6191 3791.05,3731.4895 3792.4302,3727.3696 3793.1199,3723.0496 3793.1199,3718.5496 3793.1199,3713.8796 3792.3201,3709.4998 3790.74,3705.4099 3789.1501,3701.3298 3786.9797,3697.7598 3784.2297,3694.72 3781.4797,3691.6699 3778.2097,3689.28 3774.4099,3687.52 3770.6199,3685.77 3766.5496,3684.9001 3762.22,3684.9001" style="fill:#FFFFFF;fill-opacity:1;stroke:none;" transform="matrix(1.3333,0,0,-1.3333,0,5333.3335)"/>
<path id="path36" d=" M 3811.8801,3777.47 3825.6404,3777.47 3825.6404,3705.0398 C 3825.6404,3702.6199 3826.2603,3700.72 3827.5103,3699.3501 3828.7603,3697.97 3830.5203,3697.28 3832.7703,3697.28 3833.6902,3697.28 3834.7505,3697.45 3835.9602,3697.78 3837.1704,3698.1101 3838.3203,3698.4902 3839.4001,3698.9102 L 3841.4001,3688.1501 C 3839.4001,3687.2302 3837.02,3686.5 3834.27,3685.9602 3831.52,3685.4204 3829.0598,3685.1501 3826.8899,3685.1501 3822.1296,3685.1501 3818.45,3686.4399 3815.8201,3689.03 3813.1899,3691.6101 3811.8801,3695.28 3811.8801,3700.03 L 3811.8801,3777.47 Z" style="fill:#FFFFFF;fill-opacity:1;stroke:none;" transform="matrix(1.3333,0,0,-1.3333,0,5333.3335)"/>
<path id="path38" d=" M 3905.2,3723.8 C 3904.95,3726.55 3904.2603,3729.1001 3903.1301,3731.4302 3902.0103,3733.77 3900.5701,3735.75 3898.8201,3737.3801 3897.0701,3739 3895.02,3740.27 3892.6899,3741.1902 3890.3501,3742.1101 3887.8899,3742.5703 3885.3098,3742.5703 3882.72,3742.5703 3880.2798,3742.1101 3877.99,3741.1902 3875.6899,3740.2703 3873.6699,3739.0005 3871.9199,3737.3801 3870.1699,3735.75 3868.75,3733.77 3867.6699,3731.4302 3866.5801,3729.1001 3865.9199,3726.55 3865.6599,3723.8 Z M 3845.77,3684.9001 C 3840.6802,3684.9001 3836.05,3685.7898 3831.8801,3687.5898 3827.7102,3689.3796 3824.1501,3691.8201 3821.1902,3694.9099 3818.2205,3697.99 3815.9302,3701.5798 3814.3005,3705.6599 3812.6804,3709.7498 3811.8704,3714.0798 3811.8704,3718.6699 3811.8704,3723.2598 3812.6804,3727.6199 3814.3005,3731.75 3815.9304,3735.8699 3818.2205,3739.5 3821.1902,3742.6301 3824.1504,3745.7603 3827.7102,3748.2102 3831.8801,3750.0103 3836.05,3751.8 3840.72,3752.7 3845.8904,3752.7 3850.9802,3752.7 3855.5903,3751.78 3859.7102,3749.95 3863.8403,3748.1101 3867.3601,3745.6699 3870.28,3742.6301 3873.2,3739.5801 3875.4402,3736.0403 3876.9802,3731.9902 3878.52,3727.9504 3879.2903,3723.7205 3879.2903,3719.3005 3879.2903,3718.3005 3879.2505,3717.3606 3879.1704,3716.4805 3879.0806,3715.6106 3879.0005,3714.8806 3878.9204,3714.2908 L 3826.5005,3714.2908 C 3826.7505,3711.3806 3827.4402,3708.7507 3828.5703,3706.4106 3829.6902,3704.0806 3831.1504,3702.0505 3832.9504,3700.3503 3834.7402,3698.6404 3836.7805,3697.3203 3839.0703,3696.4106 3841.3704,3695.4907 3843.7703,3695.0305 3846.2703,3695.0305 3848.1003,3695.0305 3849.9102,3695.2605 3851.7102,3695.7205 3853.5,3696.1704 3855.1501,3696.8403 3856.6501,3697.7205 3858.1501,3698.5903 3859.4802,3699.6602 3860.6602,3700.9102 3861.8203,3702.1602 3862.7402,3703.5403 3863.4001,3705.0403 L 3875.1602,3701.6602 C 3872.9102,3696.7402 3869.1802,3692.7102 3863.9705,3689.5903 3858.7603,3686.4602 3852.6902,3684.9004 3845.7703,3684.9004" style="fill:#FFFFFF;fill-opacity:1;stroke:none;" transform="matrix(1.3333,0,0,-1.3333,0,5333.3335)"/>
<path id="path40" d=" M 2473.1699,2111.02 C 2795.02,2111.02 3056.1599,1849.8799 3056.1599,1528.0599 3056.1599,1205.97 2795.02,945.04 2473.1699,945.04 2151.1001,945.04 1890.1799,1205.97 1890.1799,1528.0599 1890.1799,1849.8799 2151.0999,2111.02 2473.1699,2111.02 L 2473.1699,2111.02 Z" style="fill:#61CAD1;fill-opacity:1;stroke:none;" transform="matrix(1.3333,0,0,-1.3333,0,5333.3335)"/>
<path id="path42" d=" M 1135.35,2033.25 C 1256.5,1924.89 1689.7699,1557.9501 2000,1557.9501 2311.6902,1557.9501 2745.6802,1937.8401 2864.55,2047.7401 2741.4199,2148.45 2309.9099,2482.24 2000,2482.24 1685.7802,2482.24 1255.1801,2135.4099 1135.35,2033.25 Z M 2000,1477.58 C 1605.79,1477.58 1069.9901,1983.25 1047.37,2004.7699 1033.4901,2017.9799 1030.87,2039.16 1041.1,2055.3501 1048.79,2067.51 1119.7001,2125.21 1141.25,2142.6101 1193.51,2184.79 1276.03,2248.53 1372.41,2312.6101 1621.89,2478.5 1833.05,2562.6101 2000,2562.6101 2393.2302,2562.6101 2928.74,2099.6399 2951.3401,2079.9302 2966.29,2066.8901 2969.49,2044.9 2958.8801,2028.14 2950.5901,2015.04 2860.9402,1936.0201 2860.04,1935.2201 2807.75,1889.2802 2725.2,1819.8801 2628.9099,1750.1602 2379.1101,1569.2902 2167.51,1477.5802 2000,1477.5802" style="fill:#100F0D;fill-opacity:1;stroke:none;" transform="matrix(1.3333,0,0,-1.3333,0,5333.3335)"/>
<path id="path44" d=" M 1984.5699,2200.9302 C 1873.7699,2200.9302 1783.6399,2110.8 1783.6399,2000 1783.6399,1889.2001 1873.7699,1799.0699 1984.5699,1799.0699 2095.3699,1799.0699 2185.5,1889.2001 2185.5,2000 2185.5,2110.8 2095.3699,2200.9302 1984.5699,2200.9302 Z M 1984.5699,1718.7001 C 1829.46,1718.7001 1703.2699,1844.89 1703.2699,2000 1703.2699,2155.1101 1829.46,2281.3 1984.5699,2281.3 2139.6799,2281.3 2265.8699,2155.1101 2265.8699,2000 2265.8699,1844.89 2139.6799,1718.7001 1984.5699,1718.7001 Z" style="fill:#100F0D;fill-opacity:1;stroke:none;" transform="matrix(1.3333,0,0,-1.3333,0,5333.3335)"/>
<path id="path46" d=" M 2064.9402,2000 C 2064.9402,1955.61 2028.96,1919.6301 1984.5702,1919.6301 1940.1801,1919.6301 1904.1901,1955.6102 1904.1901,2000 1904.1901,2044.39 1940.1801,2080.3699 1984.5702,2080.3699 2028.9602,2080.3699 2064.9402,2044.3899 2064.9402,2000 Z" style="fill:#100F0D;fill-opacity:1;stroke:none;" transform="matrix(1.3333,0,0,-1.3333,0,5333.3335)"/>
<path id="path48" d=" M 1160.1,1276.65 1225.53,1240.86 C 1232.27,1237.1699 1237.8099,1231.63 1241.5,1224.89 L 1277.29,1159.46 1313.0701,1224.89 C 1316.7601,1231.63 1322.3,1237.1699 1329.04,1240.86 L 1394.4701,1276.65 1329.04,1312.4301 C 1322.3,1316.12 1316.7601,1321.66 1313.0701,1328.4 L 1277.29,1393.83 1241.5,1328.4 C 1237.8099,1321.66 1232.27,1316.12 1225.53,1312.4301 Z M 1342.7201,1071.3099 C 1328.03,1071.3099 1314.5101,1079.3199 1307.4601,1092.21 L 1242.0701,1211.78 1122.5,1277.17 C 1109.61,1284.2201 1101.6,1297.7401 1101.6,1312.4301 1101.6,1327.11 1109.61,1340.63 1122.5,1347.6801 L 1242.0701,1413.0701 1307.4601,1532.64 C 1314.5101,1545.5302 1328.0302,1553.54 1342.7201,1553.54 1357.4,1553.54 1370.92,1545.5302 1377.9701,1532.64 L 1443.3601,1413.0701 1562.9301,1347.6801 C 1575.8301,1340.63 1583.8401,1327.11 1583.8401,1312.4301 1583.8401,1297.74 1575.8301,1284.2201 1562.9301,1277.17 L 1443.3601,1211.78 1377.9701,1092.21 C 1370.92,1079.3199 1357.4,1071.3099 1342.7201,1071.3099 Z" style="fill:#100F0D;fill-opacity:1;stroke:none;" transform="matrix(1.3333,0,0,-1.3333,0,5333.3335)"/>
<path id="path50" d=" M 2606.8101,2723.3501 2672.24,2687.5701 C 2678.9802,2683.8799 2684.53,2678.3398 2688.21,2671.6001 L 2724,2606.1699 2759.78,2671.6001 C 2763.4702,2678.3401 2769.0103,2683.8801 2775.75,2687.5701 L 2841.1802,2723.3501 2775.75,2759.1401 C 2769.01,2762.8201 2763.47,2768.3701 2759.78,2775.1101 L 2724,2840.54 2688.21,2775.1101 C 2684.53,2768.3699 2678.98,2762.8201 2672.24,2759.1401 Z M 2724,2482.24 C 2709.3101,2482.24 2695.79,2490.25 2688.74,2503.1401 L 2623.3501,2622.71 2503.78,2688.1001 C 2490.8901,2695.1501 2482.8801,2708.6699 2482.8801,2723.3501 2482.8801,2738.04 2490.8901,2751.5601 2503.78,2758.6101 L 2623.3501,2824 2688.74,2943.5701 C 2695.79,2956.46 2709.3101,2964.47 2724,2964.47 2738.6902,2964.47 2752.21,2956.46 2759.25,2943.5701 L 2824.6501,2824 2944.21,2758.6101 C 2957.1001,2751.5601 2965.1199,2738.04 2965.1199,2723.3501 2965.1199,2708.6699 2957.1001,2695.1501 2944.21,2688.1001 L 2824.6501,2622.71 2759.25,2503.1401 C 2752.21,2490.25 2738.6902,2482.24 2724,2482.24 Z" style="fill:#100F0D;fill-opacity:1;stroke:none;" transform="matrix(1.3333,0,0,-1.3333,0,5333.3335)"/>
<path id="path52" d=" M 1297.38,2723.3501 C 1264.14,2723.3501 1237.1,2696.3101 1237.1,2663.0801 1237.1,2629.8301 1264.14,2602.79 1297.38,2602.79 1330.62,2602.79 1357.66,2629.8301 1357.66,2663.0801 1357.66,2696.3103 1330.62,2723.3501 1297.38,2723.3501 Z M 1297.38,2522.4199 C 1219.8201,2522.4199 1156.73,2585.52 1156.73,2663.0798 1156.73,2740.6299 1219.8201,2803.73 1297.38,2803.73 1374.9301,2803.73 1438.03,2740.6299 1438.03,2663.0798 1438.03,2585.52 1374.9301,2522.4199 1297.38,2522.4199 Z" style="fill:#100F0D;fill-opacity:1;stroke:none;" transform="matrix(1.3333,0,0,-1.3333,0,5333.3335)"/>
<path id="path54" d=" M 2663.72,1397.21 C 2630.48,1397.21 2603.4399,1370.1699 2603.4399,1336.9199 2603.4399,1303.6899 2630.48,1276.6499 2663.72,1276.6499 2696.96,1276.6499 2724,1303.6899 2724,1336.9199 2724,1370.1699 2696.96,1397.21 2663.72,1397.21 Z M 2663.72,1196.2699 C 2586.1599,1196.2699 2523.0701,1259.37 2523.0701,1336.9199 2523.0701,1414.4799 2586.1599,1477.58 2663.72,1477.58 2741.27,1477.58 2804.3699,1414.4799 2804.3699,1336.9199 2804.3699,1259.37 2741.27,1196.2699 2663.72,1196.2699 Z" style="fill:#100F0D;fill-opacity:1;stroke:none;" transform="matrix(1.3333,0,0,-1.3333,0,5333.3335)"/>
</g>
</svg>
