<svg xmlns="http://www.w3.org/2000/svg" xmlns:psvg="http://www.paintersvg.com/namespace.html" width="5333.333" height="5333.333"><g psvg:layer="layer2"><path d="M3074.94 3698.53v-12.38h-47.79v12.38h17.77v43.66c-.75-1-1.92-2.04-3.5-3.13a40.429 40.429 0 0 0-5.26-3c-1.92-.92-3.92-1.69-6-2.31-2.09-.63-3.92-.94-5.51-.94v12.88c1.67 0 3.61.5 5.82 1.5a48.33 48.33 0 0 1 6.38 3.51c2.04 1.33 3.83 2.66 5.38 4 1.54 1.33 2.44 2.29 2.69 2.88h14.13v-59.05h15.89M3140.62 3722.8c0 3.75-.44 7.17-1.32 10.26-.87 3.08-2.12 5.75-3.75 8-1.62 2.25-3.54 3.99-5.76 5.2-2.2 1.2-4.6 1.81-7.19 1.81-2.75 0-5.23-.61-7.44-1.81-2.21-1.21-4.13-2.95-5.76-5.2-1.62-2.25-2.87-4.92-3.75-8-.87-3.09-1.31-6.51-1.31-10.26s.44-7.17 1.31-10.26c.88-3.08 2.13-5.73 3.75-7.94 1.63-2.21 3.55-3.92 5.76-5.13s4.69-1.81 7.44-1.81c2.59 0 4.99.6 7.19 1.81 2.22 1.21 4.14 2.92 5.76 5.13 1.63 2.21 2.88 4.86 3.75 7.94.88 3.09 1.32 6.51 1.32 10.26Zm14.01 0c0-5.5-.82-10.57-2.44-15.2-1.63-4.63-3.88-8.63-6.76-12.01-2.87-3.38-6.25-6-10.13-7.88-3.88-1.87-8.11-2.81-12.7-2.81-4.58 0-8.84.94-12.76 2.81-3.92 1.88-7.3 4.5-10.13 7.88-2.83 3.38-5.07 7.38-6.69 12.01-1.63 4.63-2.44 9.7-2.44 15.2 0 5.51.81 10.57 2.44 15.2 1.62 4.63 3.86 8.63 6.69 12.01 2.83 3.38 6.21 6.02 10.13 7.94 3.92 1.92 8.18 2.88 12.76 2.88 4.59 0 8.82-.96 12.7-2.88 3.88-1.92 7.26-4.56 10.13-7.94 2.88-3.38 5.13-7.38 6.76-12.01 1.62-4.63 2.44-9.69 2.44-15.2ZM3223.68 3722.8c0 3.75-.44 7.17-1.32 10.26-.87 3.08-2.12 5.75-3.75 8-1.62 2.25-3.54 3.99-5.75 5.2-2.21 1.2-4.61 1.81-7.2 1.81-2.74 0-5.23-.61-7.44-1.81-2.21-1.21-4.13-2.95-5.75-5.2-1.63-2.25-2.88-4.92-3.75-8-.88-3.09-1.32-6.51-1.32-10.26s.44-7.17 1.32-10.26c.87-3.08 2.12-5.73 3.75-7.94 1.62-2.21 3.54-3.92 5.75-5.13s4.7-1.81 7.44-1.81c2.59 0 4.99.6 7.2 1.81s4.13 2.92 5.75 5.13c1.63 2.21 2.88 4.86 3.75 7.94.88 3.09 1.32 6.51 1.32 10.26Zm14.01 0c0-5.5-.81-10.57-2.44-15.2-1.63-4.63-3.88-8.63-6.75-12.01-2.88-3.38-6.26-6-10.14-7.88-3.88-1.87-8.11-2.81-12.7-2.81-4.58 0-8.83.94-12.75 2.81-3.93 1.88-7.3 4.5-10.14 7.88-2.83 3.38-5.06 7.38-6.69 12.01-1.63 4.63-2.44 9.7-2.44 15.2 0 5.51.81 10.57 2.44 15.2 1.63 4.63 3.86 8.63 6.69 12.01 2.84 3.38 6.21 6.02 10.14 7.94 3.92 1.92 8.17 2.88 12.75 2.88 4.59 0 8.82-.96 12.7-2.88 3.88-1.92 7.26-4.56 10.14-7.94 2.87-3.38 5.12-7.38 6.75-12.01s2.44-9.69 2.44-15.2ZM3320.76 3692.03c2.83 0 5.23 1.12 7.19 3.38 1.96 2.25 2.94 4.96 2.94 8.13 0 1.58-.27 3.06-.81 4.44-.55 1.37-1.3 2.58-2.26 3.62-.95 1.05-2.04 1.86-3.25 2.44-1.21.59-2.48.88-3.81.88-1.42 0-2.74-.31-3.94-.94-1.21-.62-2.28-1.46-3.19-2.5-.92-1.04-1.65-2.25-2.19-3.63-.55-1.37-.81-2.81-.81-4.31 0-1.59.26-3.09.81-4.51.54-1.42 1.27-2.65 2.19-3.69a10.07 10.07 0 0 1 3.19-2.44c1.2-.58 2.52-.87 3.94-.87Zm0-7.13c-2.76 0-5.34.48-7.76 1.44-2.42.95-4.52 2.29-6.32 4a19.413 19.413 0 0 0-4.25 5.94c-1.04 2.25-1.57 4.67-1.57 7.26 0 2.58.53 5 1.57 7.25a18.69 18.69 0 0 0 4.25 5.88c1.8 1.67 3.9 2.98 6.32 3.94 2.42.96 5 1.44 7.76 1.44 2.75 0 5.33-.48 7.75-1.44s4.53-2.27 6.32-3.94 3.21-3.63 4.25-5.88c1.05-2.25 1.56-4.67 1.56-7.25 0-2.59-.51-5.01-1.56-7.26a19.41 19.41 0 0 0-4.25-5.94c-1.79-1.71-3.9-3.05-6.32-4-2.42-.96-5-1.44-7.75-1.44Zm-46.04 61.29c1.42 0 2.73.32 3.94.94 1.21.63 2.27 1.46 3.19 2.5a12.3 12.3 0 0 1 2.19 3.63c.539 1.38.81 2.82.81 4.32 0 1.58-.27 3.08-.81 4.5s-1.27 2.65-2.19 3.69c-.92 1.04-2 1.86-3.25 2.44-1.25.58-2.55.88-3.88.88-2.84 0-5.231-1.15-7.19-3.44-1.96-2.3-2.94-4.99-2.94-8.07 0-1.59.27-3.07.81-4.44.54-1.38 1.269-2.59 2.19-3.63a9.877 9.877 0 0 1 3.19-2.44c1.209-.59 2.52-.88 3.94-.88Zm-14.26-55.04 35.15 41.66 33.03 42.9 6.5-5.62-34.52-41.16-33.78-43.53Zm20.64 42.16c-2.75 0-5.34.48-7.76 1.44-2.41.96-4.52 2.27-6.31 3.94-1.8 1.67-3.21 3.63-4.25 5.88-1.05 2.25-1.57 4.67-1.57 7.26 0 2.58.52 5 1.57 7.25 1.04 2.26 2.45 4.23 4.25 5.95 1.79 1.7 3.9 3.04 6.31 4 2.42.96 5.01 1.44 7.76 1.44s5.34-.48 7.76-1.44c2.41-.96 4.52-2.3 6.31-4 1.8-1.72 3.21-3.69 4.26-5.95 1.04-2.25 1.56-4.67 1.56-7.25 0-2.59-.52-5.01-1.56-7.26-1.05-2.25-2.46-4.21-4.26-5.88-1.79-1.67-3.9-2.98-6.31-3.94-2.42-.96-5.01-1.44-7.76-1.44ZM3459.48 3698.53v-12.38h-60.92v88.82h59.8v-12.39h-45.79v-25.27h39.66v-11.63h-39.66v-27.15h46.91M3505.52 3696.66c2 0 4 .33 6 1 2.01.66 3.84 1.58 5.51 2.75a19.26 19.26 0 0 1 4.32 4.13c1.2 1.58 2.06 3.29 2.56 5.13v17.13c-.75 2.09-1.82 4.01-3.19 5.76a22.692 22.692 0 0 1-4.69 4.5 21.542 21.542 0 0 1-5.57 2.88c-1.96.67-3.94 1-5.94 1-2.75 0-5.28-.63-7.57-1.88s-4.27-2.92-5.939-5c-1.67-2.09-2.98-4.46-3.94-7.13a24.22 24.22 0 0 1-1.44-8.26c0-3 .52-5.84 1.56-8.5 1.05-2.68 2.48-5.01 4.32-7.01 1.83-2 3.94-3.59 6.32-4.75 2.38-1.17 4.94-1.75 7.69-1.75Zm-3.379-11.76c-4.42 0-8.5.89-12.26 2.69-3.75 1.79-7 4.23-9.75 7.32-2.76 3.08-4.91 6.69-6.45 10.82-1.54 4.12-2.31 8.56-2.31 13.32 0 4.58.73 8.9 2.19 12.94 1.45 4.05 3.5 7.61 6.13 10.7 2.62 3.09 5.71 5.52 9.26 7.32 3.54 1.79 7.44 2.69 11.69 2.69 5.25 0 9.88-1.27 13.89-3.82 4-2.54 7.13-5.77 9.38-9.69v38.28h13.76v-75.06c0-1.58.27-2.71.81-3.38.54-.67 1.52-1.04 2.95-1.12v-11.76c-1.43-.25-2.57-.42-3.45-.5-.87-.09-1.6-.13-2.18-.13-2.76 0-5.01.71-6.76 2.13-1.75 1.41-2.71 3.25-2.88 5.5l-.25 4.88c-2.42-4.09-5.71-7.3-9.88-9.63-4.17-2.34-8.8-3.5-13.89-3.5M3561.44 3686.15v65.42h13.76v-65.42Zm13.76 76.18v15.14h13.76v-15.14h-13.76ZM3634.37 3689.52c-1.75-.83-4.17-1.77-7.26-2.81-3.08-1.04-6.37-1.56-9.88-1.56-2.17 0-4.21.29-6.13.87-1.92.58-3.6 1.46-5.06 2.63-1.46 1.17-2.61 2.69-3.44 4.56-.84 1.88-1.25 4.15-1.25 6.82v40.91h-8.64v10.63h8.64v21.52h13.76v-21.52h14.26v-10.63h-14.26v-36.53c.16-2.33.89-4.02 2.18-5.06 1.3-1.05 2.9-1.57 4.82-1.57 1.92 0 3.75.33 5.51 1 1.75.67 3.04 1.21 3.87 1.63l2.88-10.89ZM3671.27 3695.03c3.34 0 6.48.6 9.45 1.81 2.96 1.21 5.27 2.9 6.94 5.07 1.75 1.5 2.63 3.08 2.63 4.75v8.63c-2.34.92-4.82 1.63-7.45 2.13s-5.19.75-7.69.75c-4.92 0-8.94-1.06-12.07-3.19-3.13-2.12-4.69-4.94-4.69-8.44 0-3.25 1.2-5.99 3.63-8.2 2.41-2.21 5.5-3.31 9.25-3.31Zm-3.75-10.13c-3.17 0-6.11.52-8.82 1.56s-5.05 2.48-7.01 4.32c-1.95 1.83-3.5 4-4.62 6.5-1.13 2.5-1.69 5.21-1.69 8.13 0 3.09.66 5.88 2 8.38 1.33 2.51 3.23 4.67 5.69 6.51 2.46 1.83 5.38 3.25 8.76 4.25s7.11 1.5 11.19 1.5c3.09 0 6.14-.269 9.14-.81 3-.54 5.71-1.27 8.13-2.19v4.5c0 4.84-1.38 8.61-4.13 11.33-2.75 2.7-6.72 4.061-11.88 4.061-3.51 0-6.95-.65-10.32-1.94-3.38-1.29-6.87-3.15-10.45-5.56l-4.25 8.75c8.42 5.67 17.18 8.51 26.27 8.51 9 0 16.01-2.3 21.01-6.88 5.01-4.59 7.51-11.18 7.51-19.77v-23.64c0-2.92 1.2-4.42 3.63-4.5v-11.76c-1.34-.25-2.48-.42-3.45-.5-.95-.09-1.89-.13-2.81-.13-2.67 0-4.74.67-6.19 2-1.46 1.34-2.36 3.05-2.69 5.13l-.38 4.13c-2.92-3.84-6.52-6.77-10.82-8.82-4.29-2.04-8.9-3.06-13.82-3.06M3758.59 3696.66c3 0 5.75.6 8.26 1.81 2.5 1.21 4.64 2.81 6.44 4.82 1.79 2 3.18 4.31 4.19 6.94 1 2.63 1.5 5.4 1.5 8.32 0 2.91-.48 5.73-1.44 8.44-.96 2.71-2.3 5.09-4 7.13a20.146 20.146 0 0 1-6.13 4.94c-2.38 1.25-4.99 1.88-7.82 1.88-4.25 0-8.03-1.38-11.32-4.13-3.3-2.75-5.82-6.09-7.57-10.01v-17.26c.5-1.92 1.38-3.65 2.63-5.19 1.25-1.54 2.71-2.9 4.38-4.07 1.66-1.17 3.45-2.06 5.37-2.69 1.92-.62 3.76-.93 5.51-.93Zm3.63-11.76c-5.01 0-9.53 1.18-13.58 3.56-4.05 2.38-7.23 5.57-9.57 9.57v-11.88h-12.13v91.32h13.76v-38.28c2.58 4.17 5.81 7.46 9.7 9.88 3.87 2.42 8.44 3.63 13.69 3.63 4.34 0 8.3-.94 11.89-2.81 3.58-1.88 6.65-4.38 9.19-7.51 2.54-3.13 4.5-6.76 5.88-10.89 1.38-4.12 2.07-8.44 2.07-12.94 0-4.67-.8-9.05-2.38-13.14-1.59-4.08-3.76-7.65-6.51-10.69-2.75-3.05-6.02-5.44-9.82-7.2-3.79-1.75-7.86-2.62-12.19-2.62M3811.88 3777.47h13.76v-72.43c0-2.42.62-4.32 1.87-5.69 1.25-1.38 3.01-2.07 5.26-2.07.92 0 1.98.17 3.19.5 1.21.33 2.36.71 3.44 1.13l2-10.76c-2-.92-4.38-1.65-7.13-2.19s-5.21-.81-7.38-.81c-4.76 0-8.44 1.29-11.07 3.88-2.63 2.58-3.94 6.25-3.94 11v77.44Z" style="fill:#fff;fill-opacity:1;stroke:none" transform="matrix(1.3333 0 0 -1.3333 0 5333.333)"/><path d="M3905.2 3723.8c-.25 2.75-.94 5.3-2.07 7.63-1.12 2.34-2.56 4.32-4.31 5.95-1.75 1.62-3.8 2.89-6.13 3.81-2.34.92-4.8 1.38-7.38 1.38-2.59 0-5.03-.46-7.32-1.38-2.3-.92-4.32-2.19-6.07-3.81-1.75-1.63-3.17-3.61-4.25-5.95-1.09-2.33-1.75-4.88-2.01-7.63Zm-59.43-38.9c-5.09 0-9.72.89-13.89 2.69-4.17 1.79-7.73 4.23-10.69 7.32-2.97 3.08-5.26 6.67-6.89 10.75-1.62 4.09-2.43 8.42-2.43 13.01s.81 8.95 2.43 13.08c1.63 4.12 3.92 7.75 6.89 10.88 2.96 3.13 6.52 5.58 10.69 7.38 4.17 1.79 8.84 2.69 14.01 2.69 5.09 0 9.7-.92 13.82-2.75 4.13-1.84 7.65-4.28 10.57-7.32 2.92-3.05 5.16-6.59 6.7-10.64 1.54-4.04 2.31-8.27 2.31-12.69 0-1-.04-1.94-.12-2.82-.09-.87-.17-1.6-.25-2.19h-52.42c.25-2.91.94-5.54 2.07-7.88 1.12-2.33 2.58-4.36 4.38-6.06 1.79-1.71 3.83-3.03 6.12-3.94 2.3-.92 4.7-1.38 7.2-1.38 1.83 0 3.64.23 5.44.69 1.79.45 3.44 1.12 4.94 2 1.5.87 2.83 1.94 4.01 3.19 1.16 1.25 2.08 2.63 2.74 4.13l11.76-3.38c-2.25-4.92-5.98-8.95-11.19-12.07-5.21-3.13-11.28-4.69-18.2-4.69" style="fill:#fff;fill-opacity:1;stroke:none" transform="matrix(1.3333 0 0 -1.3333 0 5333.333)"/><path d="M2473.17 2111.02c321.85 0 582.99-261.14 582.99-582.96 0-322.09-261.14-583.02-582.99-583.02-322.07 0-582.99 260.93-582.99 583.02 0 321.82 260.92 582.96 582.99 582.96Z" style="fill:#61cad1;fill-opacity:1;stroke:none" transform="matrix(1.3333 0 0 -1.3333 0 5333.333)"/><path d="M1135.35 2033.25c121.15-108.36 554.42-475.3 864.65-475.3 311.69 0 745.68 379.89 864.55 489.79-123.13 100.71-554.64 434.5-864.55 434.5-314.22 0-744.82-346.83-864.65-448.99ZM2000 1477.58c-394.21 0-930.01 505.67-952.63 527.19-13.88 13.21-16.5 34.39-6.27 50.58 7.69 12.16 78.6 69.86 100.15 87.26 52.26 42.18 134.78 105.92 231.16 170 249.48 165.89 460.64 250 627.59 250 393.23 0 928.74-462.97 951.34-482.68 14.95-13.04 18.15-35.03 7.54-51.79-8.29-13.1-97.94-92.12-98.84-92.92-52.29-45.94-134.84-115.34-231.13-185.06-249.8-180.87-461.4-272.58-628.91-272.58" style="fill:#100f0d;fill-opacity:1;stroke:none" transform="matrix(1.3333 0 0 -1.3333 0 5333.333)"/><path d="M1984.57 2200.93c-110.8 0-200.93-90.13-200.93-200.93 0-110.8 90.13-200.93 200.93-200.93 110.8 0 200.93 90.13 200.93 200.93 0 110.8-90.13 200.93-200.93 200.93Zm0-482.23c-155.11 0-281.3 126.19-281.3 281.3s126.19 281.3 281.3 281.3 281.3-126.19 281.3-281.3-126.19-281.3-281.3-281.3Z" style="fill:#100f0d;fill-opacity:1;stroke:none" transform="matrix(1.3333 0 0 -1.3333 0 5333.333)"/><path d="M2064.94 2000c0-44.39-35.98-80.37-80.37-80.37-44.39 0-80.38 35.98-80.38 80.37 0 44.39 35.99 80.37 80.38 80.37 44.39 0 80.37-35.98 80.37-80.37ZM1160.1 1276.65l65.43-35.79a40.229 40.229 0 0 0 15.97-15.97l35.79-65.43 35.78 65.43a40.228 40.228 0 0 0 15.97 15.97l65.43 35.79-65.43 35.78a40.226 40.226 0 0 0-15.97 15.97l-35.78 65.43-35.79-65.43a40.227 40.227 0 0 0-15.97-15.97Zm182.62-205.34c-14.69 0-28.21 8.01-35.26 20.9l-65.39 119.57-119.57 65.39a40.185 40.185 0 0 0 0 70.51l119.57 65.39 65.39 119.57a40.184 40.184 0 0 0 70.51 0l65.39-119.57 119.57-65.39a40.17 40.17 0 0 0 20.91-35.25c0-14.69-8.01-28.21-20.91-35.26l-119.57-65.39-65.39-119.57a40.18 40.18 0 0 0-35.25-20.9ZM2606.81 2723.35l65.43-35.78a40.166 40.166 0 0 0 15.97-15.97l35.79-65.43 35.78 65.43a40.23 40.23 0 0 0 15.97 15.97l65.43 35.78-65.43 35.79a40.164 40.164 0 0 0-15.97 15.97l-35.78 65.43-35.79-65.43a40.1 40.1 0 0 0-15.97-15.97ZM2724 2482.24c-14.69 0-28.21 8.01-35.26 20.9l-65.39 119.57-119.57 65.39a40.185 40.185 0 0 0 0 70.51l119.57 65.39 65.39 119.57a40.185 40.185 0 0 0 35.26 20.9c14.69 0 28.21-8.01 35.25-20.9l65.4-119.57 119.56-65.39a40.193 40.193 0 0 0 20.91-35.26c0-14.68-8.02-28.2-20.91-35.25l-119.56-65.39-65.4-119.57a40.157 40.157 0 0 0-35.25-20.9ZM1297.38 2723.35c-33.24 0-60.28-27.04-60.28-60.27 0-33.25 27.04-60.29 60.28-60.29s60.28 27.04 60.28 60.29c0 33.23-27.04 60.27-60.28 60.27Zm0-200.93c-77.56 0-140.65 63.1-140.65 140.66 0 77.55 63.09 140.65 140.65 140.65 77.55 0 140.65-63.1 140.65-140.65 0-77.56-63.1-140.66-140.65-140.66ZM2663.72 1397.21c-33.24 0-60.28-27.04-60.28-60.29 0-33.23 27.04-60.27 60.28-60.27s60.28 27.04 60.28 60.27c0 33.25-27.04 60.29-60.28 60.29Zm0-200.94c-77.56 0-140.65 63.1-140.65 140.65 0 77.56 63.09 140.66 140.65 140.66 77.55 0 140.65-63.1 140.65-140.66 0-77.55-63.1-140.65-140.65-140.65Z" style="fill:#100f0d;fill-opacity:1;stroke:none" transform="matrix(1.3333 0 0 -1.3333 0 5333.333)"/></g></svg>