<?xml version="1.0" encoding="UTF-8" standalone="no"?>
<!-- Created with Inkscape (http://www.inkscape.org/) -->

<svg
   version="1.1"
   id="svg2"
   xml:space="preserve"
   width="5333.3335"
   height="5333.3335"
   viewBox="0 0 5333.3335 5333.3335"
   sodipodi:docname="vecteezy_chat-chatting-security-secure-abstract-circle-background_13179851.eps"
   xmlns:inkscape="http://www.inkscape.org/namespaces/inkscape"
   xmlns:sodipodi="http://sodipodi.sourceforge.net/DTD/sodipodi-0.dtd"
   xmlns="http://www.w3.org/2000/svg"
   xmlns:svg="http://www.w3.org/2000/svg"><defs
     id="defs6" /><sodipodi:namedview
     id="namedview4"
     pagecolor="#ffffff"
     bordercolor="#666666"
     borderopacity="1.0"
     inkscape:pageshadow="2"
     inkscape:pageopacity="0.0"
     inkscape:pagecheckerboard="0" /><g
     id="g8"
     inkscape:groupmode="layer"
     inkscape:label="ink_ext_XXXXXX"
     transform="matrix(1.3333333,0,0,-1.3333333,0,5333.3333)"><g
       id="g10"
       transform="scale(0.1)"><path
         d="M 40000,0 H 0 V 40000 H 40000 V 0"
         style="fill:#ffffff;fill-opacity:1;fill-rule:nonzero;stroke:none"
         id="path12" /><path
         d="m 30716.7,5397.9 c 0,249.7 -4798.1,452.1 -10716.9,452.1 -5918.4,0 -10716.43,-202.4 -10716.43,-452.1 0,-249.8 4798.03,-452.2 10716.43,-452.2 5918.8,0 10716.9,202.4 10716.9,452.2"
         style="fill:#f1f0f0;fill-opacity:1;fill-rule:nonzero;stroke:none"
         id="path14" /><path
         d="m 32149.4,20000 c 0,6709.9 -5439.4,12149.4 -12149.4,12149.4 -6710,0 -12149.41,-5439.5 -12149.41,-12149.4 0,-6710 5439.41,-12149.4 12149.41,-12149.4 6710,0 12149.4,5439.4 12149.4,12149.4"
         style="fill:#e6e0c0;fill-opacity:1;fill-rule:nonzero;stroke:none"
         id="path16" /><path
         d="m 24157.5,18043.4 v -1956.1 h -2934.6 v -2445.8 l -3913.1,2445.8 H 8994.68 v 9782.4 h 6847.72 v -7826.3 h 8315.1"
         style="fill:#e4f6f8;fill-opacity:1;fill-rule:nonzero;stroke:none"
         id="path18" /><path
         d="m 9434.96,25429.2 h 6407.44 v 440.5 H 8994.68 v -9782.4 h 440.28 v 9341.9"
         style="fill:#c8e4df;fill-opacity:1;fill-rule:nonzero;stroke:none"
         id="path20" /><path
         d="m 31005.3,27826.3 v -9782.9 h -6847.8 v 7826.3 h -8315.1 v 1956.6 h 8804.4 l 3912.9,2445.4 v -2445.4 h 2445.6"
         style="fill:#91a4a0;fill-opacity:1;fill-rule:nonzero;stroke:none"
         id="path22" /><path
         d="m 16258.2,27410.6 h 8804.3 l 3497.2,2185.6 v 675.5 l -3912.9,-2445.4 h -8804.4 v -1956.6 h 415.8 v 1540.9"
         style="fill:#788a8a;fill-opacity:1;fill-rule:nonzero;stroke:none"
         id="path24" /><path
         d="m 15842.4,25869.7 v -7826.3 h 8315.1 v 7826.3 h -8315.1"
         style="fill:#4f5da8;fill-opacity:1;fill-rule:nonzero;stroke:none"
         id="path26" /><path
         d="m 16315.1,25413.1 h 7842.4 v 456.6 h -8315.1 v -7826.3 h 472.7 v 7369.7"
         style="fill:#3c4d8d;fill-opacity:1;fill-rule:nonzero;stroke:none"
         id="path28" /><path
         d="m 21712,22141 v -1480.7 c 0,-364.6 -295.5,-660.3 -660.3,-660.3 h -2281.3 c -364.4,0 -660.3,295.7 -660.3,660.3 V 22141 c 0,365.1 295.9,660.3 660.3,660.3 h 140.2 2001.2 139.9 c 364.8,0 660.3,-295.2 660.3,-660.3"
         style="fill:#fcd399;fill-opacity:1;fill-rule:nonzero;stroke:none"
         id="path30" /><path
         d="m 18509.5,20203.7 v 1480.6 c 0,365.2 295.9,660.4 660.3,660.4 h 140.5 2000.9 139.8 c 85.3,0 166.5,-16.6 241.2,-46 -70.9,288.8 -330.2,502.6 -640.5,502.6 h -139.9 -2001.2 -140.2 c -364.4,0 -660.3,-295.2 -660.3,-660.3 v -1480.7 c 0,-279.5 174,-517.8 419.1,-613.9 -12.4,50.6 -19.7,103.1 -19.7,157.3"
         style="fill:#e8b67a;fill-opacity:1;fill-rule:nonzero;stroke:none"
         id="path32" /><path
         d="m 13885.9,24891.2 v -978.1 h -978.3 v 978.1 h 978.3"
         style="fill:#100f0d;fill-opacity:1;fill-rule:nonzero;stroke:none"
         id="path34" /><path
         d="m 12418.6,24891.2 v -978.1 h -978.3 v 978.1 h 978.3"
         style="fill:#100f0d;fill-opacity:1;fill-rule:nonzero;stroke:none"
         id="path36" /><path
         d="m 10951.2,24891.2 v -978.1 h -978.23 v 978.1 h 978.23"
         style="fill:#100f0d;fill-opacity:1;fill-rule:nonzero;stroke:none"
         id="path38" /><path
         d="m 16087.1,18288 h 14673.8 v 9293.7 h -2201.2 c -134.9,0 -244.6,109.4 -244.6,244.6 v 2004.4 l -3538.6,-2211.8 c -39.1,-24.4 -83.9,-37.2 -129.7,-37.2 h -8559.7 z m 14918.2,-488.7 H 15842.4 c -135.1,0 -244.5,109.4 -244.5,244.1 v 9782.9 c 0,134.7 109.4,244.6 244.5,244.6 h 8734.3 l 3853.4,2408.1 c 75.4,47.4 170.5,49.7 248.3,6.5 77.7,-42.8 125.9,-124.6 125.9,-213.8 v -2200.8 h 2201 c 135.2,0 244.7,-109.9 244.7,-244.6 v -9782.9 c 0,-134.7 -109.5,-244.1 -244.7,-244.1"
         style="fill:#100f0d;fill-opacity:1;fill-rule:nonzero;stroke:none"
         id="path40" /><path
         d="m 9239.31,16331.5 h 8070.49 c 46,0 90.8,-12.9 129.7,-36.8 l 3538.8,-2211.8 v 2004.4 c 0,134.7 109.4,244.2 244.6,244.2 h 2690.2 V 25625 H 9239.31 Z M 21222.9,13396.8 c -45.1,0 -90.1,12.4 -129.6,37.3 l -3853.7,2408.6 H 8994.68 c -134.96,0 -244.63,109.4 -244.63,244.6 v 9782.4 c 0,135.2 109.67,244.7 244.63,244.7 H 24157.5 c 135.2,0 244.7,-109.5 244.7,-244.7 v -9782.4 c 0,-135.2 -109.5,-244.6 -244.7,-244.6 h -2690.2 v -2201.2 c 0,-88.8 -48,-170.6 -126,-213.9 -36.8,-20.7 -77.7,-30.8 -118.4,-30.8"
         style="fill:#100f0d;fill-opacity:1;fill-rule:nonzero;stroke:none"
         id="path42" /><path
         d="M 29049,9483.7 H 9483.72 c -134.97,0 -244.41,109.9 -244.41,244.7 0,135.1 109.44,244.5 244.41,244.5 H 29049 c 134.9,0 244.4,-109.4 244.4,-244.5 0,-134.8 -109.5,-244.7 -244.4,-244.7"
         style="fill:#100f0d;fill-opacity:1;fill-rule:nonzero;stroke:none"
         id="path44" /><path
         d="M 30516.3,11440.3 H 10951.2 c -135.1,0 -244.6,109.4 -244.6,244.6 0,135.2 109.5,244.6 244.6,244.6 h 19565.1 c 135,0 244.6,-109.4 244.6,-244.6 0,-135.2 -109.6,-244.6 -244.6,-244.6"
         style="fill:#100f0d;fill-opacity:1;fill-rule:nonzero;stroke:none"
         id="path46" /><path
         d="m 21051.7,19755.4 h -2281.3 c -499.1,0 -904.9,406 -904.9,904.9 V 22141 c 0,498.8 405.8,904.9 904.9,904.9 h 140.2 c 135.2,0 244.7,-109.5 244.7,-244.6 0,-135.2 -109.5,-244.7 -244.7,-244.7 h -140.2 c -229.2,0 -415.9,-186.2 -415.9,-415.6 v -1480.7 c 0,-229 186.7,-415.7 415.9,-415.7 h 2281.3 c 229.2,0 415.6,186.7 415.6,415.7 V 22141 c 0,229.4 -186.4,415.6 -415.6,415.6 h -139.9 c -135.1,0 -244.6,109.5 -244.6,244.7 0,135.1 109.5,244.6 244.6,244.6 h 139.9 c 498.8,0 904.9,-406.1 904.9,-904.9 v -1480.7 c 0,-498.9 -406.1,-904.9 -904.9,-904.9"
         style="fill:#100f0d;fill-opacity:1;fill-rule:nonzero;stroke:none"
         id="path48" /><path
         d="m 19155.3,23045.9 h 1511.9 v 459.9 c 0,359.5 -292.7,652 -652.5,652 h -207.4 c -359.5,0 -652,-292.5 -652,-652 z m 1756.5,-489.3 h -2001.2 c -134.9,0 -244.3,109.5 -244.3,244.7 v 704.5 c 0,629 511.8,1141.2 1141,1141.2 h 207.4 c 629.5,0 1141.6,-512.2 1141.6,-1141.2 v -704.5 c 0,-135.2 -109.5,-244.7 -244.5,-244.7"
         style="fill:#100f0d;fill-opacity:1;fill-rule:nonzero;stroke:none"
         id="path50" /></g></g></svg>
