<?xml version="1.0" encoding="UTF-8" standalone="no"?>
<!-- Created with Inkscape (http://www.inkscape.org/) -->

<svg
   version="1.1"
   id="svg2"
   xml:space="preserve"
   width="5333.3335"
   height="5333.3335"
   viewBox="0 0 5333.3335 5333.3335"
   sodipodi:docname="vecteezy_freedom-hand-human-power-strength-blue-icon-on-abstract_13291955.eps"
   xmlns:inkscape="http://www.inkscape.org/namespaces/inkscape"
   xmlns:sodipodi="http://sodipodi.sourceforge.net/DTD/sodipodi-0.dtd"
   xmlns="http://www.w3.org/2000/svg"
   xmlns:svg="http://www.w3.org/2000/svg"><defs
     id="defs6" /><sodipodi:namedview
     id="namedview4"
     pagecolor="#ffffff"
     bordercolor="#666666"
     borderopacity="1.0"
     inkscape:pageshadow="2"
     inkscape:pageopacity="0.0"
     inkscape:pagecheckerboard="0" /><g
     id="g8"
     inkscape:groupmode="layer"
     inkscape:label="ink_ext_XXXXXX"
     transform="matrix(1.3333333,0,0,-1.3333333,0,5333.3333)"><g
       id="g10"
       transform="scale(0.1)"><path
         d="M 0,40000 H 40000 V 0 H 0 v 40000"
         style="fill:#ffffff;fill-opacity:1;fill-rule:evenodd;stroke:none"
         id="path12" /><path
         d="m 31627.4,18029.9 c 188.3,-1759.4 -618,-3273 -2204.6,-4020.7 -4036.6,-1905.4 -2276.8,-2656.4 -4488,-5000.7 -3433.3,-3637.9 -5353.9,2183.4 -9335.3,416.1 -2439.5,-1083.5 -7214.86,512.9 -5899.67,4156.2 1500.97,4153.3 -758.91,4721.7 -684.57,8198.9 84.4,4039.8 2873.14,4292.8 4599.94,5240.5 1832.4,1005.3 1934.9,4420.2 4926.3,4762.8 2372,270.4 2678.1,-2581 7773.7,-1580.6 2834.2,555.4 5614.1,-2380.5 4832.3,-5122 -1214.2,-4260.5 181.7,-4269.2 479.9,-7050.5 v 0"
         style="fill:#e5f0fa;fill-opacity:1;fill-rule:evenodd;stroke:none"
         id="path14" /><path
         d="m 26226.2,32027.6 c -261,-1.2 -496.1,-108.5 -668.6,-278.3 -176.5,-171.5 -284.7,-409.5 -285.6,-672 -0.5,-156.3 -128.3,-282.1 -286.2,-281.5 -157.7,0.5 -286.7,127.2 -286.2,283.5 0.8,262.4 -105.6,501 -281,673.9 -173.4,174.9 -413.7,281.8 -678.9,282.7 -157.7,0.6 -284.9,127.2 -284.4,283.4 0.7,156.2 128.7,283.9 286.4,283.4 265,-0.9 506.1,104.6 680.7,278.2 176.6,171.7 284.6,409.6 285.6,672.1 0.5,156.2 130.4,282 288.1,281.4 157.8,-0.5 284.8,-127.1 284.3,-283.4 -0.9,-262.4 105.6,-501.1 281,-674 171.3,-170.7 405.6,-279.6 666.6,-282.6 4,0 8.2,-0.2 12.3,-0.1 157.7,-0.5 284.8,-129 284.2,-285.3 -0.6,-156.3 -128.4,-282 -286.1,-281.5 -4.1,0 -8.2,0 -12.2,0.1 v 0"
         style="fill:#cdbbe3;fill-opacity:1;fill-rule:nonzero;stroke:none"
         id="path16" /><path
         d="m 29533,10679.7 c -180.1,-1.5 -346.2,-75 -466,-192.8 -121.7,-121.8 -199.2,-287.8 -199.8,-470.1 -0.4,-108.1 -89.6,-195.9 -199,-195.5 -109.2,0.2 -197.9,88.8 -197.5,196.9 0.6,182.2 -75.8,348.9 -196.8,471.3 -121,120.8 -290.6,195.5 -474.8,196 -109.2,0.4 -197.9,88.8 -197.5,198.9 0.4,108.3 89.7,196.1 198.8,195.7 184.2,-0.6 354.4,74.9 476.2,194.7 121.8,119.7 199.2,285.7 200,470.1 0.2,108.1 89.4,195.9 198.7,195.5 109.4,-0.2 198,-88.8 197.7,-196.8 -0.5,-184.3 75.7,-350.9 196.6,-471.4 119,-118.6 284.6,-195.3 464.7,-198 4,0 6.1,0 10.1,0 109.3,-0.4 198,-88.8 197.7,-197 -0.4,-110.1 -89.8,-198 -199,-197.5 -4,0 -6.1,0 -10.1,0 v 0"
         style="fill:#cdbbe3;fill-opacity:1;fill-rule:nonzero;stroke:none"
         id="path18" /><path
         d="m 13228.8,28776.2 c -182.2,-1.4 -346.3,-75 -468.1,-192.7 -121.8,-121.8 -197.2,-287.7 -197.7,-470 -0.5,-108.3 -89.8,-196 -201,-195.7 -109.3,0.4 -198,88.7 -197.6,196.9 0.5,182.5 -75.8,348.9 -196.7,471.5 -121,120.6 -288.7,195.2 -472.7,195.8 -111.3,0.5 -200,88.8 -199.7,199 0.4,108.2 89.7,196 201,195.7 184.1,-0.6 352.3,74.9 474,194.6 121.8,119.9 199.3,285.9 199.9,468.1 0.3,110.1 89.7,198.1 198.9,197.7 111.3,-0.4 200,-89 199.6,-199.1 -0.6,-182.2 73.7,-348.7 194.7,-469.2 121,-118.6 284.6,-195.4 466.7,-197.9 2,0 6,0 8.1,0 109.2,-0.4 199.9,-88.9 199.6,-197.1 -0.4,-110.2 -91.7,-198 -201,-197.6 -2,0 -6,0 -8,0 v 0"
         style="fill:#a4dcf6;fill-opacity:1;fill-rule:nonzero;stroke:none"
         id="path20" /><path
         d="m 8784.79,15825.3 c -218.43,-3.3 -414.92,-90.8 -559.08,-232.5 -148.2,-145.6 -239.87,-343.7 -240.65,-564.1 -0.39,-130.3 -105.96,-236 -239.5,-235.5 -131.55,0.5 -238.43,106.9 -237.94,237.2 0.68,220.3 -89.65,418.9 -234.79,565.5 -145.19,144.8 -347.24,235.6 -567.75,236.4 -133.55,0.5 -240.36,106.9 -239.94,237 0.44,130.4 107.98,236.1 241.53,235.6 220.53,-0.7 423.16,88.8 569.33,232.5 146.12,145.7 237.79,343.7 238.53,564.2 0.48,129.9 108.03,235.9 239.57,235.6 133.55,-0.5 238.38,-107.2 237.89,-237.3 -0.73,-220.4 89.68,-419 236.89,-565.7 143.19,-142.6 339.11,-231.6 557.5,-236.3 4.15,0 6.15,0 10.2,0 131.4,-0.5 238.33,-106.9 237.89,-237.1 -0.41,-130.1 -108.01,-236 -239.55,-235.6 -3.95,0.1 -5.98,0 -10.13,0.1 v 0"
         style="fill:#cdbbe3;fill-opacity:1;fill-rule:nonzero;stroke:none"
         id="path22" /><path
         d="m 19543.3,7254 c -232.6,-3.3 -443.3,-96.7 -597.6,-248.4 -156.3,-153.8 -252,-365.7 -252.8,-600.1 -0.6,-140.3 -116.2,-251.9 -255.9,-251.4 -141.6,0.4 -254.5,112.9 -254,253.1 0.8,234.4 -95.6,447 -250.9,601.8 -155.2,154.7 -371.4,251.7 -606.1,252.5 -141.6,0.5 -254.5,113 -254,253.1 0.5,138.2 114.2,252 255.8,251.5 234.6,-0.9 451.4,94.7 607.6,248.5 156.4,153.6 254.2,365.7 255.2,600 0.3,138.3 114,252.1 255.6,251.5 139.5,-0.5 254.5,-115 254,-253.2 -0.8,-234.4 93.6,-447 248.9,-601.7 153.1,-152.8 363.3,-249.7 596,-252.5 4,0 8,-0.2 12.2,0 139.5,-0.5 254.4,-112.9 254,-253.2 -0.6,-140.3 -116.2,-252 -255.8,-251.6 -4,0.1 -8,0 -12.2,0.1 v 0"
         style="fill:#a4dcf6;fill-opacity:1;fill-rule:nonzero;stroke:none"
         id="path24" /><path
         d="m 33349.9,23101.9 c -155.8,-1.5 -299.6,-65.1 -405.2,-168.9 -105.6,-103.8 -170.7,-247.8 -171.3,-405.9 -0.2,-96.2 -79.5,-172.2 -174.5,-171.9 -95.2,0.4 -171.8,76.7 -171.4,173 0.5,158.1 -65.8,302.6 -170.7,407.2 -106.8,106.4 -252.2,171 -412.1,171.6 -94.9,0.3 -173.8,76.7 -173.3,172.9 0.2,94.1 79.5,169.9 174.5,169.6 159.9,-0.6 305.7,65 413.3,168.9 105.5,103.9 172.7,249.8 173.3,408.1 0.2,94.1 77.4,169.9 172.5,169.6 95.1,-0.4 173.8,-76.7 173.4,-170.8 -0.5,-158.3 63.8,-304.7 168.6,-409.2 105,-102.6 248.3,-169 404.1,-171.8 4,0.1 6.1,0.2 8.2,0.1 97,-0.4 173.7,-76.6 173.3,-170.8 -0.4,-96.2 -77.4,-172 -174.6,-171.7 -2,0 -4,0 -8.1,0 v 0"
         style="fill:#a4dcf6;fill-opacity:1;fill-rule:nonzero;stroke:none"
         id="path26" /><path
         d="m 18225.5,23218.5 c 17.3,-2.9 34.5,-5.7 51.6,-9.1 10,-2 19.8,-4.3 29.8,-6.5 15.9,-3.5 31.7,-7.1 47.5,-11.1 10.1,-2.6 20,-5.3 30,-8.1 15.6,-4.3 31.3,-8.9 46.8,-13.7 9.5,-3 19.1,-6 28.6,-9.2 16.2,-5.4 32.2,-11.1 48.2,-17 8.5,-3.2 17.1,-6.3 25.6,-9.6 17.8,-7 35.3,-14.5 52.9,-22.1 6.4,-2.8 12.9,-5.5 19.2,-8.3 48.2,-21.9 95.1,-46.2 140.7,-73 5.3,-3.1 10.4,-6.5 15.6,-9.6 17.2,-10.4 34.2,-21 51,-32.1 7.2,-4.8 14.2,-9.7 21.3,-14.6 14.6,-9.9 29.1,-20.1 43.3,-30.6 7.7,-5.7 15.3,-11.6 22.9,-17.4 13.4,-10.3 26.6,-20.8 39.7,-31.6 7.6,-6.2 15.1,-12.5 22.7,-19 12.9,-11 25.5,-22.4 38.1,-33.9 7.1,-6.5 14.3,-13 21.3,-19.7 13.1,-12.5 26,-25.5 38.7,-38.5 5.9,-6.1 11.9,-11.9 17.7,-18 18.2,-19.4 36.1,-39.2 53.5,-59.6 24.2,-28.6 48.6,-60 74.3,-95.9 13.7,-18.9 26.7,-38.2 39.4,-57.6 4,-6.2 7.9,-12.5 11.8,-18.7 8.5,-13.5 16.9,-27 24.9,-40.7 4.3,-7.2 8.5,-14.5 12.6,-21.8 7.5,-13.2 14.8,-26.5 21.8,-39.9 3.8,-7.2 7.7,-14.4 11.4,-21.7 7.6,-15 14.8,-30 21.8,-45.1 2.6,-5.7 5.5,-11.3 8,-16.9 9.4,-20.9 18.3,-41.8 26.7,-63 1.6,-3.8 2.9,-7.7 4.4,-11.6 6.7,-17.4 13.2,-34.9 19.3,-52.5 2.4,-7.2 4.7,-14.5 7.1,-21.7 4.8,-14.6 9.4,-29.2 13.7,-43.9 2.3,-7.9 4.6,-15.7 6.7,-23.6 4.1,-14.9 7.9,-29.7 11.6,-44.7 1.7,-7.3 3.5,-14.7 5.3,-22 4.1,-18.3 7.8,-36.6 11.3,-55.1 0.7,-3.9 1.6,-7.7 2.3,-11.7 4,-22.4 7.5,-44.9 10.4,-67.5 0.8,-6 1.3,-11.9 2.1,-17.9 2,-16.7 3.8,-33.4 5.2,-50.2 0.7,-8 1.2,-16 1.8,-24 1,-15.1 1.9,-30.2 2.4,-45.4 0.4,-8.3 0.6,-16.5 0.8,-24.8 0.4,-15.9 0.4,-31.8 0.3,-47.7 -0.1,-7.2 0,-14.4 -0.2,-21.6 -0.1,-2.4 0,-4.9 -0.1,-7.4 1,0.2 2,0.3 3,0.5 24.7,4.2 49.2,9.3 73.4,15.1 4.4,1 8.7,2.1 13,3.1 23.8,6 47.4,12.6 70.7,20 4,1.3 7.9,2.7 11.8,4 23.9,7.8 47.5,16.3 70.7,25.6 1.8,0.7 3.6,1.6 5.4,2.3 23.1,9.4 45.8,19.6 68.2,30.4 2.1,1.1 4.2,2 6.2,3 22.4,11 44.2,22.8 65.7,35.1 3.6,2 7.1,4 10.7,6.1 20.8,12.3 41.4,25.2 61.5,38.8 3.4,2.3 6.8,4.6 10.2,7 20.3,14 40.3,28.5 59.7,43.8 2,1.5 3.8,3.1 5.8,4.7 19.4,15.4 38.4,31.5 56.7,48.2 1.3,1 2.5,2.1 3.7,3.2 18.5,16.8 36.3,34.4 53.7,52.5 2.6,2.8 5.4,5.6 8.1,8.4 16.7,17.6 32.8,35.8 48.3,54.5 2.8,3.3 5.5,6.6 8.2,10 15.5,19 30.6,38.5 44.9,58.6 1.8,2.4 3.4,5 5.3,7.5 14.5,20.6 28.4,41.7 41.6,63.3 0.5,0.8 1.1,1.6 1.6,2.5 13.2,21.8 25.5,44.1 37.3,66.9 1.9,3.5 3.7,6.8 5.5,10.3 11.1,22 21.6,44.5 31.3,67.3 1.8,4.2 3.6,8.4 5.4,12.6 9.5,23 18.5,46.4 26.6,70.2 1.2,3.5 2.3,7.1 3.5,10.6 8.3,25.1 16,50.6 22.7,76.5 24.6,95.2 37,193.9 37,293.3 v 2680 670 c 0,646.5 -526,1172.5 -1172.5,1172.5 -646.5,0 -1172.5,-526 -1172.5,-1172.5 v -2965.3 c 25.9,-2.4 51.6,-5.6 77.3,-9.3 8.9,-1.3 17.7,-3 26.5,-4.4"
         style="fill:#6863b0;fill-opacity:1;fill-rule:nonzero;stroke:none"
         id="path28" /><path
         d="m 17007.4,22881 c 15.3,13 30.9,25.5 46.7,37.9 5,3.9 10.2,7.7 15.3,11.6 10.9,8.3 21.8,16.5 32.9,24.4 6,4.4 12.1,8.6 18.2,12.9 10.5,7.2 21.1,14.4 31.7,21.4 6.3,4.2 12.6,8.3 19,12.4 11.1,7.1 22.4,14 33.7,20.7 5.8,3.6 11.6,7.1 17.6,10.6 14.2,8.3 28.7,16.4 43.3,24.3 2.9,1.5 5.7,3.2 8.7,4.8 17.5,9.3 35.3,18.2 53.2,26.8 5.1,2.5 10.3,4.8 15.4,7.2 12.9,6.1 25.8,11.9 38.9,17.6 6.6,2.9 13.4,5.6 20.1,8.5 11.8,4.9 23.7,9.7 35.5,14.3 7.1,2.7 14.1,5.4 21.2,8 12.1,4.5 24.3,8.8 36.5,13 6.8,2.2 13.4,4.6 20.2,6.8 14.1,4.6 28.3,8.9 42.5,13.1 4.8,1.4 9.7,3 14.6,4.4 19,5.4 38.2,10.4 57.4,15 4.7,1.1 9.3,2.1 13.9,3.1 14.8,3.4 29.6,6.7 44.4,9.7 7,1.3 14.1,2.6 21.1,3.9 12.7,2.3 25.3,4.5 38,6.5 7.6,1.2 15.2,2.4 22.9,3.5 5.5,0.8 10.9,1.7 16.4,2.4 v 2971.7 335 c 0,646.5 -526,1172.5 -1172.5,1172.5 -646.5,0 -1172.5,-526 -1172.5,-1172.5 v -4907.9 l 159.7,64.3 1406,1192.1"
         style="fill:#6863b0;fill-opacity:1;fill-rule:nonzero;stroke:none"
         id="path30" /><path
         d="m 21500.4,21774.6 c 145.9,-64.3 306.5,-99.6 473.8,-99.6 535.4,0 1002.3,361.5 1135.5,879.2 24.6,95.2 37,193.9 37,293.3 v 2010 670 c 0,646.5 -526,1172.5 -1172.5,1172.5 -646.5,0 -1172.5,-526 -1172.5,-1172.5 v -2680 c 0,-99.4 12.5,-198.1 36.9,-293.2 91.6,-356 340.9,-638.1 661.8,-779.7"
         style="fill:#6863b0;fill-opacity:1;fill-rule:nonzero;stroke:none"
         id="path32" /><path
         d="m 24654.2,26030 c -646.5,0 -1172.5,-526 -1172.5,-1172.5 v -2010 -335 -335 c 0,-646.5 526,-1172.5 1172.5,-1172.5 205.7,0 408.4,54.3 586,157.2 361.8,209.3 586.5,598.3 586.5,1015.3 v 2680 c 0,646.5 -526,1172.5 -1172.5,1172.5"
         style="fill:#6863b0;fill-opacity:1;fill-rule:nonzero;stroke:none"
         id="path34" /><path
         d="m 25127.2,20746.6 c -24,-8 -48.3,-15.4 -72.8,-22.1 -4.5,-1.3 -9.1,-2.7 -13.7,-3.9 -27.8,-7.4 -55.7,-13.8 -83.8,-19.6 -6.5,-1.3 -13.1,-2.5 -19.6,-3.8 -26.2,-5 -52.7,-9.5 -79.1,-13.1 -3,-0.4 -5.8,-0.9 -8.8,-1.3 -28.6,-3.8 -57.6,-6.5 -86.5,-8.6 -6.8,-0.5 -13.7,-0.9 -20.6,-1.3 -29.4,-1.7 -58.7,-2.9 -88.1,-2.9 -24.8,0 -49.3,0.7 -73.7,1.9 -8.1,0.4 -16.1,1.1 -24.2,1.6 -16.3,1.1 -32.6,2.2 -48.7,3.7 -9.5,0.9 -18.8,2.1 -28.3,3.2 -14.6,1.7 -29.2,3.5 -43.7,5.6 -9.9,1.5 -19.6,3.1 -29.4,4.7 -14,2.4 -27.9,4.8 -41.7,7.5 -9.9,1.9 -19.7,4 -29.5,6.1 -13.7,3 -27.2,6.1 -40.7,9.4 -9.6,2.4 -19.3,4.8 -28.8,7.4 -13.6,3.6 -27.1,7.5 -40.5,11.5 -9.2,2.7 -18.5,5.4 -27.6,8.3 -14,4.5 -27.8,9.3 -41.6,14.1 -8.3,3 -16.7,5.7 -25,8.8 -15.7,5.9 -31.1,12.1 -46.6,18.4 -6.1,2.5 -12.4,4.9 -18.5,7.5 -21.5,9.1 -42.6,18.6 -63.5,28.7 -4,2 -7.9,4.1 -11.9,6 -16.8,8.3 -33.5,16.8 -50,25.7 -7.3,3.9 -14.3,8.1 -21.6,12.2 -12.9,7.3 -25.9,14.6 -38.7,22.2 -7.9,4.8 -15.7,9.8 -23.5,14.7 -11.8,7.4 -23.5,14.8 -35,22.5 -8.1,5.3 -16,10.8 -23.9,16.3 -11.1,7.7 -22.1,15.5 -33,23.5 -7.9,5.7 -15.6,11.6 -23.4,17.5 -10.7,8.2 -21.3,16.5 -31.7,25 -7.5,6 -15,12.1 -22.4,18.2 -10.5,8.9 -20.9,17.9 -31.2,27.1 -7,6.1 -14,12.2 -20.8,18.5 -10.8,9.9 -21.3,20.1 -31.8,30.3 -5.9,5.8 -12.1,11.5 -17.9,17.4 -12.8,12.9 -25.2,26.1 -37.5,39.4 -3.3,3.5 -6.7,6.9 -10,10.5 -15.4,17 -30.4,34.4 -45.1,52.1 -4,4.8 -7.8,9.9 -11.8,14.8 -10.5,13 -20.9,26 -30.9,39.3 -5.2,6.9 -10.2,14 -15.2,21 -8.5,11.6 -17,23.3 -25.1,35.2 -5.3,7.7 -10.5,15.6 -15.7,23.5 -7.5,11.4 -14.9,22.9 -22.2,34.6 -5.1,8.3 -10.1,16.6 -15,25 -6.9,11.6 -13.6,23.4 -20.3,35.2 -4.7,8.5 -9.4,17 -13.9,25.6 -6.5,12.1 -12.7,24.3 -18.8,36.6 -4.3,8.6 -8.6,17.2 -12.7,25.8 -6,12.8 -11.9,25.9 -17.6,38.9 -3.6,8.3 -7.4,16.6 -10.9,24.9 -6,14.4 -11.6,29 -17.2,43.6 -2.7,7.3 -5.8,14.4 -8.4,21.8 -7.7,21.1 -15,42.5 -21.8,64.1 -0.2,0.8 -0.5,1.6 -0.7,2.5 -7,22.4 -13.5,45.2 -19.5,68.1 -1.8,7.2 -3.4,14.4 -5.2,21.6 -3.8,15.8 -7.6,31.7 -11,47.8 -1.8,8.8 -3.4,17.8 -5.1,26.7 -2,10.5 -4.3,20.9 -6.1,31.5 -1.1,-1.5 -2.4,-2.9 -3.6,-4.4 -15.7,-20.2 -31.9,-40 -48.5,-59.2 -2.9,-3.3 -5.7,-6.4 -8.6,-9.6 -14.2,-16.2 -28.8,-32.1 -43.7,-47.6 -4.8,-5 -9.6,-9.9 -14.4,-14.8 -16.1,-16.4 -32.5,-32.4 -49.3,-48 -1.9,-1.8 -3.8,-3.6 -5.8,-5.4 -18.8,-17.3 -38.1,-33.9 -57.7,-50.1 -4.8,-4.1 -9.8,-8 -14.8,-12 -15.7,-12.7 -31.7,-25.1 -48,-37.2 -5.1,-3.7 -10,-7.5 -15.1,-11.2 -20.6,-14.9 -41.5,-29.4 -62.8,-43.2 -2.7,-1.7 -5.5,-3.3 -8.1,-5 -18.9,-12.1 -38.1,-23.7 -57.5,-35 -6.1,-3.5 -12.2,-6.9 -18.3,-10.4 -18.9,-10.6 -38,-20.8 -57.3,-30.5 -3.7,-1.9 -7.2,-3.9 -10.9,-5.7 -22.8,-11.3 -46,-21.9 -69.4,-32 -5.6,-2.5 -11.4,-4.8 -17.2,-7.2 -18.6,-7.8 -37.5,-15.3 -56.5,-22.4 -6.4,-2.3 -12.7,-4.7 -19.1,-7 -24.2,-8.6 -48.5,-16.8 -73.1,-24.2 -2,-0.6 -4,-1.1 -6,-1.7 -22.8,-6.7 -45.8,-12.8 -69,-18.5 -7.1,-1.7 -14.2,-3.3 -21.4,-5 -20.4,-4.6 -41,-8.9 -61.7,-12.7 -5.4,-1 -10.6,-2.2 -16,-3.1 -25.5,-4.4 -51.1,-8.2 -77,-11.4 -6.1,-0.7 -12.3,-1.2 -18.4,-1.9 -20.7,-2.2 -41.3,-4.1 -62.2,-5.5 -7.4,-0.5 -14.9,-1 -22.3,-1.4 -26.5,-1.4 -53,-2.3 -79.8,-2.3 -32.3,0 -64.3,1.3 -96.2,3.4 -5.9,0.3 -11.7,0.6 -17.6,1.1 -30.6,2.3 -60.9,5.5 -91.1,9.6 -5.8,0.8 -11.5,1.7 -17.2,2.5 -62.5,9.3 -123.8,22.4 -183.7,39.1 -5.4,1.5 -10.8,3 -16.2,4.5 -28.9,8.4 -57.3,17.6 -85.5,27.7 -5.2,1.8 -10.3,3.8 -15.5,5.7 -58.1,21.5 -114.7,46.5 -169.4,74.8 -4.8,2.5 -9.6,4.9 -14.4,7.4 -26.3,13.9 -52.1,28.6 -77.5,44.1 -4.5,2.7 -9,5.6 -13.5,8.5 -52.3,32.5 -102.4,68.2 -150.2,106.8 -4.1,3.4 -8.4,6.7 -12.5,10.1 -22.8,18.9 -45.1,38.4 -66.9,58.6 -3.9,3.7 -7.7,7.4 -11.6,11.1 -44.5,42.2 -86.5,87.3 -125.6,134.8 -3.6,4.3 -7.2,8.6 -10.7,13 -18.5,23.1 -36.4,46.7 -53.7,70.9 -3.3,4.7 -6.4,9.3 -9.7,14 -17.5,25.2 -34.5,50.8 -50.5,77.2 -0.1,0.2 -0.3,0.4 -0.4,0.7 -16,26.3 -30.9,53.3 -45.3,80.7 -1.6,3.2 -3.6,6.2 -5.2,9.4 -1.7,-3.2 -3.5,-6.2 -5.2,-9.4 -12,-22.9 -24.6,-45.4 -37.7,-67.6 -1.5,-2.4 -2.8,-4.9 -4.3,-7.4 -14.4,-23.9 -29.5,-47.3 -45.2,-70.3 -3.5,-5.2 -7.1,-10.3 -10.7,-15.4 -15.5,-22.3 -31.5,-44.3 -48.2,-65.6 -0.5,-0.7 -1.1,-1.4 -1.5,-2.1 -17.3,-22 -35.4,-43.2 -53.7,-64.2 -4.2,-4.7 -8.3,-9.4 -12.5,-14 -18.7,-20.7 -37.7,-41 -57.4,-60.6 -0.4,-0.4 -0.8,-0.8 -1.1,-1.1 -19.4,-19.3 -39.5,-37.7 -59.9,-55.9 -4.6,-4.1 -9.2,-8.2 -13.9,-12.3 -20.9,-18.1 -42.1,-35.7 -63.9,-52.6 -2,-1.6 -4,-3 -5.9,-4.5 -20.3,-15.6 -41.1,-30.6 -62.3,-45.2 -4.9,-3.4 -9.9,-6.9 -14.9,-10.2 -22.8,-15.4 -45.9,-30.2 -69.5,-44.3 -3.3,-1.9 -6.6,-3.7 -9.9,-5.7 -21.4,-12.5 -43,-24.4 -65,-35.9 -5.1,-2.7 -10.2,-5.4 -15.4,-8 -24.5,-12.5 -49.3,-24.3 -74.5,-35.4 -4.4,-1.9 -8.9,-3.7 -13.2,-5.6 -22.5,-9.6 -45.1,-18.7 -68,-27.2 -5.1,-1.9 -10.2,-3.9 -15.3,-5.7 -25.9,-9.4 -52.1,-18 -78.6,-25.9 -5.4,-1.6 -10.8,-3.1 -16.3,-4.7 -23.4,-6.7 -47.1,-12.9 -71,-18.5 -4.8,-1.2 -9.6,-2.4 -14.4,-3.5 -27.1,-6.1 -54.4,-11.3 -82,-16 -6.3,-1 -12.5,-1.9 -18.8,-2.8 -24.8,-3.9 -49.7,-7.1 -74.8,-9.7 -3,-0.3 -6,-0.9 -9.1,-1.2 -5.2,-19.5 -10.7,-38.9 -16.6,-58.1 -1.7,-5.3 -3.5,-10.4 -5.1,-15.6 -4.7,-14.6 -9.4,-29 -14.4,-43.4 -2.6,-7.1 -5.3,-14.2 -8,-21.4 -4.4,-12.3 -9.1,-24.5 -14,-36.7 -3,-7.6 -6.2,-15.2 -9.4,-22.8 -4.8,-11.6 -9.8,-23.1 -15,-34.6 -3.3,-7.6 -6.8,-15.2 -10.4,-22.8 -5.3,-11.4 -10.9,-22.8 -16.5,-34.1 -3.7,-7.2 -7.3,-14.5 -11,-21.7 -6.1,-11.9 -12.6,-23.7 -19.2,-35.5 -3.4,-6.3 -6.8,-12.6 -10.4,-18.9 -8.7,-15.1 -17.7,-30.1 -26.9,-44.9 -1.7,-2.7 -3.2,-5.5 -4.9,-8.1 -10.9,-17.4 -22.2,-34.5 -33.9,-51.4 -3.6,-5.4 -7.6,-10.6 -11.3,-15.9 -8.2,-11.6 -16.4,-23.1 -24.9,-34.5 -4.7,-6.3 -9.6,-12.5 -14.5,-18.7 -7.8,-10.2 -15.7,-20.3 -23.8,-30.2 -5.3,-6.5 -10.7,-12.9 -16.2,-19.3 -8,-9.6 -16.2,-19 -24.5,-28.4 -5.5,-6.2 -11.2,-12.5 -16.9,-18.7 -8.6,-9.4 -17.4,-18.7 -26.3,-27.9 -5.6,-5.8 -11.2,-11.6 -16.9,-17.3 -9.8,-9.9 -19.8,-19.5 -30,-29.1 -5,-4.7 -9.9,-9.6 -15,-14.3 -15.3,-14.1 -30.8,-27.9 -46.7,-41.4 l -2416.2,-2048.8 c 372.3,16.8 905.3,18.2 1476.8,-53.5 1416,-177.8 2373.4,-728.3 2768.6,-1592 38.5,-84.1 1.5,-183.5 -82.6,-222 -22.6,-10.4 -46.3,-15.2 -69.6,-15.2 -63.5,0 -124.3,36.3 -152.4,97.8 -797.7,1743.2 -4009.5,1456.3 -4386,1416.2 -22,-11.7 -46.4,-20.8 -72.8,-27.8 -41.2,-11 -87.6,-16.7 -140.4,-16.7 v 0 c -2.5,0 -5.1,0.2 -7.6,0.3 -251.4,2.3 -633.4,122.3 -1003.3,238.6 -23.7,7.5 -47.9,15.1 -72,22.7 -7.1,2.2 -14.1,4.3 -21.1,6.5 -25.1,7.9 -50.1,15.7 -75.1,23.3 -3.1,1 -6.2,2 -9.3,3 -26.9,8.2 -53.5,16.3 -79.6,24 -2,0.7 -4.2,1.3 -6.3,1.9 -26,7.8 -51.4,15.2 -76,22.2 -1.5,0.4 -3.1,0.8 -4.6,1.3 l 752.3,-2052.7 c 3.4,-9.4 6,-19.2 7.8,-29.1 73.8,-426.7 441.7,-736.5 874.7,-736.5 h 8106.3 c 489.5,0 887.8,398.2 887.8,887.8 v 4223.5 c -3.7,-1.3 -7.5,-2.4 -11.2,-3.7 -6.1,-2.1 -12.2,-4 -18.3,-6"
         style="fill:#6863b0;fill-opacity:1;fill-rule:nonzero;stroke:none"
         id="path36" /><path
         d="m 14574.6,18797.9 c 5,-1.4 9.8,-2.7 14.9,-4.1 18.2,-5 37,-10.3 56.5,-15.9 5.9,-1.7 12.1,-3.5 18.2,-5.3 15,-4.4 30.5,-9 46.3,-13.7 7.1,-2.1 14.2,-4.2 21.5,-6.5 20.8,-6.2 42,-12.7 64.1,-19.4 7,-2.2 14.3,-4.4 21.4,-6.6 17.2,-5.4 34.7,-10.8 52.6,-16.4 9.7,-3 19.6,-6.1 29.6,-9.2 21.4,-6.7 43.2,-13.6 65.7,-20.6 2.4,-0.8 4.5,-1.4 6.8,-2.2 316.6,-99.5 710.6,-223.5 910.5,-223.5 17.8,0 30.4,1.1 39.5,2.3 6.8,1 11.8,2 14.6,2.7 l 2803.8,2377.5 c 210.6,178.6 351.8,426.6 397.6,698.5 52.4,311.6 -19.9,623.8 -203.6,879.2 -20.6,28.6 -39.6,53.1 -58,74.9 -228.3,269.2 -565.2,420.4 -919,413.7 -51,-1 -101.4,-5.2 -150.9,-12.6 -214.7,-31.8 -413.9,-122 -582.7,-265.2 l -1426.6,-1209.7 c -13.7,-11.6 -29.1,-20.9 -45.8,-27.6 l -1274.7,-512.9 c -210.1,-84.5 -332.5,-299.8 -297.7,-523.5 l 235.6,-1516.1 c 2.2,-0.4 4.7,-0.9 6.9,-1.4 12.5,-2.4 25.4,-5.1 38.8,-8.1 2.8,-0.6 5.4,-1.1 8.2,-1.7 15.7,-3.6 32.2,-7.6 49.2,-11.9 4.8,-1.1 9.8,-2.4 14.6,-3.7 13.6,-3.4 27.7,-7.2 42.1,-11"
         style="fill:#6863b0;fill-opacity:1;fill-rule:nonzero;stroke:none"
         id="path38" /><path
         d="m 16162.6,15310 h -385.9 v -3015 h 8710 v 3015 h -217.8 -8106.3"
         style="fill:#6863b0;fill-opacity:1;fill-rule:nonzero;stroke:none"
         id="path40" /></g></g></svg>
