<?xml version="1.0" standalone="no"?>
<!DOCTYPE svg PUBLIC "-//W3C//DTD SVG 20010904//EN"
 "http://www.w3.org/TR/2001/REC-SVG-20010904/DTD/svg10.dtd">
<svg version="1.0" xmlns="http://www.w3.org/2000/svg"
 width="1228.000000pt" height="368.000000pt" viewBox="0 0 1228.000000 368.000000"
 preserveAspectRatio="xMidYMid meet">
<metadata>
Created by potrace 1.16, written by Peter Selinger 2001-2019
</metadata>
<g transform="translate(0.000000,368.000000) scale(0.100000,-0.100000)"
fill="#000000" stroke="none">
<path d="M5968 3286 c-77 -21 -99 -51 -113 -154 -5 -38 -17 -66 -41 -98 -37
-49 -41 -65 -20 -84 12 -9 13 -18 5 -38 -13 -34 -4 -69 21 -82 11 -6 20 -14
20 -19 0 -4 -35 -18 -77 -32 -58 -18 -88 -34 -115 -61 -39 -39 -46 -58 -87
-240 -15 -62 -34 -114 -54 -147 -18 -28 -56 -89 -85 -136 -29 -47 -57 -85 -61
-85 -4 0 -17 13 -29 30 -39 52 -156 97 -137 53 17 -39 11 -67 -15 -73 -20 -5
-26 -13 -30 -45 -4 -31 -10 -40 -33 -48 -23 -7 -39 -4 -83 17 l-53 26 -33 -20
c-58 -35 -109 -22 -127 32 -5 18 -15 76 -20 128 -6 52 -15 111 -21 130 -5 19
-10 63 -10 98 0 71 -18 125 -49 144 -26 16 -26 20 3 66 14 20 30 56 37 79 7
24 20 50 31 59 25 23 23 46 -7 74 -20 19 -25 33 -25 75 0 173 -209 280 -367
188 -32 -19 -46 -34 -54 -64 -14 -47 -32 -64 -83 -81 -32 -11 -42 -20 -52 -51
-8 -22 -27 -54 -44 -73 -16 -19 -32 -45 -36 -58 -3 -13 -18 -33 -33 -44 -20
-15 -30 -33 -35 -64 -4 -23 -16 -53 -28 -65 -13 -14 -18 -28 -14 -39 4 -10 -3
-32 -19 -56 -21 -31 -22 -38 -9 -38 12 0 14 -5 9 -17 -12 -27 -33 -95 -39
-125 l-6 -28 -103 -2 c-56 -1 -159 -3 -229 -3 -152 0 -163 -5 -129 -65 18 -33
20 -44 11 -55 -22 -26 -60 -16 -145 39 -124 81 -157 132 -159 245 -2 93 -19
122 -89 157 l-49 25 21 23 c28 29 27 44 -4 58 -22 10 -25 16 -19 42 13 53 5
116 -18 157 -27 48 -98 78 -204 86 -84 7 -219 -19 -228 -43 -3 -9 -6 -58 -6
-110 0 -125 -14 -178 -60 -224 -27 -27 -51 -39 -93 -49 -65 -14 -109 -47 -137
-101 -22 -43 -24 -77 -14 -216 7 -97 6 -102 -14 -113 -14 -8 -29 -8 -47 -1
-14 5 -59 10 -98 11 -40 0 -94 4 -122 9 -27 4 -51 7 -52 6 -1 -1 11 -47 28
-101 16 -55 32 -122 35 -150 l6 -51 -38 -11 c-117 -34 -179 -24 -236 34 -19
21 -75 99 -123 173 -48 74 -97 146 -108 158 -29 31 -70 48 -139 56 -71 9 -91
28 -48 46 54 22 70 54 70 135 0 52 4 76 15 85 20 17 19 33 -4 47 -17 11 -40
67 -55 134 -15 69 -113 133 -206 133 -42 0 -67 -6 -109 -29 -51 -28 -111 -88
-111 -110 0 -16 -38 -93 -50 -100 -17 -11 -11 -54 12 -85 l21 -29 -23 -45
c-21 -39 -23 -48 -12 -84 13 -42 80 -112 107 -112 24 0 18 -24 -21 -81 -25
-37 -40 -74 -47 -114 l-10 -61 -60 12 c-56 12 -87 10 -87 -5 0 -4 18 -25 41
-46 22 -22 54 -58 69 -81 33 -46 95 -191 108 -251 l9 -40 -51 -12 c-28 -6 -64
-12 -81 -14 -23 -1 -31 -7 -33 -26 -5 -32 12 -41 83 -41 33 0 65 -4 71 -8 7
-4 17 -40 23 -80 24 -156 73 -246 138 -256 110 -16 302 -17 398 -2 55 8 147
17 204 18 l104 4 -7 -161 c-12 -299 -25 -520 -33 -545 -4 -14 -15 -35 -23 -48
l-15 -22 -453 0 c-426 0 -453 -1 -450 -17 3 -17 74 -18 1253 -25 1490 -9 1280
-9 2150 -3 716 6 753 8 712 40 -9 7 -12 61 -12 205 0 107 -4 338 -9 512 l-9
318 184 0 185 0 17 -37 c14 -32 17 -100 23 -448 3 -226 7 -443 8 -482 1 -68 0
-73 -20 -73 -21 0 -38 -22 -27 -34 8 -8 1448 -8 1456 0 3 3 3 12 0 20 -4 11
-32 14 -132 14 l-128 0 5 30 c2 17 -3 110 -11 208 -9 97 -19 236 -22 307 l-6
130 63 18 c74 22 124 68 134 125 7 37 -11 197 -26 238 -9 21 -7 22 168 26 97
3 185 2 196 0 17 -4 18 -11 11 -66 -3 -34 -8 -270 -11 -525 -2 -255 -6 -473
-10 -483 -3 -10 0 -20 8 -23 7 -3 587 -7 1288 -9 701 -3 1289 -5 1305 -6 17 0
67 3 113 6 63 4 93 2 123 -10 49 -20 105 -20 143 -1 24 13 113 15 607 15 508
0 579 2 579 15 0 13 -59 15 -467 15 l-466 0 6 113 c4 61 7 234 7 382 l0 270
173 -1 c94 0 199 -6 231 -12 196 -39 293 15 331 181 36 159 135 454 179 533
24 43 42 82 40 86 -2 3 -35 9 -72 13 -71 7 -206 38 -246 56 -22 10 -23 17 -29
132 -4 84 -13 146 -29 199 -21 70 -32 86 -106 168 -45 50 -82 97 -82 106 0 8
20 39 45 69 48 59 69 118 59 162 -7 29 -46 88 -74 111 -30 25 -95 52 -130 52
-47 0 -125 -38 -182 -89 -41 -36 -48 -48 -48 -79 0 -21 -11 -64 -25 -97 -32
-78 -32 -108 0 -125 21 -11 25 -20 25 -61 0 -55 10 -62 80 -53 43 6 48 4 53
-17 5 -19 -3 -32 -44 -69 l-51 -45 -55 -200 c-39 -143 -56 -227 -61 -295 l-7
-95 -63 -3 c-87 -4 -172 14 -172 37 0 9 15 62 33 117 54 160 54 150 0 168 -28
10 -80 16 -132 16 l-86 0 0 83 c0 45 -7 114 -14 152 -18 91 -46 117 -188 174
-102 42 -160 73 -174 94 -4 5 2 30 14 56 12 26 22 77 25 118 5 84 -13 133 -77
202 -32 35 -44 41 -77 41 -47 -1 -108 -22 -136 -47 -44 -39 -48 -67 -28 -213
18 -136 14 -186 -14 -209 -7 -6 -40 -16 -72 -23 -32 -6 -72 -20 -88 -31 -40
-28 -105 -120 -159 -224 -49 -94 -76 -124 -176 -197 -61 -43 -146 -84 -156
-74 -2 2 -7 31 -10 64 -10 96 -13 104 -38 104 -30 0 -56 56 -93 197 l-26 102
-70 59 c-62 53 -77 61 -136 72 -94 18 -109 25 -127 60 -15 29 -15 37 -1 93 33
133 38 198 21 244 -32 84 -139 148 -235 141 -68 -5 -122 -30 -176 -83 -55 -52
-67 -111 -63 -289 l4 -131 -91 -62 c-77 -52 -120 -94 -267 -260 -97 -109 -192
-209 -212 -222 -26 -18 -38 -35 -46 -67 l-11 -44 -77 0 c-93 0 -106 7 -91 44
18 49 11 91 -41 217 -45 111 -51 133 -52 206 l-2 82 -44 45 c-49 50 -88 72
-211 118 -90 33 -144 75 -155 121 -4 14 2 57 14 101 12 42 21 94 21 117 0 63
-36 135 -88 175 -41 31 -51 34 -111 33 -36 0 -87 -6 -113 -13z m2502 -1784 c0
-5 -9 -17 -19 -26 -23 -21 -31 -62 -33 -176 -1 -54 4 -103 14 -135 15 -46 21
-150 32 -564 1 -54 0 -55 -31 -63 -43 -11 -44 -41 -3 -58 17 -7 30 -19 30 -26
0 -11 -33 -14 -178 -14 l-178 0 -12 313 c-7 171 -12 360 -12 420 l0 107 105 0
c112 0 166 14 183 47 5 10 12 44 15 76 6 61 18 84 52 97 27 11 35 12 35 2z
m-3540 -512 c7 -245 10 -471 6 -502 l-7 -58 -149 0 -148 0 -21 34 c-11 18 -45
49 -74 69 -58 38 -87 84 -87 136 l0 31 80 -6 80 -7 0 26 c0 16 -17 47 -45 81
-25 31 -45 59 -45 62 0 4 53 59 118 123 155 151 176 191 177 336 0 101 0 102
22 92 29 -13 73 -1 73 20 0 9 2 14 4 12 2 -2 9 -204 16 -449z m-1110 -132 l0
-428 -68 0 -69 0 5 29 c3 22 -2 33 -24 50 -15 12 -37 24 -50 27 -22 6 -22 7
-8 46 8 22 14 59 14 82 0 58 35 358 61 518 l21 134 59 -15 59 -16 0 -427z
m2603 423 c24 -29 25 -37 31 -223 4 -106 14 -281 23 -389 9 -108 13 -208 9
-222 l-6 -27 -208 1 -207 1 72 15 c84 18 83 15 83 154 0 111 36 544 49 598 5
20 12 48 15 63 13 58 99 76 139 29z m-409 -1 c7 -7 3 -46 -12 -123 -17 -89
-22 -149 -22 -276 l0 -163 -32 6 c-43 8 -47 14 -107 127 -63 118 -105 231
-124 332 l-14 76 46 10 c130 31 241 35 265 11z m2816 -74 c42 -54 44 -60 40
-109 -2 -29 -4 -83 -4 -120 l-1 -69 -28 34 c-74 87 -119 226 -103 313 7 35 8
36 29 22 12 -8 42 -40 67 -71z m-5447 47 c-1 -16 -15 -111 -29 -213 -15 -102
-27 -229 -28 -282 -1 -94 -2 -98 -32 -130 -46 -48 -57 -76 -57 -140 1 -43 -3
-58 -13 -58 -9 0 -14 12 -14 38 0 21 -10 54 -24 77 -17 28 -21 43 -14 52 7 9
3 32 -11 75 -43 132 -81 363 -81 498 l0 90 43 1 c50 2 249 15 258 17 3 1 4
-10 2 -25z m705 6 c112 -11 237 -19 278 -17 74 3 74 3 74 -23 0 -15 -27 -81
-60 -148 -53 -107 -62 -134 -75 -229 -20 -137 -21 -139 -54 -157 -16 -8 -43
-31 -60 -51 -26 -29 -31 -42 -26 -63 4 -14 9 -47 12 -73 l5 -48 66 -1 c37 -1
81 -5 97 -9 17 -4 -89 -8 -234 -9 l-263 -1 6 23 c3 12 6 203 6 425 0 311 3
402 12 402 7 0 104 -9 216 -21z m3573 -16 c7 -7 8 -20 3 -35 -13 -34 -98 -178
-106 -178 -3 0 -18 21 -33 46 -15 26 -43 64 -62 85 -19 20 -36 53 -39 71 l-6
33 116 -6 c64 -3 121 -10 127 -16z m386 -206 c2 -127 7 -302 12 -387 5 -85 7
-167 4 -182 l-5 -28 -189 0 c-104 0 -189 2 -189 4 0 2 23 18 50 36 60 38 70
55 70 112 0 58 -27 109 -70 130 -19 10 -35 22 -34 28 1 5 2 18 3 28 0 10 26
47 57 83 30 35 79 98 109 140 29 41 65 83 80 93 25 16 38 39 79 139 8 20 16
37 18 37 2 0 4 -105 5 -233z m1618 74 c2 -89 -1 -147 -11 -183 -19 -74 -18
-105 5 -113 20 -6 31 -50 31 -125 -1 -55 -8 -68 -94 -169 l-69 -81 -72 0 -72
0 -18 179 c-14 145 -16 219 -10 395 l7 216 97 1 c53 0 119 4 146 8 28 4 52 6
54 4 2 -1 5 -61 6 -132z m-7592 111 c54 -59 93 -409 61 -546 -6 -25 -5 -28 11
-22 17 6 17 5 1 -16 -46 -64 -56 -86 -56 -125 0 -30 6 -49 20 -63 l20 -20
-151 0 c-123 0 -149 2 -141 13 20 24 62 667 48 739 l-7 36 83 10 c46 5 86 10
89 11 3 0 13 -7 22 -17z m687 -49 c7 -32 20 -96 31 -143 10 -46 16 -86 13 -89
-6 -7 -101 40 -124 61 -17 16 -20 31 -20 118 l0 99 33 4 c17 2 37 5 44 5 7 1
17 -23 23 -55z m6557 -140 c-6 -179 -1 -307 19 -520 l7 -73 -76 0 -75 0 -7 30
c-8 38 -98 175 -123 189 -15 8 -22 29 -31 91 l-12 81 60 120 c34 66 61 128 61
137 0 32 52 91 103 117 85 42 81 51 74 -172z m843 180 l65 -5 -2 -327 c-2
-179 -5 -354 -9 -388 -7 -79 -29 -86 -29 -10 0 42 -6 62 -27 93 -15 21 -34 59
-43 84 -23 65 -55 261 -55 338 0 63 -14 174 -27 216 -5 17 -2 18 28 12 19 -4
63 -10 99 -13z m-4676 -317 c37 -140 64 -222 82 -249 l26 -40 69 6 69 6 -19
-37 c-10 -20 -37 -54 -60 -75 -41 -38 -52 -71 -28 -80 6 -3 -41 -6 -105 -6
l-117 -1 9 29 c4 16 4 91 -1 167 -4 77 -8 243 -8 369 1 213 2 226 14 175 7
-30 38 -149 69 -264z m1686 174 c53 -79 91 -158 141 -293 l43 -118 -38 -31
c-60 -50 -116 -126 -116 -159 l0 -29 -70 0 -70 0 0 386 0 386 36 -44 c20 -23
53 -68 74 -98z m1396 -195 c60 -81 104 -176 104 -223 0 -24 -8 -32 -62 -60
-86 -44 -94 -42 -102 16 -11 87 -17 389 -7 365 6 -12 35 -56 67 -98z m-5946
-215 c0 -187 -11 -223 -71 -228 -32 -3 -36 0 -35 20 1 19 -13 30 -77 64 -43
22 -86 49 -97 60 -19 19 -19 20 -1 50 14 23 30 33 56 38 44 9 52 25 60 126 l6
75 80 -25 79 -25 0 -155z m220 86 c13 -84 31 -119 71 -143 30 -18 31 -19 24
-77 -5 -47 -3 -62 11 -77 17 -19 14 -19 -146 -19 l-162 0 7 23 c5 12 10 98 12
191 l5 168 41 -6 c23 -3 60 -2 82 3 22 4 41 7 42 6 1 0 7 -31 13 -69z"/>
</g>
</svg>
